<svg width="28" height="28" viewBox="0 0 28 28" fill="none" xmlns="http://www.w3.org/2000/svg">
<g id="icon">
<g id="Group">
<path id="Vector" d="M21.4445 15.3684C20.8079 15.3598 20.1759 15.4777 19.5853 15.7154C18.9947 15.9531 18.4572 16.3057 18.004 16.7528C17.5508 17.1999 17.191 17.7327 16.9453 18.32C16.6997 18.9074 16.5732 19.5377 16.5732 20.1743C16.5732 20.8109 16.6997 21.4412 16.9453 22.0286C17.191 22.6159 17.5508 23.1486 18.004 23.5958C18.4572 24.0429 18.9947 24.3955 19.5853 24.6332C20.1759 24.8709 20.8079 24.9888 21.4445 24.9802C22.7078 24.9632 23.9137 24.4493 24.8011 23.5499C25.6885 22.6505 26.186 21.4378 26.186 20.1743C26.186 18.9108 25.6885 17.6981 24.8011 16.7987C23.9137 15.8992 22.7078 15.3854 21.4445 15.3684ZM23.5725 19.97L21.2257 21.86C21.1445 21.9253 21.0511 21.9738 20.951 22.0027C20.8509 22.0317 20.7461 22.0404 20.6425 22.0286C20.539 22.0167 20.4389 21.9844 20.3479 21.9335C20.257 21.8826 20.177 21.8142 20.1127 21.7322L19.1905 20.5562C19.0716 20.3912 19.0211 20.1865 19.0496 19.9851C19.0781 19.7837 19.1833 19.6011 19.3433 19.4755C19.5033 19.3498 19.7056 19.2909 19.908 19.311C20.1105 19.3311 20.2973 19.4286 20.4295 19.5832L20.8591 20.1319L22.5846 18.7415C22.6653 18.6766 22.7579 18.6283 22.8573 18.5992C22.9566 18.5702 23.0607 18.561 23.1636 18.5721C23.2665 18.5833 23.3662 18.6146 23.457 18.6643C23.5478 18.714 23.6279 18.7811 23.6928 18.8618C23.7576 18.9425 23.806 19.0351 23.835 19.1345C23.8641 19.2338 23.8733 19.3379 23.8621 19.4408C23.851 19.5437 23.8196 19.6434 23.7699 19.7342C23.7202 19.825 23.6531 19.9051 23.5725 19.97Z" fill="#0167FF"/>
<path id="Vector_2" d="M15.3251 20.1757C15.3268 18.5534 15.9719 16.998 17.1191 15.8508C18.2663 14.7036 19.8217 14.0584 21.444 14.0568C22.5649 14.0568 23.6131 14.3648 24.5179 14.8933V7.01745C24.5179 6.06367 24.139 5.14895 23.4646 4.47452C22.7901 3.80009 21.8754 3.4212 20.9216 3.4212H19.0316V3.0187C19.0316 2.5812 18.6729 2.2312 18.2441 2.2312C17.8066 2.2312 17.4566 2.5812 17.4566 3.0187V3.4212H8.03289V3.0187C8.03289 2.5812 7.68289 2.2312 7.24539 2.2312C6.80789 2.2312 6.45789 2.5812 6.45789 3.0187V3.4212H4.55914C3.60536 3.4212 2.69064 3.80009 2.01621 4.47452C1.34178 5.14895 0.962891 6.06367 0.962891 7.01745V19.915C0.962891 20.8687 1.34178 21.7835 2.01621 22.4579C2.69064 23.1323 3.60536 23.5112 4.55914 23.5112H16.3209C15.6711 22.5201 15.325 21.3608 15.3251 20.1757ZM18.4025 10.7135C18.5219 10.7135 18.6401 10.737 18.7504 10.7827C18.8607 10.8283 18.9609 10.8953 19.0454 10.9797C19.1298 11.0641 19.1968 11.1644 19.2424 11.2747C19.2881 11.385 19.3116 11.5032 19.3116 11.6226C19.3116 11.742 19.2881 11.8602 19.2424 11.9705C19.1968 12.0808 19.1298 12.181 19.0454 12.2654C18.9609 12.3498 18.8607 12.4168 18.7504 12.4625C18.6401 12.5082 18.5219 12.5317 18.4025 12.5317C18.1614 12.5317 17.9302 12.4359 17.7597 12.2654C17.5892 12.0949 17.4934 11.8637 17.4934 11.6226C17.4934 11.3815 17.5892 11.1502 17.7597 10.9797C17.9302 10.8092 18.1614 10.7135 18.4025 10.7135ZM7.08264 17.4851C6.84153 17.4851 6.61029 17.3893 6.43979 17.2188C6.2693 17.0483 6.17352 16.8171 6.17352 16.576C6.17352 16.3348 6.2693 16.1036 6.43979 15.9331C6.61029 15.7626 6.84153 15.6668 7.08264 15.6668C7.32376 15.6668 7.555 15.7626 7.72549 15.9331C7.89598 16.1036 7.99177 16.3348 7.99177 16.576C7.99177 16.8171 7.89598 17.0483 7.72549 17.2188C7.555 17.3893 7.32376 17.4851 7.08264 17.4851ZM7.08264 12.5317C6.96325 12.5317 6.84503 12.5082 6.73473 12.4625C6.62443 12.4168 6.52421 12.3498 6.43979 12.2654C6.35537 12.181 6.28841 12.0808 6.24272 11.9705C6.19703 11.8602 6.17352 11.742 6.17352 11.6226C6.17352 11.5032 6.19703 11.385 6.24272 11.2747C6.28841 11.1644 6.35537 11.0641 6.43979 10.9797C6.52421 10.8953 6.62443 10.8283 6.73473 10.7827C6.84503 10.737 6.96325 10.7135 7.08264 10.7135C7.32376 10.7135 7.555 10.8092 7.72549 10.9797C7.89598 11.1502 7.99177 11.3815 7.99177 11.6226C7.99177 11.8637 7.89598 12.0949 7.72549 12.2654C7.555 12.4359 7.32376 12.5317 7.08264 12.5317ZM12.743 17.4851C12.5019 17.4851 12.2707 17.3893 12.1002 17.2188C11.9297 17.0483 11.8339 16.8171 11.8339 16.576C11.8339 16.3348 11.9297 16.1036 12.1002 15.9331C12.2707 15.7626 12.5019 15.6668 12.743 15.6668C12.9841 15.6668 13.2154 15.7626 13.3859 15.9331C13.5564 16.1036 13.6521 16.3348 13.6521 16.576C13.6521 16.8171 13.5564 17.0483 13.3859 17.2188C13.2154 17.3893 12.9841 17.4851 12.743 17.4851ZM12.743 12.5317C12.6236 12.5317 12.5054 12.5082 12.3951 12.4625C12.2848 12.4168 12.1846 12.3498 12.1002 12.2654C12.0157 12.181 11.9488 12.0808 11.9031 11.9705C11.8574 11.8602 11.8339 11.742 11.8339 11.6226C11.8339 11.5032 11.8574 11.385 11.9031 11.2747C11.9488 11.1644 12.0157 11.0641 12.1002 10.9797C12.1846 10.8953 12.2848 10.8283 12.3951 10.7827C12.5054 10.737 12.6236 10.7135 12.743 10.7135C12.9841 10.7135 13.2154 10.8092 13.3859 10.9797C13.5564 11.1502 13.6521 11.3815 13.6521 11.6226C13.6521 11.8637 13.5564 12.0949 13.3859 12.2654C13.2154 12.4359 12.9841 12.5317 12.743 12.5317Z" fill="#0167FF"/>
</g>
</g>
</svg>
