<svg width="29" height="28" viewBox="0 0 29 28" fill="none" xmlns="http://www.w3.org/2000/svg">
<path d="M21.5675 15.3684C20.9309 15.3598 20.299 15.4777 19.7084 15.7154C19.1178 15.9531 18.5802 16.3057 18.127 16.7528C17.6739 17.1999 17.314 17.7327 17.0684 18.32C16.8228 18.9074 16.6963 19.5377 16.6963 20.1743C16.6963 20.8109 16.8228 21.4412 17.0684 22.0286C17.314 22.6159 17.6739 23.1486 18.127 23.5958C18.5802 24.0429 19.1178 24.3955 19.7084 24.6332C20.299 24.8709 20.9309 24.9888 21.5675 24.9802C22.8309 24.9632 24.0368 24.4493 24.9241 23.5499C25.8115 22.6505 26.309 21.4378 26.309 20.1743C26.309 18.9108 25.8115 17.6981 24.9241 16.7987C24.0368 15.8992 22.8309 15.3854 21.5675 15.3684ZM23.6955 19.97L21.3488 21.86C21.2675 21.9253 21.1742 21.9738 21.0741 22.0027C20.974 22.0317 20.8691 22.0404 20.7656 22.0286C20.6621 22.0167 20.5619 21.9844 20.471 21.9335C20.38 21.8826 20.3001 21.8142 20.2358 21.7322L19.3135 20.5562C19.1946 20.3912 19.1442 20.1865 19.1726 19.9851C19.2011 19.7837 19.3063 19.6011 19.4663 19.4755C19.6263 19.3498 19.8287 19.2909 20.0311 19.311C20.2335 19.3311 20.4203 19.4286 20.5525 19.5832L20.9821 20.1319L22.7076 18.7415C22.7883 18.6766 22.881 18.6283 22.9803 18.5992C23.0796 18.5702 23.1837 18.561 23.2867 18.5721C23.3896 18.5833 23.4893 18.6146 23.58 18.6643C23.6708 18.714 23.751 18.7811 23.8158 18.8618C23.8807 18.9425 23.929 19.0351 23.9581 19.1345C23.9871 19.2338 23.9964 19.3379 23.9852 19.4408C23.974 19.5437 23.9427 19.6434 23.893 19.7342C23.8433 19.825 23.7762 19.9051 23.6955 19.97Z" fill="white" fill-opacity="0.82"/>
<path d="M15.4482 20.1757C15.4498 18.5534 16.095 16.998 17.2422 15.8508C18.3893 14.7036 19.9447 14.0584 21.5671 14.0568C22.6879 14.0568 23.7362 14.3648 24.6409 14.8933V7.01745C24.6409 6.06367 24.262 5.14895 23.5876 4.47452C22.9132 3.80009 21.9985 3.4212 21.0447 3.4212H19.1547V3.0187C19.1547 2.5812 18.7959 2.2312 18.3672 2.2312C17.9297 2.2312 17.5797 2.5812 17.5797 3.0187V3.4212H8.15594V3.0187C8.15594 2.5812 7.80594 2.2312 7.36844 2.2312C6.93094 2.2312 6.58094 2.5812 6.58094 3.0187V3.4212H4.68219C3.7284 3.4212 2.81368 3.80009 2.13925 4.47452C1.46483 5.14895 1.08594 6.06367 1.08594 7.01745V19.915C1.08594 20.8687 1.46483 21.7835 2.13925 22.4579C2.81368 23.1323 3.7284 23.5112 4.68219 23.5112H16.4439C15.7941 22.5201 15.448 21.3608 15.4482 20.1757ZM18.5256 10.7135C18.645 10.7135 18.7632 10.737 18.8735 10.7827C18.9838 10.8283 19.084 10.8953 19.1684 10.9797C19.2528 11.0641 19.3198 11.1644 19.3655 11.2747C19.4112 11.385 19.4347 11.5032 19.4347 11.6226C19.4347 11.742 19.4112 11.8602 19.3655 11.9705C19.3198 12.0808 19.2528 12.181 19.1684 12.2654C19.084 12.3498 18.9838 12.4168 18.8735 12.4625C18.7632 12.5082 18.645 12.5317 18.5256 12.5317C18.2844 12.5317 18.0532 12.4359 17.8827 12.2654C17.7122 12.0949 17.6164 11.8637 17.6164 11.6226C17.6164 11.3815 17.7122 11.1502 17.8827 10.9797C18.0532 10.8092 18.2844 10.7135 18.5256 10.7135ZM7.20569 17.4851C6.96457 17.4851 6.73333 17.3893 6.56284 17.2188C6.39234 17.0483 6.29656 16.8171 6.29656 16.576C6.29656 16.3348 6.39234 16.1036 6.56284 15.9331C6.73333 15.7626 6.96457 15.6668 7.20569 15.6668C7.4468 15.6668 7.67804 15.7626 7.84854 15.9331C8.01903 16.1036 8.11481 16.3348 8.11481 16.576C8.11481 16.8171 8.01903 17.0483 7.84854 17.2188C7.67804 17.3893 7.4468 17.4851 7.20569 17.4851ZM7.20569 12.5317C7.0863 12.5317 6.96808 12.5082 6.85778 12.4625C6.74748 12.4168 6.64726 12.3498 6.56284 12.2654C6.47842 12.181 6.41145 12.0808 6.36577 11.9705C6.32008 11.8602 6.29656 11.742 6.29656 11.6226C6.29656 11.5032 6.32008 11.385 6.36577 11.2747C6.41145 11.1644 6.47842 11.0641 6.56284 10.9797C6.64726 10.8953 6.74748 10.8283 6.85778 10.7827C6.96808 10.737 7.0863 10.7135 7.20569 10.7135C7.4468 10.7135 7.67804 10.8092 7.84854 10.9797C8.01903 11.1502 8.11481 11.3815 8.11481 11.6226C8.11481 11.8637 8.01903 12.0949 7.84854 12.2654C7.67804 12.4359 7.4468 12.5317 7.20569 12.5317ZM12.8661 17.4851C12.6249 17.4851 12.3937 17.3893 12.2232 17.2188C12.0527 17.0483 11.9569 16.8171 11.9569 16.576C11.9569 16.3348 12.0527 16.1036 12.2232 15.9331C12.3937 15.7626 12.6249 15.6668 12.8661 15.6668C13.1072 15.6668 13.3384 15.7626 13.5089 15.9331C13.6794 16.1036 13.7752 16.3348 13.7752 16.576C13.7752 16.8171 13.6794 17.0483 13.5089 17.2188C13.3384 17.3893 13.1072 17.4851 12.8661 17.4851ZM12.8661 12.5317C12.7467 12.5317 12.6285 12.5082 12.5182 12.4625C12.4079 12.4168 12.3076 12.3498 12.2232 12.2654C12.1388 12.181 12.0718 12.0808 12.0261 11.9705C11.9805 11.8602 11.9569 11.742 11.9569 11.6226C11.9569 11.5032 11.9805 11.385 12.0261 11.2747C12.0718 11.1644 12.1388 11.0641 12.2232 10.9797C12.3076 10.8953 12.4079 10.8283 12.5182 10.7827C12.6285 10.737 12.7467 10.7135 12.8661 10.7135C13.1072 10.7135 13.3384 10.8092 13.5089 10.9797C13.6794 11.1502 13.7752 11.3815 13.7752 11.6226C13.7752 11.8637 13.6794 12.0949 13.5089 12.2654C13.3384 12.4359 13.1072 12.5317 12.8661 12.5317Z" fill="white" fill-opacity="0.82"/>
</svg>
