<svg width="29" height="28" viewBox="0 0 29 28" fill="none" xmlns="http://www.w3.org/2000/svg">
<g id="icon" clip-path="url(#clip0_2353_3690)">
<g id="Group">
<g id="Mask group">
<mask id="mask0_2353_3690" style="mask-type:luminance" maskUnits="userSpaceOnUse" x="0" y="0" width="29" height="28">
<g id="Group_2">
<path id="Vector" d="M28.123 0H0.123047V28H28.123V0Z" fill="white"/>
<path id="Vector_2" d="M10.9699 16.1312C12.6662 15.126 13.5933 14.0917 13.6242 12.3526C13.6242 10.9918 12.5171 9.88479 11.1564 9.88479C9.79568 9.88479 8.68864 10.9918 8.68864 12.3526V13.1728H10.3293V12.3526C10.3293 11.8965 10.7003 11.5254 11.1564 11.5254C11.6125 11.5254 11.9836 11.8965 11.9836 12.3526C11.9811 13.712 10.9388 14.213 10.0926 14.7447C9.21172 15.2983 8.68848 16.2544 8.68848 17.2949V18.1152H13.624V16.4746H10.599C10.6986 16.3406 10.8208 16.2195 10.9699 16.1312Z" fill="white"/>
<path id="Vector_3" d="M20.2751 13.6173H19.448V11.2519H17.8074V13.6173H16.3501L17.1188 10.0737L15.5155 9.72588L14.3154 15.2579H17.8074V18.1133H19.448V15.2579H20.2751V13.6173Z" fill="white"/>
<path id="Vector_4" d="M28.1232 14C28.1232 21.7317 21.855 28 14.1233 28C10.2574 28 6.75745 26.4332 4.22378 23.8995L2.99988 25.1234L2.44098 24.9134L2.08496 19.6361L2.43441 19.2867L7.71174 19.6421C7.81073 19.9063 7.82276 19.938 7.92174 20.2016L6.69893 21.4244C8.59877 23.3248 11.2238 24.5 14.1233 24.5C19.9223 24.5 24.6233 19.7991 24.6233 14H28.1232Z" fill="white"/>
<path id="Vector_5" d="M26.1608 8.36502L25.8113 8.71447L20.534 8.35845C20.435 8.09486 20.423 8.06314 20.324 7.799L21.5474 6.57565V6.5751C19.6475 4.67526 17.0225 3.50003 14.123 3.50003C8.32396 3.50003 3.62304 8.20095 3.62304 14H0.123047C0.123047 6.2683 6.39131 4.1008e-05 14.123 4.1008e-05C17.9889 4.1008e-05 21.4888 1.56683 24.0225 4.1005L25.2453 2.87769C25.5095 2.97667 25.5412 2.98816 25.8048 3.08769L26.1608 8.36502Z" fill="white"/>
</g>
</mask>
<g mask="url(#mask0_2353_3690)">
<g id="Group_3">
<g id="Clip path group">
<mask id="mask1_2353_3690" style="mask-type:luminance" maskUnits="userSpaceOnUse" x="0" y="0" width="29" height="28">
<g id="b">
<path id="Vector_6" d="M0.123047 8.2016e-05H28.123V28H0.123047V8.2016e-05Z" fill="white"/>
</g>
</mask>
<g mask="url(#mask1_2353_3690)">
<g id="Group_4">
<path id="Vector_7" d="M10.9699 16.1312C12.6662 15.126 13.5933 14.0917 13.6242 12.3526C13.6242 10.9918 12.5171 9.88479 11.1564 9.88479C9.79568 9.88479 8.68864 10.9918 8.68864 12.3526V13.1728H10.3293V12.3526C10.3293 11.8965 10.7003 11.5254 11.1564 11.5254C11.6125 11.5254 11.9836 11.8965 11.9836 12.3526C11.9811 13.712 10.9388 14.213 10.0926 14.7447C9.21172 15.2983 8.68848 16.2544 8.68848 17.2949V18.1152H13.624V16.4746H10.599C10.6986 16.3406 10.8208 16.2195 10.9699 16.1312Z" fill="white" fill-opacity="0.82"/>
<path id="Vector_8" d="M20.2751 13.6173H19.448V11.2519H17.8074V13.6173H16.3501L17.1188 10.0737L15.5155 9.72588L14.3154 15.2579H17.8074V18.1133H19.448V15.2579H20.2751V13.6173Z" fill="white" fill-opacity="0.82"/>
<path id="Vector_9" d="M28.1232 14C28.1232 21.7317 21.855 28 14.1233 28C10.2574 28 6.75745 26.4332 4.22378 23.8995L2.99988 25.1234L2.44098 24.9134L2.08496 19.6361L2.43441 19.2867L7.71174 19.6421C7.81073 19.9063 7.82276 19.938 7.92174 20.2016L6.69893 21.4244C8.59877 23.3248 11.2238 24.5 14.1233 24.5C19.9223 24.5 24.6233 19.7991 24.6233 14H28.1232Z" fill="white" fill-opacity="0.82"/>
<path id="Vector_10" d="M26.1608 8.36502L25.8113 8.71447L20.534 8.35845C20.435 8.09486 20.423 8.06314 20.324 7.799L21.5474 6.57565V6.5751C19.6475 4.67526 17.0225 3.50003 14.123 3.50003C8.32396 3.50003 3.62304 8.20095 3.62304 14H0.123047C0.123047 6.2683 6.39131 4.1008e-05 14.123 4.1008e-05C17.9889 4.1008e-05 21.4888 1.56683 24.0225 4.1005L25.2453 2.87769C25.5095 2.97667 25.5412 2.98816 25.8048 3.08769L26.1608 8.36502Z" fill="white" fill-opacity="0.82"/>
</g>
</g>
</g>
</g>
</g>
</g>
</g>
</g>
<defs>
<clipPath id="clip0_2353_3690">
<rect width="28" height="28" fill="white" transform="translate(0.123047)"/>
</clipPath>
</defs>
</svg>
