<svg width="28" height="28" viewBox="0 0 28 28" fill="none" xmlns="http://www.w3.org/2000/svg">
<g clip-path="url(#clip0_2353_3888)">
<mask id="mask0_2353_3888" style="mask-type:luminance" maskUnits="userSpaceOnUse" x="0" y="0" width="28" height="28">
<path d="M28 0H0V28H28V0Z" fill="white"/>
<path d="M10.8468 16.1312C12.5432 15.126 13.4703 14.0917 13.5011 12.3526C13.5011 10.9918 12.3941 9.88479 11.0334 9.88479C9.67263 9.88479 8.56559 10.9918 8.56559 12.3526V13.1728H10.2062V12.3526C10.2062 11.8965 10.5773 11.5254 11.0334 11.5254C11.4895 11.5254 11.8605 11.8965 11.8605 12.3526C11.858 13.712 10.8158 14.213 9.96958 14.7447C9.08868 15.2983 8.56543 16.2544 8.56543 17.2949V18.1152H13.501V16.4746H10.476C10.5755 16.3406 10.6977 16.2195 10.8468 16.1312Z" fill="white"/>
<path d="M20.1521 13.6173H19.325V11.2519H17.6843V13.6173H16.2271L16.9958 10.0737L15.3924 9.72588L14.1924 15.2579H17.6843V18.1133H19.325V15.2579H20.1521V13.6173Z" fill="white"/>
<path d="M28.0002 14C28.0002 21.7317 21.7319 28 14.0002 28C10.1344 28 6.6344 26.4332 4.10074 23.8995L2.87683 25.1234L2.31793 24.9134L1.96191 19.6361L2.31137 19.2867L7.5887 19.6421C7.68768 19.9063 7.69971 19.938 7.79869 20.2016L6.57588 21.4244C8.47572 23.3248 11.1007 24.5 14.0002 24.5C19.7993 24.5 24.5002 19.7991 24.5002 14H28.0002Z" fill="white"/>
<path d="M26.0377 8.36502L25.6883 8.71447L20.411 8.35845C20.312 8.09486 20.2999 8.06314 20.201 7.799L21.4243 6.57565V6.5751C19.5244 4.67526 16.8994 3.50003 14 3.50003C8.20091 3.50003 3.49999 8.20095 3.49999 14H0C0 6.2683 6.26826 4.1008e-05 14 4.1008e-05C17.8658 4.1008e-05 21.3658 1.56683 23.8994 4.1005L25.1223 2.87769C25.3864 2.97667 25.4181 2.98816 25.6817 3.08769L26.0377 8.36502Z" fill="white"/>
</mask>
<g mask="url(#mask0_2353_3888)">
<mask id="mask1_2353_3888" style="mask-type:luminance" maskUnits="userSpaceOnUse" x="0" y="0" width="28" height="28">
<path d="M0 8.2016e-05H27.9999V28H0V8.2016e-05Z" fill="white"/>
</mask>
<g mask="url(#mask1_2353_3888)">
<path d="M10.8468 16.1312C12.5432 15.126 13.4703 14.0917 13.5011 12.3526C13.5011 10.9918 12.3941 9.88479 11.0334 9.88479C9.67263 9.88479 8.56559 10.9918 8.56559 12.3526V13.1728H10.2062V12.3526C10.2062 11.8965 10.5773 11.5254 11.0334 11.5254C11.4895 11.5254 11.8605 11.8965 11.8605 12.3526C11.858 13.712 10.8158 14.213 9.96958 14.7447C9.08868 15.2983 8.56543 16.2544 8.56543 17.2949V18.1152H13.501V16.4746H10.476C10.5755 16.3406 10.6977 16.2195 10.8468 16.1312Z" fill="#0167FF"/>
<path d="M20.1521 13.6173H19.325V11.2519H17.6843V13.6173H16.2271L16.9958 10.0737L15.3924 9.72588L14.1924 15.2579H17.6843V18.1133H19.325V15.2579H20.1521V13.6173Z" fill="#0167FF"/>
<path d="M27.9997 14C27.9997 21.7317 21.7314 28 13.9997 28C10.1339 28 6.63391 26.4332 4.10025 23.8995L2.87635 25.1234L2.31744 24.9134L1.96143 19.6361L2.31088 19.2867L7.58821 19.6421C7.68719 19.9063 7.69922 19.938 7.79821 20.2016L6.5754 21.4244C8.47523 23.3248 11.1002 24.5 13.9997 24.5C19.7988 24.5 24.4997 19.7991 24.4997 14H27.9997Z" fill="#0167FF"/>
<path d="M26.0377 8.36502L25.6883 8.71447L20.411 8.35845C20.312 8.09486 20.2999 8.06314 20.201 7.799L21.4243 6.57565V6.5751C19.5244 4.67526 16.8994 3.50003 14 3.50003C8.20091 3.50003 3.49999 8.20095 3.49999 14H0C0 6.2683 6.26826 4.1008e-05 14 4.1008e-05C17.8658 4.1008e-05 21.3658 1.56683 23.8994 4.1005L25.1223 2.87769C25.3864 2.97667 25.4181 2.98816 25.6817 3.08769L26.0377 8.36502Z" fill="#0167FF"/>
</g>
</g>
</g>
<defs>
<clipPath id="clip0_2353_3888">
<rect width="28" height="28" fill="white"/>
</clipPath>
</defs>
</svg>
