<svg width="29" height="28" viewBox="0 0 29 28" fill="none" xmlns="http://www.w3.org/2000/svg">
<g clip-path="url(#clip0_6273_7942)">
<path d="M21.0585 12.0814H26.2006V21.1621H21.0585V12.0814ZM12.306 12.0814H17.4481V21.1621H12.306V12.0814ZM27.1852 22.8032H2.56883C1.66393 22.8032 0.927734 23.5394 0.927734 24.4443V26.3589C0.927734 27.2638 1.66393 28 2.56883 28H27.1852C28.0901 28 28.8263 27.2638 28.8263 26.3589V24.4443C28.8263 23.5394 28.0901 22.8032 27.1852 22.8032ZM27.7979 5.1519L15.4866 0.117954C15.0965 -0.0381142 14.6629 -0.0412869 14.2617 0.120251L1.95615 5.1519C1.33128 5.40331 0.927734 6.00056 0.927734 6.67434V8.79928C0.927734 9.70418 1.66393 10.4404 2.56883 10.4404H27.1852C28.0901 10.4404 28.8263 9.70418 28.8263 8.79928V6.67434C28.8263 6.00056 28.4228 5.40331 27.7979 5.1519ZM15.6976 6.11877C15.6976 6.57193 15.3302 6.93932 14.877 6.93932C14.4239 6.93932 14.0565 6.57193 14.0565 6.11877V4.36827C14.0565 3.91511 14.4239 3.54773 14.877 3.54773C15.3302 3.54773 15.6976 3.91511 15.6976 4.36827V6.11877ZM3.55348 12.0814H8.69557V21.1621H3.55348V12.0814Z" fill="#D4E5FF"/>
</g>
<defs>
<clipPath id="clip0_6273_7942">
<rect width="28" height="28" fill="white" transform="translate(0.876953)"/>
</clipPath>
</defs>
</svg>
