<svg width="29" height="29" viewBox="0 0 29 29" fill="none" xmlns="http://www.w3.org/2000/svg">
<g clip-path="url(#clip0_3584_6614)">
<path d="M20.7098 12.2562H25.8519V21.3369H20.7098V12.2562ZM11.9573 12.2562H17.0994V21.3369H11.9573V12.2562ZM26.8366 22.978H2.22019C1.3153 22.978 0.579102 23.7142 0.579102 24.6191V26.5337C0.579102 27.4386 1.3153 28.1748 2.22019 28.1748H26.8366C27.7415 28.1748 28.4777 27.4386 28.4777 26.5337V24.6191C28.4777 23.7142 27.7415 22.978 26.8366 22.978ZM27.4493 5.3267L15.1379 0.292758C14.7479 0.136691 14.3143 0.133518 13.9131 0.295056L1.60752 5.3267C0.982646 5.57812 0.579102 6.17537 0.579102 6.84914V8.97409C0.579102 9.87898 1.3153 10.6152 2.22019 10.6152H26.8366C27.7415 10.6152 28.4777 9.87898 28.4777 8.97409V6.84914C28.4777 6.17537 28.0741 5.57812 27.4493 5.3267ZM15.3489 6.29358C15.3489 6.74674 14.9816 7.11413 14.5284 7.11413C14.0752 7.11413 13.7078 6.74674 13.7078 6.29358V4.54308C13.7078 4.08992 14.0752 3.72253 14.5284 3.72253C14.9816 3.72253 15.3489 4.08992 15.3489 4.54308V6.29358ZM3.20485 12.2562H8.34694V21.3369H3.20485V12.2562Z" fill="#0167FF"/>
</g>
<defs>
<clipPath id="clip0_3584_6614">
<rect width="28" height="28" fill="white" transform="translate(0.52832 0.174805)"/>
</clipPath>
</defs>
</svg>
