<svg width="28" height="28" viewBox="0 0 28 28" fill="none" xmlns="http://www.w3.org/2000/svg">
<g id="icon w" clip-path="url(#clip0_2353_3919)">
<g id="Group">
<path id="Vector" d="M10.7916 0H2.04159C0.915797 0 0 0.915797 0 2.04159V7.29159C0 8.41761 0.915797 9.33341 2.04159 9.33341H10.7916C11.9176 9.33341 12.8334 8.41761 12.8334 7.29159V2.04159C12.8334 0.915797 11.9176 0 10.7916 0ZM10.7916 11.6666H2.04159C0.915797 11.6666 0 12.5824 0 13.7084V25.9584C0 27.0842 0.915797 28 2.04159 28H10.7916C11.9176 28 12.8334 27.0842 12.8334 25.9584V13.7084C12.8334 12.5824 11.9176 11.6666 10.7916 11.6666ZM25.9584 18.6666H17.2084C16.0824 18.6666 15.1666 19.5824 15.1666 20.7084V25.9584C15.1666 27.0842 16.0824 28 17.2084 28H25.9584C27.0842 28 28 27.0842 28 25.9584V20.7084C28 19.5824 27.0842 18.6666 25.9584 18.6666ZM25.9584 0H17.2084C16.0824 0 15.1666 0.915797 15.1666 2.04159V14.2916C15.1666 15.4176 16.0824 16.3334 17.2084 16.3334H25.9584C27.0842 16.3334 28 15.4176 28 14.2916V2.04159C28 0.915797 27.0842 0 25.9584 0Z" fill="#D4E5FF"/>
</g>
</g>
<defs>
<clipPath id="clip0_2353_3919">
<rect width="28" height="28" fill="white"/>
</clipPath>
</defs>
</svg>
