<svg width="29" height="28" viewBox="0 0 29 28" fill="none" xmlns="http://www.w3.org/2000/svg">
<g clip-path="url(#clip0_2353_3676)">
<path d="M10.9146 0H2.16464C1.03884 0 0.123047 0.915797 0.123047 2.04159V7.29159C0.123047 8.41761 1.03884 9.33341 2.16464 9.33341H10.9146C12.0407 9.33341 12.9565 8.41761 12.9565 7.29159V2.04159C12.9565 0.915797 12.0407 0 10.9146 0ZM10.9146 11.6666H2.16464C1.03884 11.6666 0.123047 12.5824 0.123047 13.7084V25.9584C0.123047 27.0842 1.03884 28 2.16464 28H10.9146C12.0407 28 12.9565 27.0842 12.9565 25.9584V13.7084C12.9565 12.5824 12.0407 11.6666 10.9146 11.6666ZM26.0815 18.6666H17.3315C16.2054 18.6666 15.2896 19.5824 15.2896 20.7084V25.9584C15.2896 27.0842 16.2054 28 17.3315 28H26.0815C27.2073 28 28.123 27.0842 28.123 25.9584V20.7084C28.123 19.5824 27.2073 18.6666 26.0815 18.6666ZM26.0815 0H17.3315C16.2054 0 15.2896 0.915797 15.2896 2.04159V14.2916C15.2896 15.4176 16.2054 16.3334 17.3315 16.3334H26.0815C27.2073 16.3334 28.123 15.4176 28.123 14.2916V2.04159C28.123 0.915797 27.2073 0 26.0815 0Z" fill="#0167FF"/>
</g>
<defs>
<clipPath id="clip0_2353_3676">
<rect width="28" height="28" fill="white" transform="translate(0.123047)"/>
</clipPath>
</defs>
</svg>
