<svg width="28" height="29" viewBox="0 0 28 29" fill="none" xmlns="http://www.w3.org/2000/svg">
<path d="M8.96196 27.4252C9.35032 27.4252 9.74791 27.4229 10.1542 27.4229H17.845C18.2507 27.4229 18.6483 27.4252 19.0366 27.4252C22.5952 27.4252 25.3142 27.2432 25.3142 23.5231C25.3142 19.6294 22.3364 16.4329 18.5335 16.0854C18.5032 17.4476 14.0008 20.8093 14.0008 20.8093C14.0008 20.8093 9.49732 17.4479 9.4668 16.0857C5.6644 16.4329 2.68604 19.6294 2.68604 23.5231C2.68604 27.2432 5.404 27.4252 8.96196 27.4252ZM17.36 22.3451C17.36 22.2343 17.46 22.1449 17.5843 22.1449H18.8006V20.9292C18.8006 20.806 18.8894 20.7049 19.0002 20.7049H20.2006C20.3109 20.7049 20.4002 20.8051 20.4002 20.9292V22.1452H21.616C21.7392 22.1452 21.84 22.2345 21.84 22.3454V23.5452C21.84 23.6561 21.74 23.7454 21.616 23.7454H20.4V24.9612C20.4 25.0849 20.3104 25.1852 20.1998 25.1852H19C18.8891 25.1852 18.7998 25.0852 18.7998 24.9612V23.7451H17.584C17.4602 23.7451 17.3597 23.6558 17.3597 23.5449L17.36 22.3451Z" fill="#0167FF"/>
<path d="M14.0023 17.0629C17.4418 17.0629 20.2298 11.891 20.2298 8.45174C20.2298 5.01306 17.4418 2.2251 14.0023 2.2251C10.5634 2.2251 7.77539 5.01306 7.77539 8.45174C7.77539 11.891 10.5634 17.0629 14.0023 17.0629Z" fill="#0167FF"/>
</svg>
