<svg width="24" height="26" viewBox="0 0 24 26" fill="none" xmlns="http://www.w3.org/2000/svg">
<path d="M7.085 25.4252C7.47336 25.4252 7.87096 25.4229 8.27724 25.4229H15.968C16.3737 25.4229 16.7713 25.4252 17.1597 25.4252C20.7182 25.4252 23.4373 25.2432 23.4373 21.5231C23.4373 17.6294 20.4595 14.4329 16.6565 14.0854C16.6263 15.4476 12.1239 18.8093 12.1239 18.8093C12.1239 18.8093 7.62036 15.4479 7.58984 14.0857C3.78744 14.4329 0.809082 17.6294 0.809082 21.5231C0.809082 25.2432 3.52704 25.4252 7.085 25.4252ZM15.483 20.3451C15.483 20.2343 15.583 20.1449 15.7073 20.1449H16.9236V18.9292C16.9236 18.806 17.0124 18.7049 17.1233 18.7049H18.3236C18.434 18.7049 18.5233 18.8051 18.5233 18.9292V20.1452H19.739C19.8622 20.1452 19.963 20.2345 19.963 20.3454V21.5452C19.963 21.6561 19.8631 21.7454 19.739 21.7454H18.523V22.9612C18.523 23.0849 18.4334 23.1852 18.3228 23.1852H17.123C17.0121 23.1852 16.9228 23.0852 16.9228 22.9612V21.7451H15.707C15.5833 21.7451 15.4828 21.6558 15.4828 21.5449L15.483 20.3451Z" fill="white" fill-opacity="0.82"/>
<path d="M12.1254 15.0629C15.5649 15.0629 18.3528 9.89098 18.3528 6.45174C18.3528 3.01306 15.5649 0.225098 12.1254 0.225098C8.6864 0.225098 5.89844 3.01306 5.89844 6.45174C5.89844 9.89098 8.6864 15.0629 12.1254 15.0629Z" fill="white" fill-opacity="0.82"/>
</svg>
