<svg width="29" height="29" viewBox="0 0 29 29" fill="none" xmlns="http://www.w3.org/2000/svg">
<g clip-path="url(#clip0_3785_4552)">
<path d="M17.8027 8.42335C17.4933 8.42335 17.1966 8.30059 16.9778 8.08208C16.759 7.86358 16.6361 7.56722 16.6361 7.2582V5.51047H11.9694V7.2582C11.9694 7.56722 11.8465 7.86358 11.6277 8.08208C11.4089 8.30059 11.1122 8.42335 10.8027 8.42335C10.4933 8.42335 10.1966 8.30059 9.97778 8.08208C9.75898 7.86358 9.63607 7.56722 9.63607 7.2582V5.51047C9.63607 4.22531 10.6826 3.18018 11.9694 3.18018H16.6361C17.9229 3.18018 18.9694 4.22531 18.9694 5.51047V7.2582C18.9694 7.56722 18.8465 7.86358 18.6277 8.08208C18.4089 8.30059 18.1122 8.42335 17.8027 8.42335ZM15.1311 18.7699C14.5702 18.9624 13.9598 18.9541 13.4044 18.7466L0.302734 14.3889V23.279C0.302734 25.05 1.73773 26.4832 3.51107 26.4832H25.0944C26.8677 26.4832 28.3027 25.05 28.3027 23.279V14.3889L15.1311 18.7699Z" fill="#0167FF"/>
<path d="M28.3027 9.87994V12.5481L14.5827 17.1155C14.4894 17.1505 14.3961 17.1621 14.3027 17.1621C14.2094 17.1621 14.1161 17.1505 14.0227 17.1155L0.302734 12.5481V9.87994C0.302734 8.10892 1.73773 6.67578 3.51107 6.67578H25.0944C26.8677 6.67578 28.3027 8.10892 28.3027 9.87994Z" fill="#0167FF"/>
</g>
<defs>
<clipPath id="clip0_3785_4552">
<rect width="28" height="28" fill="white" transform="translate(0.302734 0.831543)"/>
</clipPath>
</defs>
</svg>
