<svg width="29" height="29" viewBox="0 0 29 29" fill="none" xmlns="http://www.w3.org/2000/svg">
<g clip-path="url(#clip0_6273_7949)">
<path d="M18.1523 7.68311C17.8429 7.68311 17.5462 7.56036 17.3274 7.34185C17.1086 7.12334 16.9857 6.82698 16.9857 6.51796V4.77024H12.319V6.51796C12.319 6.82698 12.1961 7.12334 11.9773 7.34185C11.7585 7.56036 11.4618 7.68311 11.1523 7.68311C10.8429 7.68311 10.5462 7.56036 10.3274 7.34185C10.1086 7.12334 9.98568 6.82698 9.98568 6.51796V4.77024C9.98568 3.48508 11.0322 2.43994 12.319 2.43994H16.9857C18.2725 2.43994 19.319 3.48508 19.319 4.77024V6.51796C19.319 6.82698 19.1961 7.12334 18.9773 7.34185C18.7585 7.56036 18.4618 7.68311 18.1523 7.68311ZM15.4807 18.0296C14.9198 18.2221 14.3094 18.2139 13.754 18.0063L0.652344 13.6487V22.5388C0.652344 24.3098 2.08734 25.7429 3.86068 25.7429H25.444C27.2173 25.7429 28.6523 24.3098 28.6523 22.5388V13.6487L15.4807 18.0296Z" fill="#D4E5FF"/>
<path d="M28.6523 9.13971V11.8079L14.9323 16.3753C14.839 16.4102 14.7457 16.4219 14.6523 16.4219C14.559 16.4219 14.4657 16.4102 14.3723 16.3753L0.652344 11.8079V9.13971C0.652344 7.36868 2.08734 5.93555 3.86068 5.93555H25.444C27.2173 5.93555 28.6523 7.36868 28.6523 9.13971Z" fill="#D4E5FF"/>
</g>
<defs>
<clipPath id="clip0_6273_7949">
<rect width="28" height="28" fill="white" transform="translate(0.652344 0.0913086)"/>
</clipPath>
</defs>
</svg>
