<svg width="28" height="29" viewBox="0 0 28 29" fill="none" xmlns="http://www.w3.org/2000/svg">
<g clip-path="url(#clip0_2353_3875)">
<path d="M16.9167 28.6502C16.7246 28.6502 16.5356 28.6028 16.3663 28.5123C16.1969 28.4217 16.0526 28.2908 15.946 28.131L13.9592 25.1502H11.6667C11.3572 25.1502 11.0605 25.0273 10.8417 24.8085C10.6229 24.5897 10.5 24.2929 10.5 23.9835C10.5 23.6741 10.6229 23.3774 10.8417 23.1586C11.0605 22.9398 11.3572 22.8169 11.6667 22.8169H14.5833C14.973 22.8169 15.337 23.0117 15.554 23.336L16.772 25.163L19.3725 19.9609C19.4662 19.7741 19.6082 19.6159 19.7839 19.5027C19.9595 19.3896 20.1623 19.3256 20.3711 19.3175C20.5798 19.3094 20.787 19.3575 20.9708 19.4567C21.1547 19.5559 21.3086 19.7026 21.4165 19.8815L24.577 25.1502H26.8333C27.1428 25.1502 27.4395 25.2731 27.6583 25.4919C27.8771 25.7107 28 26.0074 28 26.3169C28 26.6263 27.8771 26.923 27.6583 27.1418C27.4395 27.3606 27.1428 27.4835 26.8333 27.4835H23.9167C23.7153 27.4836 23.5174 27.4315 23.3422 27.3324C23.167 27.2332 23.0204 27.0903 22.9168 26.9177L20.51 22.9067L17.9608 28.0062C17.7742 28.3784 17.4043 28.6234 16.989 28.649L16.9167 28.6502Z" fill="#0167FF"/>
<path d="M10.5003 12.3168C13.722 12.3168 16.3337 9.70514 16.3337 6.48348C16.3337 3.26182 13.722 0.650146 10.5003 0.650146C7.27866 0.650146 4.66699 3.26182 4.66699 6.48348C4.66699 9.70514 7.27866 12.3168 10.5003 12.3168Z" fill="#0167FF"/>
<path d="M8.16667 23.9835C8.16667 22.0538 9.737 20.4835 11.6667 20.4835H14.5833C15.1888 20.4835 15.7722 20.6386 16.2843 20.9233L17.2865 18.9178C17.7963 17.9016 18.767 17.2355 19.8695 17.0581C19.3315 16.3139 18.6248 15.7077 17.8074 15.2892C16.99 14.8706 16.085 14.6516 15.1667 14.6501H5.83333C4.28624 14.6501 2.80251 15.2647 1.70854 16.3587C0.614582 17.4527 0 18.9364 0 20.4835L0 24.2751C0 24.7581 0.392 25.1501 0.875 25.1501H8.38133C8.24316 24.7765 8.17053 24.3818 8.16667 23.9835Z" fill="#0167FF"/>
</g>
<defs>
<clipPath id="clip0_2353_3875">
<rect width="28" height="28" fill="white" transform="translate(0 0.650146)"/>
</clipPath>
</defs>
</svg>
