<svg width="29" height="29" viewBox="0 0 29 29" fill="none" xmlns="http://www.w3.org/2000/svg">
<g id="icon" clip-path="url(#clip0_2353_3658)">
<g id="Group">
<path id="Vector" d="M17.0397 28.6502C16.8477 28.6502 16.6586 28.6028 16.4893 28.5123C16.32 28.4217 16.1756 28.2908 16.069 28.131L14.0822 25.1502H11.7897C11.4803 25.1502 11.1835 25.0273 10.9648 24.8085C10.746 24.5897 10.623 24.2929 10.623 23.9835C10.623 23.6741 10.746 23.3774 10.9648 23.1586C11.1835 22.9398 11.4803 22.8169 11.7897 22.8169H14.7064C15.096 22.8169 15.46 23.0117 15.677 23.336L16.895 25.163L19.4955 19.9609C19.5892 19.7741 19.7313 19.6159 19.9069 19.5027C20.0826 19.3896 20.2853 19.3256 20.4941 19.3175C20.7029 19.3094 20.91 19.3575 21.0939 19.4567C21.2778 19.5559 21.4317 19.7026 21.5395 19.8815L24.7 25.1502H26.9564C27.2658 25.1502 27.5625 25.2731 27.7813 25.4919C28.0001 25.7107 28.123 26.0074 28.123 26.3169C28.123 26.6263 28.0001 26.923 27.7813 27.1418C27.5625 27.3606 27.2658 27.4835 26.9564 27.4835H24.0397C23.8384 27.4836 23.6405 27.4315 23.4652 27.3324C23.29 27.2332 23.1435 27.0903 23.0399 26.9177L20.633 22.9067L18.0839 28.0062C17.8972 28.3784 17.5274 28.6234 17.112 28.649L17.0397 28.6502Z" fill="#D4E5FF"/>
<path id="Vector_2" d="M10.6234 12.3168C13.845 12.3168 16.4567 9.70514 16.4567 6.48348C16.4567 3.26182 13.845 0.650146 10.6234 0.650146C7.40171 0.650146 4.79004 3.26182 4.79004 6.48348C4.79004 9.70514 7.40171 12.3168 10.6234 12.3168Z" fill="#D4E5FF"/>
<path id="Vector_3" d="M8.28971 23.9835C8.28971 22.0538 9.86005 20.4835 11.7897 20.4835H14.7064C15.3119 20.4835 15.8952 20.6386 16.4074 20.9233L17.4095 18.9178C17.9194 17.9016 18.89 17.2355 19.9925 17.0581C19.4545 16.3139 18.7478 15.7077 17.9304 15.2892C17.113 14.8706 16.2081 14.6516 15.2897 14.6501H5.95638C4.40928 14.6501 2.92555 15.2647 1.83159 16.3587C0.737628 17.4527 0.123047 18.9364 0.123047 20.4835L0.123047 24.2751C0.123047 24.7581 0.515047 25.1501 0.998047 25.1501H8.50438C8.3662 24.7765 8.29358 24.3818 8.28971 23.9835Z" fill="#D4E5FF"/>
</g>
</g>
<defs>
<clipPath id="clip0_2353_3658">
<rect width="28" height="28" fill="white" transform="translate(0.123047 0.650146)"/>
</clipPath>
</defs>
</svg>
