<svg width="29" height="29" viewBox="0 0 29 29" fill="none" xmlns="http://www.w3.org/2000/svg">
<g clip-path="url(#clip0_6312_2995)">
<path d="M26.2526 23.102H21.7981C18.9911 23.102 16.7073 20.8182 16.7073 18.0112C16.7073 15.2042 18.9911 12.9204 21.7981 12.9204H26.2526C26.3362 12.9204 26.419 12.904 26.4962 12.8721C26.5735 12.8401 26.6436 12.7932 26.7027 12.7341C26.7618 12.675 26.8087 12.6048 26.8407 12.5276C26.8726 12.4504 26.8891 12.3676 26.889 12.284V10.375C26.889 9.04052 25.8539 7.95528 24.5462 7.85005L20.8915 1.46663C20.5528 0.876251 20.0059 0.454289 19.3516 0.279073C18.7003 0.10505 18.0192 0.196447 17.4363 0.535722L4.90791 7.82952H2.70754C1.30373 7.82952 0.162109 8.97108 0.162109 10.375V25.6474C0.162109 27.0512 1.30367 28.1929 2.70754 28.1929H24.3436C25.7474 28.1929 26.889 27.0513 26.889 25.6474V23.7384C26.8891 23.6548 26.8726 23.572 26.8407 23.4948C26.8087 23.4175 26.7618 23.3474 26.7027 23.2883C26.6436 23.2292 26.5735 23.1823 26.4962 23.1503C26.419 23.1184 26.3362 23.1019 26.2526 23.102ZM21.6807 5.40764L23.0673 7.82952H17.5208L21.6807 5.40764ZM7.43742 7.82952L18.077 1.63564C18.3647 1.46722 18.7009 1.42248 19.0222 1.50827C19.3472 1.59525 19.6182 1.80531 19.7866 2.09924L19.7879 2.10157L9.94968 7.82952H7.43742Z" fill="#D4E5FF"/>
<path d="M26.2531 14.1929H21.7986C19.6931 14.1929 17.9805 15.9055 17.9805 18.011C17.9805 20.1164 19.6931 21.8291 21.7986 21.8291H26.2531C27.3058 21.8291 28.1621 20.9728 28.1621 19.9201V16.1019C28.1621 15.0492 27.3058 14.1929 26.2531 14.1929ZM21.7986 19.2837C21.097 19.2837 20.5259 18.7126 20.5259 18.011C20.5259 17.3094 21.097 16.7383 21.7986 16.7383C22.5002 16.7383 23.0713 17.3094 23.0713 18.011C23.0713 18.7126 22.5002 19.2837 21.7986 19.2837Z" fill="#D4E5FF"/>
</g>
<defs>
<clipPath id="clip0_6312_2995">
<rect width="28" height="28" fill="white" transform="translate(0.162109 0.192871)"/>
</clipPath>
</defs>
</svg>
