<svg width="29" height="29" viewBox="0 0 29 29" fill="none" xmlns="http://www.w3.org/2000/svg">
<g clip-path="url(#clip0_6273_7958)">
<path d="M26.7429 23.4199H22.2884C19.4813 23.4199 17.1976 21.1361 17.1976 18.3291C17.1976 15.522 19.4813 13.2383 22.2884 13.2383H26.7429C26.8265 13.2383 26.9092 13.2219 26.9865 13.1899C27.0637 13.158 27.1339 13.1111 27.193 13.052C27.2521 12.9929 27.2989 12.9227 27.3309 12.8455C27.3629 12.7682 27.3793 12.6855 27.3792 12.6019V10.6928C27.3792 9.35839 26.3442 8.27315 25.0364 8.16792L21.3817 1.7845C21.0431 1.19412 20.4962 0.77216 19.8418 0.596944C19.1905 0.422922 18.5094 0.514318 17.9265 0.853593L5.39815 8.14739H3.19778C1.79396 8.14739 0.652344 9.28895 0.652344 10.6928V25.9653C0.652344 27.3691 1.7939 28.5107 3.19778 28.5107H24.8338C26.2376 28.5107 27.3792 27.3692 27.3792 25.9653V24.0562C27.3793 23.9727 27.3629 23.8899 27.3309 23.8126C27.2989 23.7354 27.2521 23.6652 27.193 23.6061C27.1339 23.547 27.0637 23.5002 26.9865 23.4682C26.9092 23.4362 26.8265 23.4198 26.7429 23.4199ZM22.171 5.72551L23.5575 8.14739H18.0111L22.171 5.72551ZM7.92765 8.14739L18.5672 1.95351C18.8549 1.7851 19.1911 1.74035 19.5124 1.82614C19.8374 1.91312 20.1084 2.12318 20.2768 2.41711L20.2781 2.41944L10.4399 8.14739H7.92765Z" fill="#0167FF"/>
<path d="M26.7433 14.5107H22.2888C20.1834 14.5107 18.4707 16.2234 18.4707 18.3289C18.4707 20.4343 20.1834 22.147 22.2888 22.147H26.7433C27.796 22.147 28.6524 21.2906 28.6524 20.2379V16.4198C28.6524 15.3671 27.796 14.5107 26.7433 14.5107ZM22.2888 19.6015C21.5872 19.6015 21.0161 19.0304 21.0161 18.3289C21.0161 17.6273 21.5872 17.0562 22.2888 17.0562C22.9904 17.0562 23.5615 17.6273 23.5615 18.3289C23.5616 19.0304 22.9905 19.6015 22.2888 19.6015Z" fill="#0167FF"/>
</g>
<defs>
<clipPath id="clip0_6273_7958">
<rect width="28" height="28" fill="white" transform="translate(0.652344 0.510742)"/>
</clipPath>
</defs>
</svg>
