<svg width="29" height="29" viewBox="0 0 29 29" fill="none" xmlns="http://www.w3.org/2000/svg">
<path d="M8.43766 12.3928C8.51084 11.6042 8.74142 10.8382 9.11579 10.1402C9.03966 10.0597 8.93575 10.0114 8.82521 10.0049C8.71467 9.99835 8.60581 10.0342 8.52078 10.1052C7.9197 10.5918 7.16956 10.857 6.39617 10.8562C5.62278 10.8554 4.87318 10.5887 4.2731 10.1008C4.19372 10.0346 4.09345 9.99872 3.99011 9.99952C3.88677 10.0003 3.78706 10.0378 3.70872 10.1052C2.96257 10.7445 2.47189 11.6315 2.32666 12.6033C2.58047 12.4655 2.86471 12.3933 3.15354 12.3933L8.43766 12.3928Z" fill="#0167FF"/>
<path d="M6.39432 9.98693C9.67557 9.88281 9.67951 5.11843 6.39432 5.01343C3.1087 5.11887 3.11395 9.88281 6.39432 9.98693ZM26.7214 13.8496C26.6608 13.6799 26.5492 13.5329 26.4021 13.4288C26.2549 13.3247 26.0792 13.2685 25.8989 13.2677H20.6332C20.6902 14.2067 20.5335 15.1464 20.1751 16.0162C19.8167 16.8859 19.2658 17.6631 18.5638 18.2894C14.4356 21.8799 8.10626 18.698 8.42038 13.2677H3.15332C2.92147 13.2684 2.69931 13.3608 2.53537 13.5248C2.37142 13.6887 2.27901 13.9109 2.27832 14.1427V15.1227C2.27826 15.2422 2.30176 15.3606 2.34748 15.471C2.3932 15.5814 2.46023 15.6817 2.54475 15.7662C2.62927 15.8507 2.72961 15.9177 2.84004 15.9633C2.95047 16.009 3.06882 16.0324 3.18832 16.0323H4.88976C5.17662 17.0182 5.57284 17.969 6.07101 18.8669L4.85476 20.0787C4.68835 20.2516 4.59579 20.4825 4.59669 20.7224C4.59759 20.9623 4.69188 21.1925 4.85957 21.3641L6.8677 23.3718C7.03977 23.541 7.27145 23.6358 7.51279 23.6358C7.75413 23.6358 7.9858 23.541 8.15788 23.3718L9.36101 22.1643C10.2618 22.6581 11.2135 23.0527 12.1995 23.3412V25.0431C12.1995 25.1626 12.223 25.2809 12.2687 25.3913C12.3144 25.5017 12.3814 25.602 12.4659 25.6865C12.5505 25.771 12.6508 25.838 12.7612 25.8836C12.8717 25.9293 12.99 25.9527 13.1095 25.9526H15.9441C16.0756 25.9483 16.2049 25.9167 16.3236 25.8597C16.4422 25.8027 16.5477 25.7216 16.6333 25.6216C16.7189 25.5216 16.7828 25.4048 16.8208 25.2788C16.8588 25.1527 16.8701 25.0202 16.8541 24.8895L16.8847 23.3106C17.8666 23.0545 18.8095 22.6675 19.6882 22.1599L20.9001 23.3762C21.0724 23.5439 21.3036 23.6374 21.5441 23.6366C21.7846 23.6358 22.0152 23.5407 22.1863 23.3718L24.1936 21.3637C24.3618 21.1911 24.456 20.9596 24.456 20.7186C24.456 20.4776 24.3618 20.2461 24.1936 20.0735L22.9865 18.8747C23.4807 17.9726 23.8753 17.0194 24.1634 16.0319H25.8648C25.9844 16.032 26.1027 16.0085 26.2132 15.9628C26.3237 15.9171 26.424 15.8501 26.5085 15.7656C26.5931 15.6811 26.6601 15.5807 26.7058 15.4702C26.7515 15.3598 26.7749 15.2414 26.7748 15.1219C26.7982 14.6968 26.7806 14.2705 26.7223 13.8487L26.7214 13.8496ZM13.6647 8.50862C14.1282 8.6386 14.6155 8.65994 15.0886 8.57099C15.5617 8.48203 16.0079 8.28517 16.3925 7.99571C16.7772 7.70625 17.0899 7.33199 17.3064 6.90202C17.5228 6.47204 17.6372 5.99794 17.6407 5.51656C17.4972 1.39225 11.5524 1.3975 11.4072 5.51656C11.4085 6.19255 11.6293 6.84983 12.0364 7.38946C12.4436 7.92908 13.015 8.32185 13.6647 8.50862Z" fill="#0167FF"/>
<path d="M9.32068 14.1427C10.1362 21.0465 20.0386 20.1732 19.7577 13.2677H9.29443C9.2975 13.483 9.30056 13.8898 9.32068 14.1427ZM17.4656 8.65734C17.3891 8.60654 17.2987 8.58092 17.2069 8.58406C17.1151 8.5872 17.0266 8.61894 16.9537 8.67484C16.2574 9.21138 15.403 9.50235 14.5239 9.50235C13.6448 9.50235 12.7904 9.21138 12.094 8.67484C12.0216 8.61794 11.933 8.58557 11.8409 8.58242C11.7489 8.57928 11.6582 8.60552 11.5821 8.65734C10.9569 9.07915 10.4305 9.63154 10.0394 10.2764C9.64818 10.9213 9.4015 11.6433 9.31631 12.3927H19.7402C19.6526 11.6429 19.4041 10.921 19.0115 10.2762C18.6189 9.63151 18.0915 9.07926 17.4656 8.65734ZM22.6579 9.92127C25.9417 9.81627 25.9404 5.05452 22.6579 4.95215C19.3683 5.05365 19.3687 9.81759 22.6579 9.92127Z" fill="#0167FF"/>
<path d="M20.6242 12.393H25.8992C26.1931 12.3938 26.4821 12.4691 26.7392 12.6117C26.6199 11.7174 26.2094 10.8873 25.571 10.2496C25.3729 10.0296 25.0574 9.79727 24.7835 10.0396C24.1815 10.525 23.4318 10.79 22.6585 10.7908C21.8852 10.7916 21.1349 10.5281 20.5319 10.044C20.4422 9.97062 20.3272 9.93544 20.2118 9.94608C20.0964 9.95672 19.9898 10.0123 19.915 10.1009C20.3003 10.8108 20.5412 11.5899 20.6238 12.3934L20.6242 12.393Z" fill="#0167FF"/>
</svg>
