<svg width="29" height="29" viewBox="0 0 29 29" fill="none" xmlns="http://www.w3.org/2000/svg">
<path d="M8.33512 12.3928C8.4083 11.6042 8.63888 10.8382 9.01325 10.1402C8.93712 10.0597 8.83322 10.0114 8.72268 10.0049C8.61214 9.99835 8.50327 10.0342 8.41825 10.1052C7.81716 10.5918 7.06702 10.857 6.29363 10.8562C5.52024 10.8554 4.77064 10.5887 4.17056 10.1008C4.09118 10.0346 3.99091 9.99872 3.88757 9.99952C3.78423 10.0003 3.68452 10.0378 3.60618 10.1052C2.86003 10.7445 2.36935 11.6315 2.22412 12.6033C2.47793 12.4655 2.76218 12.3933 3.051 12.3933L8.33512 12.3928Z" fill="#D4E5FF"/>
<path d="M6.29178 9.98693C9.57303 9.88281 9.57697 5.11843 6.29178 5.01343C3.00616 5.11887 3.01141 9.88281 6.29178 9.98693ZM26.6189 13.8496C26.5582 13.6799 26.4467 13.5329 26.2995 13.4288C26.1524 13.3247 25.9767 13.2685 25.7964 13.2677H20.5307C20.5876 14.2067 20.431 15.1464 20.0726 16.0162C19.7142 16.8859 19.1633 17.6631 18.4613 18.2894C14.333 21.8799 8.00372 18.698 8.31784 13.2677H3.05078C2.81893 13.2684 2.59677 13.3608 2.43283 13.5248C2.26888 13.6887 2.17647 13.9109 2.17578 14.1427V15.1227C2.17572 15.2422 2.19923 15.3606 2.24494 15.471C2.29066 15.5814 2.35769 15.6817 2.44221 15.7662C2.52673 15.8507 2.62707 15.9177 2.7375 15.9633C2.84793 16.009 2.96628 16.0324 3.08578 16.0323H4.78722C5.07409 17.0182 5.4703 17.969 5.96847 18.8669L4.75222 20.0787C4.58581 20.2516 4.49326 20.4825 4.49415 20.7224C4.49505 20.9623 4.58934 21.1925 4.75703 21.3641L6.76516 23.3718C6.93724 23.541 7.16891 23.6358 7.41025 23.6358C7.65159 23.6358 7.88326 23.541 8.05534 23.3718L9.25847 22.1643C10.1593 22.6581 11.111 23.0527 12.097 23.3412V25.0431C12.0969 25.1626 12.1204 25.2809 12.1661 25.3913C12.2118 25.5017 12.2789 25.602 12.3634 25.6865C12.4479 25.771 12.5483 25.838 12.6587 25.8836C12.7691 25.9293 12.8875 25.9527 13.007 25.9526H15.8415C15.9731 25.9483 16.1023 25.9167 16.221 25.8597C16.3397 25.8027 16.4452 25.7216 16.5308 25.6216C16.6164 25.5216 16.6802 25.4048 16.7182 25.2788C16.7562 25.1527 16.7676 25.0202 16.7515 24.8895L16.7822 23.3106C17.764 23.0545 18.707 22.6675 19.5857 22.1599L20.7975 23.3762C20.9698 23.5439 21.2011 23.6374 21.4415 23.6366C21.682 23.6358 21.9126 23.5407 22.0838 23.3718L24.091 21.3637C24.2593 21.1911 24.3535 20.9596 24.3535 20.7186C24.3535 20.4776 24.2593 20.2461 24.091 20.0735L22.884 18.8747C23.3782 17.9726 23.7728 17.0194 24.0608 16.0319H25.7623C25.8818 16.032 26.0002 16.0085 26.1107 15.9628C26.2211 15.9171 26.3215 15.8501 26.406 15.7656C26.4905 15.6811 26.5576 15.5807 26.6032 15.4702C26.6489 15.3598 26.6724 15.2414 26.6723 15.1219C26.6957 14.6968 26.6781 14.2705 26.6198 13.8487L26.6189 13.8496ZM13.5622 8.50862C14.0257 8.6386 14.5129 8.65994 14.986 8.57099C15.4591 8.48203 15.9053 8.28517 16.29 7.99571C16.6746 7.70625 16.9873 7.33199 17.2038 6.90202C17.4203 6.47204 17.5347 5.99794 17.5382 5.51656C17.3947 1.39225 11.4499 1.3975 11.3047 5.51656C11.3059 6.19255 11.5268 6.84983 11.9339 7.38946C12.3411 7.92908 12.9125 8.32185 13.5622 8.50862Z" fill="#D4E5FF"/>
<path d="M9.21814 14.1427C10.0336 21.0465 19.936 20.1732 19.6551 13.2677H9.19189C9.19496 13.483 9.19802 13.8898 9.21814 14.1427ZM17.3631 8.65734C17.2866 8.60654 17.1961 8.58092 17.1043 8.58406C17.0126 8.5872 16.9241 8.61894 16.8512 8.67484C16.1548 9.21138 15.3004 9.50235 14.4213 9.50235C13.5422 9.50235 12.6878 9.21138 11.9915 8.67484C11.9191 8.61794 11.8304 8.58557 11.7384 8.58242C11.6463 8.57928 11.5557 8.60552 11.4796 8.65734C10.8543 9.07915 10.328 9.63154 9.93681 10.2764C9.54564 10.9213 9.29896 11.6433 9.21377 12.3927H19.6376C19.5501 11.6429 19.3015 10.921 18.9089 10.2762C18.5163 9.63151 17.989 9.07926 17.3631 8.65734ZM22.5553 9.92127C25.8392 9.81627 25.8379 5.05452 22.5553 4.95215C19.2658 5.05365 19.2662 9.81759 22.5553 9.92127Z" fill="#D4E5FF"/>
<path d="M20.5217 12.393H25.7966C26.0906 12.3938 26.3796 12.4691 26.6366 12.6117C26.5174 11.7174 26.1068 10.8873 25.4685 10.2496C25.2703 10.0296 24.9549 9.79727 24.681 10.0396C24.079 10.525 23.3292 10.79 22.556 10.7908C21.7827 10.7916 21.0324 10.5281 20.4294 10.044C20.3397 9.97062 20.2247 9.93544 20.1093 9.94608C19.9939 9.95672 19.8873 10.0123 19.8125 10.1009C20.1978 10.8108 20.4387 11.5899 20.5212 12.3934L20.5217 12.393Z" fill="#D4E5FF"/>
</svg>
