<svg width="24" height="24" viewBox="0 0 24 24" fill="none" xmlns="http://www.w3.org/2000/svg">
<path d="M19 0C20.3256 0.00158786 21.5968 0.528483 22.5342 1.46582C23.4715 2.40316 23.9984 3.67441 24 5V19C23.9984 20.3256 23.4715 21.5968 22.5342 22.5342C21.5968 23.4715 20.3256 23.9984 19 24H5C3.67441 23.9984 2.40316 23.4715 1.46582 22.5342C0.528483 21.5968 0.00158786 20.3256 0 19V5C0.00158786 3.67441 0.528482 2.40316 1.46582 1.46582C2.40316 0.528482 3.67441 0.00158786 5 0H19Z" fill="#0099FF"/>
<path d="M10 9.56248C10 8.66619 10.7175 7.93748 11.6 7.93748H12.4C13.2825 7.93748 14 8.66619 14 9.56248V9.65388C14 10.2074 13.7225 10.7228 13.265 11.0199L12.21 11.708C11.9003 11.9103 11.6455 12.1883 11.469 12.5166C11.2925 12.8448 11.2 13.2129 11.2 13.5869V13.6224C11.2 14.0719 11.5575 14.4349 12 14.4349C12.4425 14.4349 12.8 14.0719 12.8 13.6224V13.5869C12.8 13.3787 12.905 13.1857 13.075 13.074L14.13 12.3859C15.045 11.7867 15.6 10.7584 15.6 9.65134V9.55994C15.6 7.76482 14.1675 6.30994 12.4 6.30994H11.6C9.83252 6.31248 8.40002 7.76736 8.40002 9.56248C8.40002 10.0119 8.75752 10.375 9.20002 10.375C9.64252 10.375 10 10.0119 10 9.56248ZM12 17.6875C12.2652 17.6875 12.5196 17.5805 12.7071 17.39C12.8947 17.1995 13 16.9412 13 16.6719C13 16.4025 12.8947 16.1442 12.7071 15.9537C12.5196 15.7632 12.2652 15.6562 12 15.6562C11.7348 15.6562 11.4805 15.7632 11.2929 15.9537C11.1054 16.1442 11 16.4025 11 16.6719C11 16.9412 11.1054 17.1995 11.2929 17.39C11.4805 17.5805 11.7348 17.6875 12 17.6875Z" fill="white"/>
</svg>
