<svg width="25" height="24" viewBox="0 0 25 24" fill="none" xmlns="http://www.w3.org/2000/svg">
<path d="M19.4832 0C20.8087 0.00158786 22.08 0.528483 23.0173 1.46582C23.9547 2.40316 24.4816 3.67441 24.4832 5V19C24.4816 20.3256 23.9547 21.5968 23.0173 22.5342C22.08 23.4715 20.8088 23.9984 19.4832 24H5.48315C4.15756 23.9984 2.88631 23.4715 1.94897 22.5342C1.01164 21.5968 0.484742 20.3256 0.483154 19V5C0.484742 3.67441 1.01164 2.40316 1.94897 1.46582C2.88631 0.528482 4.15756 0.00158786 5.48315 0H19.4832Z" fill="#A5DBFF"/>
<g clip-path="url(#clip0_7424_4740)">
<path d="M10.4832 9.56248C10.4832 8.66619 11.2007 7.93748 12.0832 7.93748H12.8832C13.7657 7.93748 14.4832 8.66619 14.4832 9.56248V9.65388C14.4832 10.2074 14.2057 10.7228 13.7482 11.0199L12.6932 11.708C12.3834 11.9103 12.1286 12.1883 11.9521 12.5166C11.7757 12.8448 11.6832 13.2129 11.6832 13.5869V13.6224C11.6832 14.0719 12.0407 14.4349 12.4832 14.4349C12.9257 14.4349 13.2832 14.0719 13.2832 13.6224V13.5869C13.2832 13.3787 13.3882 13.1857 13.5582 13.074L14.6132 12.3859C15.5282 11.7867 16.0832 10.7584 16.0832 9.65134V9.55994C16.0832 7.76482 14.6507 6.30994 12.8832 6.30994H12.0832C10.3157 6.31248 8.88318 7.76736 8.88318 9.56248C8.88318 10.0119 9.24068 10.375 9.68318 10.375C10.1257 10.375 10.4832 10.0119 10.4832 9.56248ZM12.4832 17.6875C12.7484 17.6875 13.0027 17.5805 13.1903 17.39C13.3778 17.1995 13.4832 16.9412 13.4832 16.6719C13.4832 16.4025 13.3778 16.1442 13.1903 15.9537C13.0027 15.7632 12.7484 15.6562 12.4832 15.6562C12.218 15.6562 11.9636 15.7632 11.7761 15.9537C11.5885 16.1442 11.4832 16.4025 11.4832 16.6719C11.4832 16.9412 11.5885 17.1995 11.7761 17.39C11.9636 17.5805 12.218 17.6875 12.4832 17.6875Z" fill="white"/>
</g>
<defs>
<clipPath id="clip0_7424_4740">
<rect width="8" height="13" fill="white" transform="translate(8.48315 5.5)"/>
</clipPath>
</defs>
</svg>
