<svg width="23" height="23" viewBox="0 0 23 23" fill="none" xmlns="http://www.w3.org/2000/svg">
<g id="Frame" clip-path="url(#clip0_1743_8920)">
<g id="Group">
<path id="Vector" d="M8.70001 11.75L0.474512 3.52415C0.248253 3.29771 0.123407 2.99561 0.123049 2.67348C0.123049 2.35117 0.247894 2.04872 0.474512 1.82264L1.19533 1.102C1.42194 0.875026 1.72404 0.750717 2.04653 0.750717C2.36848 0.750717 2.67058 0.875026 2.8972 1.102L11.1227 9.32732L19.3485 1.102C19.5748 0.875026 19.8771 0.750717 20.1994 0.750717C20.5213 0.750717 20.8236 0.875026 21.0499 1.102L21.771 1.82264C22.2404 2.29197 22.2404 3.05535 21.771 3.52415L13.5454 11.75L21.771 19.9755C21.9975 20.2023 22.1222 20.5044 22.1222 20.8265C22.1222 21.1487 21.9975 21.4508 21.771 21.6774L21.0501 22.398C20.8238 22.6248 20.5213 22.7493 20.1996 22.7493C19.8773 22.7493 19.575 22.6248 19.3487 22.398L11.1229 14.1725L2.89738 22.398C2.67076 22.6248 2.36866 22.7493 2.04671 22.7493H2.04635C1.72422 22.7493 1.42212 22.6248 1.19551 22.398L0.474693 21.6774C0.248432 21.4509 0.123587 21.1487 0.123587 20.8265C0.123587 20.5044 0.248432 20.2023 0.474693 19.9757L8.70001 11.75Z" fill="#C51010"/>
</g>
</g>
<defs>
<clipPath id="clip0_1743_8920">
<rect width="22" height="22" fill="white" transform="matrix(-1 0 0 1 22.123 0.75)"/>
</clipPath>
</defs>
</svg>
