<svg id="fluent:add-16-filled" xmlns="http://www.w3.org/2000/svg" width="18" height="18" viewBox="0 0 18 18">
  <rect id="fluent:add-16-filled_Frame_Background_" data-name="fluent:add-16-filled [Frame Background]" width="18" height="18" fill="none"/>
  <g id="Vector" transform="translate(2.25 2.25)" fill="#fff">
    <path d="M 6.46875 13.08749961853027 C 6.203310012817383 13.08749961853027 5.953760147094727 12.98412990570068 5.766059875488281 12.79644012451172 C 5.578370094299316 12.60873985290527 5.474999904632568 12.35918998718262 5.474999904632568 12.09375 L 5.474999904632568 7.462500095367432 L 0.84375 7.462500095367432 C 0.5783100128173828 7.462500095367432 0.3287599980831146 7.359129905700684 0.1410599946975708 7.171440124511719 C -0.04662999883294106 6.983739852905273 -0.1500000059604645 6.734189987182617 -0.1500000059604645 6.46875 C -0.1500000059604645 6.203299999237061 -0.04662999883294106 5.953750133514404 0.1410699933767319 5.766059875488281 C 0.3287599980831146 5.578370094299316 0.5783100128173828 5.474999904632568 0.84375 5.474999904632568 L 5.474999904632568 5.474999904632568 L 5.474999904632568 0.84375 C 5.474999904632568 0.5782999992370605 5.578370094299316 0.3287500143051147 5.766069889068604 0.1410599946975708 C 5.953760147094727 -0.04662999883294106 6.203310012817383 -0.1500000059604645 6.46875 -0.1500000059604645 C 6.734200000762939 -0.1500000059604645 6.983749866485596 -0.04662999883294106 7.171440124511719 0.1410699933767319 C 7.359129905700684 0.3287599980831146 7.462500095367432 0.5783100128173828 7.462500095367432 0.84375 L 7.462500095367432 5.474999904632568 L 12.09375 5.474999904632568 C 12.35919952392578 5.474999904632568 12.60875034332275 5.578370094299316 12.79644012451172 5.766069889068604 C 12.98412990570068 5.953760147094727 13.08749961853027 6.203310012817383 13.08749961853027 6.46875 C 13.08749961853027 6.734189987182617 12.98412990570068 6.983739852905273 12.79644012451172 7.171440124511719 C 12.60873985290527 7.359129905700684 12.35918998718262 7.462500095367432 12.09375 7.462500095367432 L 7.462500095367432 7.462500095367432 L 7.462500095367432 12.09375 C 7.462500095367432 12.35918998718262 7.359129905700684 12.60873985290527 7.171440124511719 12.79644012451172 C 6.983739852905273 12.98412990570068 6.734189987182617 13.08749961853027 6.46875 13.08749961853027 Z" stroke="none"/>
    <path d="M 6.46875 0 C 6.244979858398438 0 6.030360221862793 0.08889961242675781 5.872129917144775 0.2471303939819336 C 5.713890075683594 0.405360221862793 5.625 0.6199703216552734 5.625 0.84375 L 5.625 5.625 L 0.84375 5.625 C 0.6199798583984375 5.625 0.405360221862793 5.713900089263916 0.2471303939819336 5.872129917144775 C 0.08889007568359375 6.030360221862793 0 6.244969844818115 0 6.46875 C 0 6.692530155181885 0.08889961242675781 6.907139778137207 0.2471303939819336 7.065370082855225 C 0.405360221862793 7.223599910736084 0.6199703216552734 7.3125 0.84375 7.3125 L 5.625 7.3125 L 5.625 12.09375 C 5.625 12.31752967834473 5.713900089263916 12.53213977813721 5.872129917144775 12.69036960601807 C 6.030360221862793 12.84860038757324 6.244969844818115 12.9375 6.46875 12.9375 C 6.692530155181885 12.9375 6.907139778137207 12.84860038757324 7.065370082855225 12.69036960601807 C 7.223599910736084 12.53213977813721 7.3125 12.31752967834473 7.3125 12.09375 L 7.3125 7.3125 L 12.09375 7.3125 C 12.31752967834473 7.3125 12.53213977813721 7.223599910736084 12.69036960601807 7.065370082855225 C 12.84860038757324 6.907139778137207 12.9375 6.692530155181885 12.9375 6.46875 C 12.9375 6.244979858398438 12.84860038757324 6.030360221862793 12.69036960601807 5.872129917144775 C 12.53213977813721 5.713890075683594 12.31752967834473 5.625 12.09375 5.625 L 7.3125 5.625 L 7.3125 0.84375 C 7.3125 0.6199798583984375 7.223599910736084 0.405360221862793 7.065370082855225 0.2471303939819336 C 6.907139778137207 0.08889007568359375 6.692530155181885 0 6.46875 0 M 6.46875 -0.3000001907348633 C 6.774270057678223 -0.3000001907348633 7.061490058898926 -0.1810302734375 7.277510166168213 0.03499984741210938 C 7.493529796600342 0.2510204315185547 7.612500190734863 0.5382499694824219 7.612500190734863 0.84375 L 7.612500190734863 5.324999809265137 L 12.09375 5.324999809265137 C 12.39927005767822 5.324999809265137 12.68649005889893 5.443970203399658 12.90250968933105 5.659999847412109 C 13.1185302734375 5.876019954681396 13.23750019073486 6.163249969482422 13.23750019073486 6.46875 C 13.23750019073486 6.774250030517578 13.1185302734375 7.061480045318604 12.90250015258789 7.277500152587891 C 12.68647956848145 7.493529796600342 12.39925003051758 7.612500190734863 12.09375 7.612500190734863 L 7.612500190734863 7.612500190734863 L 7.612500190734863 12.09375 C 7.612500190734863 12.39925003051758 7.493529796600342 12.68647956848145 7.277500152587891 12.90250015258789 C 7.061480045318604 13.1185302734375 6.774250030517578 13.23750019073486 6.46875 13.23750019073486 C 6.163249969482422 13.23750019073486 5.876019954681396 13.1185302734375 5.659999847412109 12.90250015258789 C 5.443970203399658 12.68647956848145 5.324999809265137 12.39925003051758 5.324999809265137 12.09375 L 5.324999809265137 7.612500190734863 L 0.84375 7.612500190734863 C 0.5382499694824219 7.612500190734863 0.2510204315185547 7.493529796600342 0.03499984741210938 7.277500152587891 C -0.1810302734375 7.061480045318604 -0.3000001907348633 6.774250030517578 -0.3000001907348633 6.46875 C -0.3000001907348633 6.163229942321777 -0.1810302734375 5.876009941101074 0.03499984741210938 5.659989833831787 C 0.2510204315185547 5.443970203399658 0.5382499694824219 5.324999809265137 0.84375 5.324999809265137 L 5.324999809265137 5.324999809265137 L 5.324999809265137 0.84375 C 5.324999809265137 0.5382299423217773 5.443970203399658 0.2510099411010742 5.659999847412109 0.03499031066894531 C 5.876019954681396 -0.1810302734375 6.163249969482422 -0.3000001907348633 6.46875 -0.3000001907348633 Z" stroke="none" fill="#fff"/>
  </g>
</svg>
