<svg width="21" height="21" viewBox="0 0 21 21" fill="none" xmlns="http://www.w3.org/2000/svg">
<g id="Extra Icons">
<path id="Vector" d="M16.2968 15.0144L18.797 17.5129C18.9136 17.6336 18.9781 17.7953 18.9767 17.9631C18.9752 18.1309 18.9079 18.2914 18.7892 18.4101C18.6705 18.5287 18.51 18.5961 18.3422 18.5975C18.1743 18.599 18.0126 18.5345 17.8919 18.4179L15.3918 15.918C13.758 17.3177 11.6455 18.0301 9.49763 17.906C7.34977 17.7819 5.33348 16.8307 3.87185 15.2522C2.41022 13.6737 1.61688 11.5905 1.65828 9.43974C1.69969 7.28897 2.57263 5.23784 4.09393 3.71673C5.61523 2.19563 7.66664 1.3228 9.81768 1.2814C11.9687 1.24 14.0522 2.03325 15.6309 3.49468C17.2096 4.95612 18.1609 6.97215 18.285 9.11973C18.4092 11.2673 17.6966 13.3795 16.2968 15.0131V15.0144ZM9.97793 16.64C11.8453 16.64 13.6362 15.8983 14.9566 14.578C16.277 13.2577 17.0188 11.4671 17.0188 9.59997C17.0188 7.73284 16.277 5.94219 14.9566 4.62193C13.6362 3.30168 11.8453 2.55997 9.97793 2.55997C8.11056 2.55997 6.31968 3.30168 4.99925 4.62193C3.67882 5.94219 2.93701 7.73284 2.93701 9.59997C2.93701 11.4671 3.67882 13.2577 4.99925 14.578C6.31968 15.8983 8.11056 16.64 9.97793 16.64Z" fill="#A2A3A4"/>
</g>
</svg>
