<svg width="22" height="18" viewBox="0 0 22 18" fill="none" xmlns="http://www.w3.org/2000/svg">
<path d="M19.178 1.91698C19.1364 1.91623 18.3864 1.91773 18.3268 1.91698C18.2587 1.61398 18.1097 1.33511 17.8958 1.11002C17.6818 0.88493 17.4109 0.722032 17.1117 0.638651C16.8126 0.555271 16.4964 0.554525 16.1969 0.636493C15.8973 0.718461 15.6256 0.880079 15.4106 1.10416C15.1956 1.32824 15.0453 1.6064 14.9758 1.90907C14.9062 2.21174 14.92 2.5276 15.0157 2.82305C15.1113 3.11851 15.2853 3.38252 15.519 3.587C15.7527 3.79149 16.0375 3.92881 16.343 3.98435C16.4287 3.9986 16.5065 4.04266 16.5628 4.10874C16.619 4.17483 16.6501 4.25868 16.6505 4.34548V4.35485C16.6513 4.40803 16.6405 4.46074 16.619 4.50934C16.5974 4.55795 16.5655 4.60129 16.5255 4.63637C16.4856 4.67146 16.4384 4.69745 16.3875 4.71255C16.3365 4.72765 16.2828 4.73151 16.2302 4.72385C15.7209 4.63538 15.2523 4.38927 14.8904 4.02023C14.5285 3.6512 14.2916 3.17786 14.213 2.66698C14.1736 2.41853 14.1736 2.16542 14.213 1.91698H12.7993C12.7312 1.61398 12.5822 1.33511 12.3683 1.11002C12.1543 0.88493 11.8834 0.722032 11.5842 0.638651C11.2851 0.555271 10.9689 0.554525 10.6694 0.636493C10.3698 0.718461 10.0981 0.880079 9.88308 1.10416C9.66806 1.32824 9.51779 1.6064 9.44826 1.90907C9.37872 2.21174 9.39251 2.5276 9.48816 2.82305C9.58382 3.11851 9.75776 3.38252 9.99149 3.587C10.2252 3.79149 10.51 3.92881 10.8155 3.98435C10.9012 3.9986 10.979 4.04266 11.0353 4.10874C11.0915 4.17483 11.1226 4.25868 11.123 4.34548V4.35785C11.1239 4.41079 11.1132 4.46328 11.0919 4.51172C11.0705 4.56016 11.0389 4.6034 10.9993 4.63849C10.9596 4.67357 10.9129 4.69967 10.8622 4.71499C10.8115 4.73031 10.7581 4.73448 10.7057 4.72723C10.0695 4.61366 9.50269 4.25662 9.12551 3.73191C8.74833 3.20721 8.59051 2.55616 8.68555 1.91698H7.2718C7.20369 1.61398 7.05474 1.33511 6.84078 1.11002C6.62682 0.88493 6.35586 0.722032 6.05671 0.638651C5.75756 0.555271 5.4414 0.554525 5.14186 0.636493C4.84232 0.718461 4.57059 0.880079 4.35558 1.10416C4.14056 1.32824 3.99029 1.6064 3.92076 1.90907C3.85122 2.21174 3.86501 2.5276 3.96067 2.82305C4.05632 3.11851 4.23026 3.38252 4.46399 3.587C4.69772 3.79149 4.9825 3.92881 5.28805 3.98435C5.37367 3.9986 5.45149 4.04266 5.50777 4.10874C5.56404 4.17483 5.59513 4.25868 5.59555 4.34548V4.35598C5.59635 4.40908 5.58563 4.46172 5.56414 4.51028C5.54264 4.55884 5.51088 4.60216 5.47103 4.63727C5.43119 4.67237 5.3842 4.69842 5.33332 4.71363C5.28244 4.72884 5.22887 4.73284 5.1763 4.72535C4.60403 4.62369 4.08557 4.32445 3.71128 3.87978C3.33699 3.43511 3.13059 2.8732 3.12805 2.29198C3.12842 2.16639 3.13845 2.04102 3.15805 1.91698H3.06805C2.42021 1.91688 1.79883 2.17393 1.34039 2.63167C0.881945 3.0894 0.623941 3.71039 0.623047 4.35823V5.41948H21.623V4.35823C21.6222 3.71039 21.3641 3.0894 20.9057 2.63167C20.4473 2.17393 19.8259 1.91688 19.178 1.91698ZM5.59555 1.32448C5.78614 1.3243 5.97254 1.38045 6.13133 1.48587C6.29012 1.59128 6.41422 1.74126 6.48805 1.91698H4.70305C4.77773 1.74187 4.90203 1.59246 5.06063 1.48717C5.21923 1.38188 5.40518 1.32533 5.59555 1.32448ZM11.123 1.32448C11.3134 1.32533 11.4994 1.38188 11.658 1.48717C11.8166 1.59246 11.9409 1.74187 12.0155 1.91698H10.2305C10.3052 1.74187 10.4295 1.59246 10.5881 1.48717C10.7467 1.38188 10.9327 1.32533 11.123 1.32448ZM16.6505 1.32448C16.8409 1.32533 17.0269 1.38188 17.1855 1.48717C17.3441 1.59246 17.4684 1.74187 17.543 1.91698H15.758C15.8319 1.74126 15.956 1.59128 16.1148 1.48587C16.2736 1.38045 16.46 1.3243 16.6505 1.32448ZM0.623047 6.16948V14.9707C0.62404 15.6185 0.882076 16.2395 1.3405 16.6972C1.79891 17.1549 2.42024 17.412 3.06805 17.412H19.178C19.8259 17.412 20.4472 17.1549 20.9056 16.6972C21.364 16.2395 21.6221 15.6185 21.623 14.9707V6.16948H0.623047ZM7.1368 10.7332C7.4187 9.6769 8.10792 8.77544 9.05338 8.22644C9.99883 7.67744 11.1234 7.5257 12.1805 7.80448C16.8043 9.13573 15.9324 15.8119 11.1305 15.9157C10.4995 15.9127 9.87744 15.7657 9.31182 15.4858C8.7462 15.206 8.25195 14.8007 7.86675 14.3008C7.48154 13.8009 7.21555 13.2197 7.08905 12.6015C6.96255 11.9832 6.97888 11.3442 7.1368 10.7332Z" fill="#EB7360"/>
<path d="M10.256 15.0495C10.7552 15.1783 11.2772 15.1917 11.7824 15.0886C12.2875 14.9855 12.7626 14.7687 13.1714 14.4546C13.5803 14.1404 13.9121 13.7373 14.1419 13.2757C14.3716 12.8141 14.4931 12.3063 14.4972 11.7907C14.4278 7.89296 8.97646 7.10958 7.85971 10.9245C7.63167 11.7892 7.75588 12.709 8.20508 13.4823C8.65429 14.2556 9.39183 14.8192 10.256 15.0495ZM9.21721 10.5457C9.13371 10.4574 9.08795 10.34 9.08966 10.2184C9.09137 10.0969 9.14041 9.98081 9.22636 9.89486C9.31231 9.80891 9.42839 9.75987 9.54993 9.75816C9.67147 9.75645 9.78888 9.80221 9.87721 9.88571L11.1222 11.1307L12.3672 9.88571C12.4101 9.84035 12.4616 9.80405 12.5188 9.77896C12.5759 9.75386 12.6375 9.74048 12.6999 9.7396C12.7623 9.73872 12.8243 9.75037 12.8821 9.77385C12.94 9.79733 12.9925 9.83216 13.0366 9.8763C13.0808 9.92043 13.1156 9.97297 13.1391 10.0308C13.1626 10.0886 13.1742 10.1506 13.1733 10.213C13.1724 10.2754 13.1591 10.337 13.134 10.3941C13.1089 10.4513 13.0726 10.5028 13.0272 10.5457L11.7822 11.7907L13.0272 13.0357C13.0709 13.0789 13.1056 13.1302 13.1292 13.1869C13.1529 13.2435 13.1651 13.3043 13.1651 13.3657C13.1651 13.4271 13.1529 13.4879 13.1292 13.5445C13.1056 13.6012 13.0709 13.6526 13.0272 13.6957C12.9391 13.7822 12.8206 13.8306 12.6972 13.8306C12.5738 13.8306 12.4553 13.7822 12.3672 13.6957L11.1222 12.4507L9.87721 13.6957C9.78888 13.7792 9.67147 13.825 9.54993 13.8233C9.42839 13.8215 9.31231 13.7725 9.22636 13.6866C9.14041 13.6006 9.09137 13.4845 9.08966 13.363C9.08795 13.2415 9.13371 13.124 9.21721 13.0357L10.4622 11.7907L9.21721 10.5457Z" fill="#EB7360"/>
</svg>
