<svg width="25" height="24" viewBox="0 0 25 24" fill="none" xmlns="http://www.w3.org/2000/svg">
<path d="M20.178 4.91698C20.1364 4.91623 19.3864 4.91773 19.3268 4.91698C19.2587 4.61398 19.1097 4.33511 18.8958 4.11002C18.6818 3.88493 18.4109 3.72203 18.1117 3.63865C17.8126 3.55527 17.4964 3.55452 17.1969 3.63649C16.8973 3.71846 16.6256 3.88008 16.4106 4.10416C16.1956 4.32824 16.0453 4.6064 15.9758 4.90907C15.9062 5.21174 15.92 5.5276 16.0157 5.82305C16.1113 6.11851 16.2853 6.38252 16.519 6.587C16.7527 6.79149 17.0375 6.92881 17.343 6.98435C17.4287 6.9986 17.5065 7.04266 17.5628 7.10874C17.619 7.17483 17.6501 7.25868 17.6505 7.34548V7.35485C17.6513 7.40803 17.6405 7.46074 17.619 7.50934C17.5974 7.55795 17.5655 7.60129 17.5255 7.63637C17.4856 7.67146 17.4384 7.69745 17.3875 7.71255C17.3365 7.72765 17.2828 7.73151 17.2302 7.72385C16.7209 7.63538 16.2523 7.38927 15.8904 7.02023C15.5285 6.6512 15.2916 6.17786 15.213 5.66698C15.1736 5.41853 15.1736 5.16542 15.213 4.91698H13.7993C13.7312 4.61398 13.5822 4.33511 13.3683 4.11002C13.1543 3.88493 12.8834 3.72203 12.5842 3.63865C12.2851 3.55527 11.9689 3.55452 11.6694 3.63649C11.3698 3.71846 11.0981 3.88008 10.8831 4.10416C10.6681 4.32824 10.5178 4.6064 10.4483 4.90907C10.3787 5.21174 10.3925 5.5276 10.4882 5.82305C10.5838 6.11851 10.7578 6.38252 10.9915 6.587C11.2252 6.79149 11.51 6.92881 11.8155 6.98435C11.9012 6.9986 11.979 7.04266 12.0353 7.10874C12.0915 7.17483 12.1226 7.25868 12.123 7.34548V7.35785C12.1239 7.41079 12.1132 7.46328 12.0919 7.51172C12.0705 7.56016 12.0389 7.6034 11.9993 7.63849C11.9596 7.67357 11.9129 7.69967 11.8622 7.71499C11.8115 7.73031 11.7581 7.73448 11.7057 7.72723C11.0695 7.61366 10.5027 7.25662 10.1255 6.73191C9.74833 6.20721 9.59051 5.55616 9.68555 4.91698H8.2718C8.20369 4.61398 8.05474 4.33511 7.84078 4.11002C7.62682 3.88493 7.35586 3.72203 7.05671 3.63865C6.75756 3.55527 6.4414 3.55452 6.14186 3.63649C5.84232 3.71846 5.57059 3.88008 5.35558 4.10416C5.14056 4.32824 4.99029 4.6064 4.92076 4.90907C4.85122 5.21174 4.86501 5.5276 4.96067 5.82305C5.05632 6.11851 5.23026 6.38252 5.46399 6.587C5.69772 6.79149 5.9825 6.92881 6.28805 6.98435C6.37367 6.9986 6.45149 7.04266 6.50777 7.10874C6.56404 7.17483 6.59513 7.25868 6.59555 7.34548V7.35598C6.59635 7.40908 6.58563 7.46172 6.56414 7.51028C6.54264 7.55884 6.51088 7.60216 6.47103 7.63727C6.43119 7.67237 6.3842 7.69842 6.33332 7.71363C6.28244 7.72884 6.22887 7.73284 6.1763 7.72535C5.60403 7.62369 5.08557 7.32445 4.71128 6.87978C4.33699 6.43511 4.13059 5.8732 4.12805 5.29198C4.12842 5.16639 4.13845 5.04102 4.15805 4.91698H4.06805C3.42021 4.91688 2.79883 5.17393 2.34039 5.63167C1.88195 6.0894 1.62394 6.71039 1.62305 7.35823V8.41948H22.623V7.35823C22.6222 6.71039 22.3641 6.0894 21.9057 5.63167C21.4473 5.17393 20.8259 4.91688 20.178 4.91698ZM6.59555 4.32448C6.78614 4.3243 6.97254 4.38045 7.13133 4.48587C7.29012 4.59128 7.41422 4.74126 7.48805 4.91698H5.70305C5.77773 4.74187 5.90203 4.59246 6.06063 4.48717C6.21923 4.38188 6.40518 4.32533 6.59555 4.32448ZM12.123 4.32448C12.3134 4.32533 12.4994 4.38188 12.658 4.48717C12.8166 4.59246 12.9409 4.74187 13.0155 4.91698H11.2305C11.3052 4.74187 11.4295 4.59246 11.5881 4.48717C11.7467 4.38188 11.9327 4.32533 12.123 4.32448ZM17.6505 4.32448C17.8409 4.32533 18.0269 4.38188 18.1855 4.48717C18.3441 4.59246 18.4684 4.74187 18.543 4.91698H16.758C16.8319 4.74126 16.956 4.59128 17.1148 4.48587C17.2736 4.38045 17.46 4.3243 17.6505 4.32448ZM1.62305 9.16948V17.9707C1.62404 18.6185 1.88208 19.2395 2.3405 19.6972C2.79891 20.1549 3.42024 20.412 4.06805 20.412H20.178C20.8259 20.412 21.4472 20.1549 21.9056 19.6972C22.364 19.2395 22.6221 18.6185 22.623 17.9707V9.16948H1.62305ZM8.1368 13.7332C8.4187 12.6769 9.10792 11.7754 10.0534 11.2264C10.9988 10.6774 4.06589 14.2212 5.12305 14.5C9.7468 15.8313 12.123 17.5 15.123 18.5C14.492 18.497 18.6887 14.7799 18.123 14.5C17.5574 14.2201 13.0083 13.9999 12.623 13.5C12.2378 13.0001 9.74955 14.6183 9.62305 14C9.49655 13.3817 7.97888 14.3442 8.1368 13.7332Z" fill="#1AA3FF"/>
</svg>
