<svg width="17" height="16" viewBox="0 0 17 16" fill="none" xmlns="http://www.w3.org/2000/svg">
<g clip-path="url(#clip0_2122_4271)">
<path d="M8.88477 0C7.30252 0 5.7558 0.469192 4.44021 1.34824C3.12461 2.22729 2.09923 3.47672 1.49373 4.93853C0.888232 6.40034 0.729805 8.00887 1.03849 9.56072C1.34717 11.1126 2.10909 12.538 3.22792 13.6569C4.34674 14.7757 5.7722 15.5376 7.32405 15.8463C8.8759 16.155 10.4844 15.9965 11.9462 15.391C13.408 14.7855 14.6575 13.7602 15.5365 12.4446C16.4156 11.129 16.8848 9.58225 16.8848 8C16.8825 5.87897 16.0389 3.84547 14.5391 2.34568C13.0393 0.845886 11.0058 0.00229405 8.88477 0ZM9.55144 7.91933C9.55151 8.03234 9.52285 8.14351 9.46816 8.2424C9.41346 8.3413 9.33453 8.42466 9.23877 8.48467L6.67877 10.0847C6.60435 10.1312 6.52151 10.1625 6.43497 10.177C6.34843 10.1915 6.25988 10.1888 6.17439 10.169C6.0889 10.1493 6.00813 10.1129 5.93671 10.0619C5.86528 10.0109 5.80459 9.94642 5.7581 9.872C5.71161 9.79759 5.68024 9.71474 5.66577 9.6282C5.6513 9.54166 5.65401 9.45311 5.67376 9.36762C5.69351 9.28213 5.7299 9.20137 5.78086 9.12994C5.83182 9.05851 5.89635 8.99782 5.97077 8.95133L8.2181 7.55V4.66667C8.2181 4.48986 8.28834 4.32029 8.41337 4.19526C8.53839 4.07024 8.70796 4 8.88477 4C9.06158 4 9.23115 4.07024 9.35617 4.19526C9.4812 4.32029 9.55144 4.48986 9.55144 4.66667V7.91933Z" fill="#AAAAAA"/>
</g>
<defs>
<clipPath id="clip0_2122_4271">
<rect width="16" height="16" fill="white" transform="translate(0.884766)"/>
</clipPath>
</defs>
</svg>
