<svg width="14" height="16" viewBox="0 0 14 16" fill="none" xmlns="http://www.w3.org/2000/svg">
<path d="M13.1237 2.66666H11.057C10.7381 1.11572 9.37375 0.002 7.79034 0H6.457C4.87359 0.002 3.50928 1.11572 3.19034 2.66666H1.12369C0.7555 2.66666 0.457031 2.96513 0.457031 3.33331C0.457031 3.7015 0.7555 4 1.12369 4H1.79034V12.6667C1.79256 14.5067 3.28366 15.9978 5.12369 16H9.12369C10.9637 15.9978 12.4548 14.5067 12.457 12.6667V4H13.1237C13.4919 4 13.7903 3.70153 13.7903 3.33334C13.7903 2.96516 13.4919 2.66666 13.1237 2.66666ZM6.45703 11.3333C6.45703 11.7015 6.15856 12 5.79037 12C5.42216 12 5.12369 11.7015 5.12369 11.3333V7.33334C5.12369 6.96516 5.42216 6.66669 5.79034 6.66669C6.15853 6.66669 6.457 6.96516 6.457 7.33334V11.3333H6.45703ZM9.12369 11.3333C9.12369 11.7015 8.82522 12 8.45703 12C8.08884 12 7.79038 11.7015 7.79038 11.3333V7.33334C7.79038 6.96516 8.08884 6.66669 8.45703 6.66669C8.82522 6.66669 9.12369 6.96516 9.12369 7.33334V11.3333ZM4.57103 2.66666C4.85459 1.86819 5.60972 1.33434 6.45703 1.33331H7.79038C8.63769 1.33434 9.39281 1.86819 9.67638 2.66666H4.57103Z" fill="#E74424"/>
</svg>
