<svg width="25" height="24" viewBox="0 0 25 24" fill="none" xmlns="http://www.w3.org/2000/svg">
<g clip-path="url(#clip0_2122_4178)">
<path d="M19.123 0H5.12305C2.36605 0 0.123047 2.243 0.123047 5V19C0.123047 21.757 2.36605 24 5.12305 24H19.123C21.88 24 24.123 21.757 24.123 19V5C24.123 2.243 21.88 0 19.123 0ZM16.123 13H13.123V16C13.123 16.553 12.675 17 12.123 17C11.571 17 11.123 16.553 11.123 16V13H8.12305C7.57105 13 7.12305 12.553 7.12305 12C7.12305 11.447 7.57105 11 8.12305 11H11.123V8C11.123 7.447 11.571 7 12.123 7C12.675 7 13.123 7.447 13.123 8V11H16.123C16.675 11 17.123 11.447 17.123 12C17.123 12.553 16.675 13 16.123 13Z" fill="#0099FF"/>
</g>
<defs>
<clipPath id="clip0_2122_4178">
<rect width="24" height="24" fill="white" transform="translate(0.123047)"/>
</clipPath>
</defs>
</svg>
