<svg width="24" height="24" viewBox="0 0 24 24" fill="none" xmlns="http://www.w3.org/2000/svg">
<g clip-path="url(#clip0_6685_9263)">
<path d="M14.652 10.879L9.459 16.072C8.861 16.67 8.066 16.999 7.22 16.999H7V16.779C7 15.933 7.329 15.138 7.927 14.54L13.12 9.347L14.652 10.879ZM16.417 6.5C16.128 6.5 15.856 6.612 15.653 6.816L14.535 7.934L16.066 9.465L17.183 8.348C17.593 7.978 17.595 7.198 17.198 6.831C16.979 6.612 16.707 6.5 16.417 6.5ZM24 5V19C24 21.757 21.757 24 19 24H5C2.243 24 0 21.757 0 19V5C0 2.243 2.243 0 5 0H19C21.757 0 24 2.243 24 5ZM19.495 7.582C19.495 6.744 19.163 5.944 18.598 5.403C17.452 4.208 15.384 4.206 14.239 5.403L6.514 13.128C5.538 14.104 5.001 15.401 5.001 16.781V17.48C5.001 18.319 5.683 19.001 6.522 19.001H7.221C8.601 19.001 9.899 18.463 10.874 17.488L18.584 9.778C19.164 9.221 19.497 8.421 19.496 7.583L19.495 7.582Z" fill="#A5DBFF"/>
<rect x="3.08887" y="2.56177" width="17.5862" height="17.5862" fill="#A5DBFF"/>
<path d="M11.0001 17.3333C11.0001 17.5985 11.1054 17.8529 11.293 18.0404C11.4805 18.2279 11.7349 18.3333 12.0001 18.3333C12.2653 18.3333 12.5197 18.2279 12.7072 18.0404C12.8947 17.8529 13.0001 17.5985 13.0001 17.3333V13H17.3334C17.5986 13 17.853 12.8946 18.0405 12.7071C18.2281 12.5195 18.3334 12.2652 18.3334 12C18.3334 11.7347 18.2281 11.4804 18.0405 11.2929C17.853 11.1053 17.5986 11 17.3334 11H13.0001V6.66663C13.0001 6.40141 12.8947 6.14706 12.7072 5.95952C12.5197 5.77198 12.2653 5.66663 12.0001 5.66663C11.7349 5.66663 11.4805 5.77198 11.293 5.95952C11.1054 6.14706 11.0001 6.40141 11.0001 6.66663V11H6.66675C6.40153 11 6.14718 11.1053 5.95964 11.2929C5.7721 11.4804 5.66675 11.7347 5.66675 12C5.66675 12.2652 5.7721 12.5195 5.95964 12.7071C6.14718 12.8946 6.40153 13 6.66675 13H11.0001V17.3333Z" fill="white" stroke="#A5DBFF" stroke-width="0.3"/>
</g>
<defs>
<clipPath id="clip0_6685_9263">
<rect width="24" height="24" fill="white"/>
</clipPath>
</defs>
</svg>
