<svg width="24" height="24" viewBox="0 0 24 24" fill="none" xmlns="http://www.w3.org/2000/svg">
<g clip-path="url(#clip0_6685_9256)">
<path d="M14.652 10.879L9.459 16.072C8.861 16.67 8.066 16.999 7.22 16.999H7V16.779C7 15.933 7.329 15.138 7.927 14.54L13.12 9.347L14.652 10.879ZM16.417 6.5C16.128 6.5 15.856 6.612 15.653 6.816L14.535 7.934L16.066 9.465L17.183 8.348C17.593 7.978 17.595 7.198 17.198 6.831C16.979 6.612 16.707 6.5 16.417 6.5ZM24 5V19C24 21.757 21.757 24 19 24H5C2.243 24 0 21.757 0 19V5C0 2.243 2.243 0 5 0H19C21.757 0 24 2.243 24 5ZM19.495 7.582C19.495 6.744 19.163 5.944 18.598 5.403C17.452 4.208 15.384 4.206 14.239 5.403L6.514 13.128C5.538 14.104 5.001 15.401 5.001 16.781V17.48C5.001 18.319 5.683 19.001 6.522 19.001H7.221C8.601 19.001 9.899 18.463 10.874 17.488L18.584 9.778C19.164 9.221 19.497 8.421 19.496 7.583L19.495 7.582Z" fill="#A5DBFF"/>
<rect x="3.08887" y="2.56177" width="17.5862" height="17.5862" fill="#A5DBFF"/>
<path d="M11.4208 10.7253L10.8632 12.3989C10.8306 12.5016 10.8269 12.6112 10.8524 12.7157C10.878 12.8203 10.9318 12.9159 11.0079 12.992C11.0841 13.0681 11.1797 13.1218 11.2843 13.1472C11.3889 13.1727 11.4985 13.1689 11.6011 13.1363L13.2747 12.5786C13.3603 12.5499 13.4381 12.5017 13.5022 12.438L17.4315 8.50868C17.6886 8.25121 17.8331 7.9022 17.8331 7.53831C17.8331 7.17442 17.6886 6.8254 17.4315 6.56793C17.1739 6.31124 16.8251 6.16711 16.4614 6.16711C16.0978 6.16711 15.7489 6.31124 15.4913 6.56793L11.562 10.4978C11.4979 10.5617 11.4496 10.6396 11.4208 10.7253Z" fill="white"/>
<path d="M17.2501 10.25C17.0954 10.25 16.947 10.3114 16.8376 10.4208C16.7282 10.5302 16.6667 10.6786 16.6667 10.8333V14.9166C16.6667 15.3808 16.4824 15.8259 16.1542 16.1541C15.826 16.4823 15.3809 16.6666 14.9167 16.6666H9.08341C8.61929 16.6666 8.17417 16.4823 7.84598 16.1541C7.51779 15.8259 7.33341 15.3808 7.33341 14.9166V9.08329C7.33341 8.61916 7.51779 8.17404 7.84598 7.84586C8.17417 7.51767 8.61929 7.33329 9.08341 7.33329H13.1667C13.3215 7.33329 13.4698 7.27183 13.5792 7.16244C13.6886 7.05304 13.7501 6.90467 13.7501 6.74996C13.7501 6.59525 13.6886 6.44688 13.5792 6.33748C13.4698 6.22808 13.3215 6.16663 13.1667 6.16663H9.08341C8.31015 6.16755 7.56882 6.47514 7.02204 7.02192C6.47526 7.5687 6.16767 8.31003 6.16675 9.08329V14.9166C6.16767 15.6899 6.47526 16.4312 7.02204 16.978C7.56882 17.5248 8.31015 17.8324 9.08341 17.8333H14.9167C15.69 17.8324 16.4313 17.5248 16.9781 16.978C17.5249 16.4312 17.8325 15.6899 17.8334 14.9166V10.8333C17.8334 10.6786 17.772 10.5302 17.6626 10.4208C17.5532 10.3114 17.4048 10.25 17.2501 10.25Z" fill="white"/>
</g>
<defs>
<clipPath id="clip0_6685_9256">
<rect width="24" height="24" fill="white"/>
</clipPath>
</defs>
</svg>
