<svg width="24" height="24" viewBox="0 0 24 24" fill="none" xmlns="http://www.w3.org/2000/svg">
<g clip-path="url(#clip0_6685_9270)">
<path d="M14.652 10.879L9.459 16.072C8.861 16.67 8.066 16.999 7.22 16.999H7V16.779C7 15.933 7.329 15.138 7.927 14.54L13.12 9.347L14.652 10.879ZM16.417 6.5C16.128 6.5 15.856 6.612 15.653 6.816L14.535 7.934L16.066 9.465L17.183 8.348C17.593 7.978 17.595 7.198 17.198 6.831C16.979 6.612 16.707 6.5 16.417 6.5ZM24 5V19C24 21.757 21.757 24 19 24H5C2.243 24 0 21.757 0 19V5C0 2.243 2.243 0 5 0H19C21.757 0 24 2.243 24 5ZM19.495 7.582C19.495 6.744 19.163 5.944 18.598 5.403C17.452 4.208 15.384 4.206 14.239 5.403L6.514 13.128C5.538 14.104 5.001 15.401 5.001 16.781V17.48C5.001 18.319 5.683 19.001 6.522 19.001H7.221C8.601 19.001 9.899 18.463 10.874 17.488L18.584 9.778C19.164 9.221 19.497 8.421 19.496 7.583L19.495 7.582Z" fill="#A5DBFF"/>
<rect x="3.08887" y="2.56177" width="17.5862" height="17.5862" fill="#A5DBFF"/>
<mask id="path-3-inside-1_6685_9270" fill="white">
<path d="M18 8.02502V10.1625C18 10.5767 17.6642 10.9125 17.25 10.9125H15.1125C14.6983 10.9125 14.3625 10.5767 14.3625 10.1625C14.3625 9.74829 14.6983 9.4125 15.1125 9.4125H15.6856C14.8574 8.22551 13.5002 7.5 12 7.5C10.1335 7.5 8.48794 8.62296 7.80783 10.3609C7.65684 10.7466 7.22175 10.9369 6.83606 10.7859C6.45033 10.635 6.26002 10.1999 6.41098 9.8142C6.84595 8.70272 7.59567 7.7539 8.57909 7.0703C9.58636 6.3701 10.7693 6 12 6C13.2307 6 14.4136 6.3701 15.4209 7.07027C15.8211 7.34848 16.1827 7.67065 16.5 8.0298V8.02505C16.5 7.61084 16.8358 7.27505 17.25 7.27505C17.6642 7.27505 18 7.61081 18 8.02502ZM17.1639 13.2141C16.7782 13.0631 16.3432 13.2535 16.1922 13.6392C15.5121 15.3771 13.8665 16.5 12 16.5C10.5317 16.5 9.2003 15.805 8.36789 14.6625H8.88748C9.30169 14.6625 9.63748 14.3267 9.63748 13.9125C9.63748 13.4983 9.30169 13.1625 8.88748 13.1625H6.75C6.33579 13.1625 6 13.4983 6 13.9125V16.05C6 16.4642 6.33579 16.8 6.75 16.8C7.16421 16.8 7.5 16.4642 7.5 16.05V15.9702C7.81734 16.3294 8.17887 16.6515 8.57909 16.9297C9.58636 17.6299 10.7693 18 12 18C13.2307 18 14.4136 17.6299 15.4209 16.9297C16.4043 16.2461 17.154 15.2973 17.589 14.1858C17.74 13.8001 17.5497 13.365 17.1639 13.2141Z"/>
</mask>
<path d="M18 8.02502V10.1625C18 10.5767 17.6642 10.9125 17.25 10.9125H15.1125C14.6983 10.9125 14.3625 10.5767 14.3625 10.1625C14.3625 9.74829 14.6983 9.4125 15.1125 9.4125H15.6856C14.8574 8.22551 13.5002 7.5 12 7.5C10.1335 7.5 8.48794 8.62296 7.80783 10.3609C7.65684 10.7466 7.22175 10.9369 6.83606 10.7859C6.45033 10.635 6.26002 10.1999 6.41098 9.8142C6.84595 8.70272 7.59567 7.7539 8.57909 7.0703C9.58636 6.3701 10.7693 6 12 6C13.2307 6 14.4136 6.3701 15.4209 7.07027C15.8211 7.34848 16.1827 7.67065 16.5 8.0298V8.02505C16.5 7.61084 16.8358 7.27505 17.25 7.27505C17.6642 7.27505 18 7.61081 18 8.02502ZM17.1639 13.2141C16.7782 13.0631 16.3432 13.2535 16.1922 13.6392C15.5121 15.3771 13.8665 16.5 12 16.5C10.5317 16.5 9.2003 15.805 8.36789 14.6625H8.88748C9.30169 14.6625 9.63748 14.3267 9.63748 13.9125C9.63748 13.4983 9.30169 13.1625 8.88748 13.1625H6.75C6.33579 13.1625 6 13.4983 6 13.9125V16.05C6 16.4642 6.33579 16.8 6.75 16.8C7.16421 16.8 7.5 16.4642 7.5 16.05V15.9702C7.81734 16.3294 8.17887 16.6515 8.57909 16.9297C9.58636 17.6299 10.7693 18 12 18C13.2307 18 14.4136 17.6299 15.4209 16.9297C16.4043 16.2461 17.154 15.2973 17.589 14.1858C17.74 13.8001 17.5497 13.365 17.1639 13.2141Z" fill="white"/>
<path d="M15.6856 9.4125V11.4125H19.5196L17.3258 8.26811L15.6856 9.4125ZM7.80783 10.3609L9.67024 11.0898L9.67029 11.0897L7.80783 10.3609ZM6.83606 10.7859L6.10717 12.6484L6.1072 12.6484L6.83606 10.7859ZM6.41098 9.8142L8.27341 10.5431L8.27343 10.5431L6.41098 9.8142ZM8.57909 7.0703L9.72064 8.71251L9.72065 8.7125L8.57909 7.0703ZM15.4209 7.07027L16.5625 5.42806L16.5625 5.42805L15.4209 7.07027ZM16.5 8.0298L15.0012 9.35408L18.5 13.3138V8.0298H16.5ZM17.1639 13.2141L16.4349 15.0765L16.435 15.0765L17.1639 13.2141ZM16.1922 13.6392L14.3298 12.9101L14.3297 12.9103L16.1922 13.6392ZM8.36789 14.6625V12.6625H4.43616L6.75143 15.8402L8.36789 14.6625ZM7.5 15.9702L8.99876 14.6459L5.5 10.6862V15.9702H7.5ZM8.57909 16.9297L7.43754 18.5719L7.43755 18.5719L8.57909 16.9297ZM15.4209 16.9297L16.5625 18.5719L16.5625 18.5719L15.4209 16.9297ZM17.589 14.1858L15.7266 13.4569L15.7266 13.457L17.589 14.1858ZM18 8.02502H16V10.1625H18H20V8.02502H18ZM18 10.1625H16C16 9.47214 16.5596 8.9125 17.25 8.9125V10.9125V12.9125C18.7688 12.9125 20 11.6813 20 10.1625H18ZM17.25 10.9125V8.9125H15.1125V10.9125V12.9125H17.25V10.9125ZM15.1125 10.9125V8.9125C15.8029 8.9125 16.3625 9.47214 16.3625 10.1625H14.3625H12.3625C12.3625 11.6813 13.5937 12.9125 15.1125 12.9125V10.9125ZM14.3625 10.1625H16.3625C16.3625 10.8529 15.8029 11.4125 15.1125 11.4125V9.4125V7.4125C13.5937 7.4125 12.3625 8.64372 12.3625 10.1625H14.3625ZM15.1125 9.4125V11.4125H15.6856V9.4125V7.4125H15.1125V9.4125ZM15.6856 9.4125L17.3258 8.26811C16.1256 6.54787 14.1574 5.5 12 5.5V7.5V9.5C12.8429 9.5 13.5892 9.90315 14.0453 10.5569L15.6856 9.4125ZM12 7.5V5.5C9.31036 5.5 6.92556 7.12729 5.94537 9.63199L7.80783 10.3609L9.67029 11.0897C10.0503 10.1186 10.9566 9.5 12 9.5V7.5ZM7.80783 10.3609L5.94542 9.63187C6.19703 8.98904 6.92208 8.6719 7.56493 8.92348L6.83606 10.7859L6.1072 12.6484C7.52142 13.2018 9.11666 12.5041 9.67024 11.0898L7.80783 10.3609ZM6.83606 10.7859L7.56495 8.92349C8.2078 9.17507 8.52505 9.90019 8.27341 10.5431L6.41098 9.8142L4.54854 9.08527C3.99499 10.4996 4.69286 12.0949 6.10717 12.6484L6.83606 10.7859ZM6.41098 9.8142L8.27343 10.5431C8.56341 9.80211 9.06153 9.17067 9.72064 8.71251L8.57909 7.0703L7.43753 5.42809C6.12981 6.33712 5.1285 7.60332 4.54852 9.08532L6.41098 9.8142ZM8.57909 7.0703L9.72065 8.7125C10.3917 8.24606 11.176 8 12 8V6V4C10.3626 4 8.78106 4.49415 7.43752 5.42809L8.57909 7.0703ZM12 6V8C12.824 8 13.6084 8.24606 14.2794 8.7125L15.4209 7.07027L16.5625 5.42805C15.2189 4.49414 13.6374 4 12 4V6ZM15.4209 7.07027L14.2794 8.71249C14.5487 8.89968 14.7902 9.1152 15.0012 9.35408L16.5 8.0298L17.9988 6.70553C17.5751 6.2261 17.0936 5.79727 16.5625 5.42806L15.4209 7.07027ZM16.5 8.0298H18.5V8.02505H16.5H14.5V8.0298H16.5ZM16.5 8.02505H18.5C18.5 8.71541 17.9404 9.27505 17.25 9.27505V7.27505V5.27505C15.7312 5.27505 14.5 6.50627 14.5 8.02505H16.5ZM17.25 7.27505V9.27505C16.5597 9.27505 16 8.71546 16 8.02502H18H20C20 6.50616 18.7687 5.27505 17.25 5.27505V7.27505ZM17.1639 13.2141L17.893 11.3517C16.4783 10.7979 14.8833 11.4962 14.3298 12.9101L16.1922 13.6392L18.0546 14.3682C17.8031 15.0107 17.0781 15.3283 16.4349 15.0765L17.1639 13.2141ZM16.1922 13.6392L14.3297 12.9103C13.9497 13.8814 13.0435 14.5 12 14.5V16.5V18.5C14.6896 18.5 17.0744 16.8728 18.0546 14.368L16.1922 13.6392ZM12 16.5V14.5C11.1746 14.5 10.4425 14.1135 9.98435 13.4848L8.36789 14.6625L6.75143 15.8402C7.95812 17.4964 9.88878 18.5 12 18.5V16.5ZM8.36789 14.6625V16.6625H8.88748V14.6625V12.6625H8.36789V14.6625ZM8.88748 14.6625V16.6625C10.4063 16.6625 11.6375 15.4313 11.6375 13.9125H9.63748H7.63748C7.63748 13.2221 8.19712 12.6625 8.88748 12.6625V14.6625ZM9.63748 13.9125H11.6375C11.6375 12.3937 10.4063 11.1625 8.88748 11.1625V13.1625V15.1625C8.19712 15.1625 7.63748 14.6029 7.63748 13.9125H9.63748ZM8.88748 13.1625V11.1625H6.75V13.1625V15.1625H8.88748V13.1625ZM6.75 13.1625V11.1625C5.23122 11.1625 4 12.3937 4 13.9125H6H8C8 14.6029 7.44036 15.1625 6.75 15.1625V13.1625ZM6 13.9125H4V16.05H6H8V13.9125H6ZM6 16.05H4C4 17.5688 5.23122 18.8 6.75 18.8V16.8V14.8C7.44036 14.8 8 15.3596 8 16.05H6ZM6.75 16.8V18.8C8.26878 18.8 9.5 17.5688 9.5 16.05H7.5H5.5C5.5 15.3596 6.05964 14.8 6.75 14.8V16.8ZM7.5 16.05H9.5V15.9702H7.5H5.5V16.05H7.5ZM7.5 15.9702L6.00124 17.2945C6.42489 17.774 6.90643 18.2028 7.43754 18.5719L8.57909 16.9297L9.72063 15.2875C9.4513 15.1003 9.2098 14.8848 8.99876 14.6459L7.5 15.9702ZM8.57909 16.9297L7.43755 18.5719C8.78108 19.5059 10.3626 20 12 20V18V16C11.176 16 10.3916 15.7539 9.72062 15.2875L8.57909 16.9297ZM12 18V20C13.6374 20 15.2189 19.5059 16.5625 18.5719L15.4209 16.9297L14.2794 15.2875C13.6084 15.7539 12.824 16 12 16V18ZM15.4209 16.9297L16.5625 18.5719C17.8702 17.6629 18.8715 16.3967 19.4515 14.9147L17.589 14.1858L15.7266 13.457C15.4366 14.1979 14.9385 14.8294 14.2794 15.2875L15.4209 16.9297ZM17.589 14.1858L19.4515 14.9148C20.005 13.5004 19.3071 11.9051 17.8928 11.3516L17.1639 13.2141L16.435 15.0765C15.7922 14.825 15.475 14.0998 15.7266 13.4569L17.589 14.1858Z" fill="white" mask="url(#path-3-inside-1_6685_9270)"/>
</g>
<defs>
<clipPath id="clip0_6685_9270">
<rect width="24" height="24" fill="white"/>
</clipPath>
</defs>
</svg>
