<svg width="24" height="24" viewBox="0 0 24 24" fill="none" xmlns="http://www.w3.org/2000/svg">
<g clip-path="url(#clip0_6685_9274)">
<path d="M14.652 10.879L9.459 16.072C8.861 16.67 8.066 16.999 7.22 16.999H7V16.779C7 15.933 7.329 15.138 7.927 14.54L13.12 9.347L14.652 10.879ZM16.417 6.5C16.128 6.5 15.856 6.612 15.653 6.816L14.535 7.934L16.066 9.465L17.183 8.348C17.593 7.978 17.595 7.198 17.198 6.831C16.979 6.612 16.707 6.5 16.417 6.5ZM24 5V19C24 21.757 21.757 24 19 24H5C2.243 24 0 21.757 0 19V5C0 2.243 2.243 0 5 0H19C21.757 0 24 2.243 24 5ZM19.495 7.582C19.495 6.744 19.163 5.944 18.598 5.403C17.452 4.208 15.384 4.206 14.239 5.403L6.514 13.128C5.538 14.104 5.001 15.401 5.001 16.781V17.48C5.001 18.319 5.683 19.001 6.522 19.001H7.221C8.601 19.001 9.899 18.463 10.874 17.488L18.584 9.778C19.164 9.221 19.497 8.421 19.496 7.583L19.495 7.582Z" fill="#A5DBFF"/>
<rect x="3.08887" y="2.56177" width="17.5862" height="17.5862" fill="#A5DBFF"/>
<g clip-path="url(#clip1_6685_9274)">
<path d="M11.999 7.01941C14.4892 7.04295 16.807 8.27533 18.2207 10.3134L18.3555 10.5135L18.3564 10.5155C19.036 11.5114 19.0779 12.802 18.4834 13.8348L18.3564 14.038L18.3555 14.0399C16.9572 16.1972 14.5697 17.5088 11.999 17.5331C9.50816 17.5085 7.19009 16.2758 5.77734 14.2362L5.64355 14.037L5.64258 14.035L5.51562 13.8319C4.9618 12.8687 4.96189 11.6818 5.51562 10.7186L5.64258 10.5155L5.64355 10.5135C7.04164 8.35646 9.42866 7.04396 11.999 7.01941ZM11.999 8.57898C9.93837 8.59426 8.02679 9.65698 6.92676 11.3993C6.56726 11.9274 6.56689 12.6214 6.9248 13.1503V13.1512C7.95586 14.7865 9.7011 15.8241 11.6143 15.9598L11.999 15.9745H12C14.0619 15.9592 15.9745 14.8955 17.0742 13.1512L17.0732 13.1503C17.4089 12.6545 17.4306 12.0142 17.1357 11.5009L17.0723 11.3993C16.041 9.76586 14.2966 8.72939 12.3848 8.59363L12 8.57898H11.999Z" fill="white" stroke="#A5DBFF" stroke-width="0.2"/>
<path d="M11.9993 14.6223C13.2947 14.6223 14.3448 13.5722 14.3448 12.2769C14.3448 10.9815 13.2947 9.9314 11.9993 9.9314C10.7039 9.9314 9.65381 10.9815 9.65381 12.2769C9.65381 13.5722 10.7039 14.6223 11.9993 14.6223Z" fill="white"/>
</g>
</g>
<defs>
<clipPath id="clip0_6685_9274">
<rect width="24" height="24" fill="white"/>
</clipPath>
<clipPath id="clip1_6685_9274">
<rect width="14" height="14" fill="white" transform="translate(5 6)"/>
</clipPath>
</defs>
</svg>
