<svg width="24" height="24" viewBox="0 0 24 24" fill="none" xmlns="http://www.w3.org/2000/svg">
<path d="M17.3914 5.41721H17.3828C17.2285 4.34578 16.32 3.51436 15.2057 3.51436H14.5114C14.3323 2.99016 13.9941 2.53495 13.5439 2.21226C13.0936 1.88957 12.5539 1.7155 12 1.71436C10.8342 1.71436 9.84853 2.46864 9.48853 3.51436H8.80282C7.68853 3.51436 6.77996 4.34578 6.62568 5.41721H6.60853C5.15139 5.41721 3.95996 6.60864 3.95996 8.06578V19.6372C3.95996 21.0944 5.15139 22.2858 6.60853 22.2858H17.3914C18.8485 22.2858 20.04 21.0944 20.04 19.6372V8.06578C20.04 6.60864 18.8485 5.41721 17.3914 5.41721ZM14.5542 18.0001H9.44568C9.00853 18.0001 8.69139 17.5886 8.80282 17.1686C8.98624 16.4602 9.39976 15.8328 9.97844 15.3848C10.5571 14.9369 11.2682 14.6939 12 14.6939C12.7317 14.6939 13.4428 14.9369 14.0215 15.3848C14.6002 15.8328 15.0137 16.4602 15.1971 17.1686C15.3085 17.5886 14.9914 18.0001 14.5542 18.0001ZM10.3457 12.1886C10.3595 11.7591 10.5399 11.3518 10.8486 11.0529C11.1573 10.7539 11.5702 10.5868 12 10.5868C12.4297 10.5868 12.8426 10.7539 13.1513 11.0529C13.4601 11.3518 13.6404 11.7591 13.6542 12.1886C13.6542 13.0972 12.9085 13.8344 12 13.8344C11.0828 13.8344 10.3457 13.0972 10.3457 12.1886ZM15.6942 6.61721C15.6942 6.88293 15.4714 7.10578 15.2057 7.10578H8.80282C8.5371 7.10578 8.31425 6.88293 8.31425 6.61721V5.71721C8.31425 5.44293 8.5371 5.22864 8.80282 5.22864H10.2C10.68 5.22864 11.0571 4.84293 11.0571 4.3715C11.0571 3.84864 11.4857 3.42864 12 3.42864C12.5142 3.42864 12.9342 3.84864 12.9342 4.3715C12.9342 4.84293 13.32 5.22864 13.7914 5.22864H15.2057C15.4714 5.22864 15.6942 5.44293 15.6942 5.71721V6.61721Z" fill="#BEE5FF"/>
</svg>
