<svg width="512" height="512" viewBox="0 0 512 512" fill="none" xmlns="http://www.w3.org/2000/svg">
<path fill-rule="evenodd" clip-rule="evenodd" d="M115.096 256.6V69.6802C115.096 67.5584 115.939 65.5236 117.439 64.0233C118.939 62.523 120.974 61.6802 123.096 61.6802H303.528L395.096 163.216V290.84C395.096 290.84 395.128 300.56 394.32 315.504L349.272 299.16C346.625 298.201 343.772 297.956 341.001 298.452C338.229 298.948 335.638 300.166 333.488 301.984L309.232 322.488C307.226 324.185 304.833 325.362 302.264 325.914C299.695 326.467 297.03 326.378 294.504 325.656L246.712 312L292.864 344.968C295.699 346.993 299.118 348.037 302.6 347.942C306.083 347.847 309.44 346.617 312.16 344.44L335.608 325.68C337.773 323.95 340.351 322.812 343.088 322.376C345.825 321.94 348.628 322.221 351.224 323.192L392.632 338.72C389.456 373.232 382.16 418.488 365.448 446.584C364.728 447.721 363.732 448.658 362.553 449.307C361.374 449.956 360.05 450.296 358.704 450.296C328.088 450.32 146.32 450.32 95.5119 450.32C94.1325 450.319 92.7769 449.96 91.5768 449.28C90.3767 448.6 89.3729 447.621 88.6628 446.438C87.9527 445.256 87.5605 443.909 87.5242 442.53C87.488 441.151 87.8089 439.787 88.4559 438.568C113.28 384.664 115.096 290.84 115.096 290.84V280.352L150.2 267.192C152.794 266.22 155.597 265.938 158.333 266.374C161.069 266.811 163.644 267.95 165.808 269.68L189.264 288.44C191.984 290.617 195.341 291.847 198.823 291.942C202.306 292.037 205.725 290.993 208.56 288.968L254.712 256L206.92 269.656C204.394 270.378 201.728 270.467 199.16 269.914C196.591 269.362 194.198 268.185 192.192 266.488L167.936 245.984C165.786 244.166 163.195 242.948 160.423 242.452C157.652 241.956 154.799 242.201 152.152 243.16L115.096 256.6Z" fill="#CADCF0"/>
<path fill-rule="evenodd" clip-rule="evenodd" d="M388.632 337.224L392.64 338.824C389.464 373.336 382.168 418.632 365.448 446.744C364.728 447.881 363.732 448.818 362.553 449.467C361.374 450.116 360.05 450.456 358.704 450.456C328.088 450.48 146.32 450.48 95.5123 450.48C94.1317 450.479 92.7748 450.121 91.5737 449.44C90.3725 448.76 89.3679 447.78 88.6576 446.596C87.9473 445.412 87.5555 444.065 87.5202 442.685C87.4849 441.304 87.8074 439.939 88.4563 438.72L88.7682 438.032C187.28 442.664 330.336 425.408 349.176 418.032C363.176 412.552 379.72 374.312 388.632 337.224Z" fill="#A4BBDB"/>
<path fill-rule="evenodd" clip-rule="evenodd" d="M395.096 163.216C370.816 153.624 345.096 153.352 318.704 157.432C317.495 157.622 316.259 157.531 315.09 157.166C313.922 156.802 312.854 156.173 311.967 155.33C311.081 154.486 310.401 153.449 309.979 152.3C309.557 151.151 309.406 149.921 309.536 148.704C312.432 119.152 309.512 90.2402 303.528 61.6802C342.232 90.4082 372.8 124.232 395.096 163.216ZM48.6241 190.224L88.6241 237.184C89.3048 237.984 90.1364 238.641 91.0713 239.119C92.0062 239.597 93.0261 239.887 94.0728 239.971C95.1195 240.055 96.1725 239.932 97.1717 239.609C98.1708 239.286 99.0966 238.769 99.8961 238.088C100.696 237.407 101.353 236.576 101.831 235.641C102.309 234.706 102.599 233.686 102.683 232.639C102.767 231.593 102.643 230.54 102.32 229.541C101.997 228.541 101.481 227.616 100.8 226.816L60.8 179.856C60.1311 179.019 59.3008 178.325 58.3584 177.815C57.4161 177.304 56.3808 176.989 55.3141 176.887C54.2474 176.784 53.171 176.897 52.1488 177.219C51.1266 177.541 50.1795 178.064 49.3636 178.759C48.5477 179.454 47.8797 180.305 47.3992 181.263C46.9188 182.221 46.6357 183.266 46.5667 184.335C46.4977 185.404 46.6443 186.477 46.9977 187.488C47.3511 188.5 47.9042 189.43 48.6241 190.224ZM49.056 260.032L77.448 267.64C79.4976 268.19 81.6816 267.903 83.5194 266.842C85.3573 265.781 86.6985 264.034 87.2481 261.984C87.7976 259.935 87.5104 257.751 86.4497 255.913C85.389 254.075 83.6416 252.734 81.5921 252.184L53.2001 244.576C51.1505 244.027 48.9665 244.314 47.1287 245.375C45.2908 246.435 43.9496 248.183 43.4001 250.232C42.8505 252.282 43.1377 254.466 44.1984 256.304C45.2591 258.141 47.0065 259.483 49.056 260.032ZM45.288 325.832L98.7121 294.984C100.535 293.916 101.86 292.17 102.4 290.128C102.94 288.085 102.651 285.912 101.594 284.083C100.538 282.253 98.8009 280.916 96.7622 280.362C94.7234 279.809 92.5485 280.084 90.712 281.128L37.288 311.976C35.4656 313.045 34.1397 314.79 33.5997 316.833C33.0598 318.875 33.3496 321.048 34.4059 322.878C35.4621 324.707 37.1992 326.045 39.2379 326.598C41.2767 327.152 43.4516 326.876 45.288 325.832ZM463.376 409.712L423.376 362.752C421.988 361.181 420.038 360.218 417.946 360.07C415.855 359.922 413.789 360.601 412.193 361.961C410.597 363.321 409.599 365.253 409.413 367.342C409.228 369.43 409.869 371.508 411.2 373.128L451.2 420.088C452.589 421.659 454.538 422.622 456.63 422.77C458.721 422.918 460.787 422.239 462.383 420.879C463.979 419.519 464.977 417.587 465.163 415.499C465.349 413.41 464.707 411.332 463.376 409.712ZM462.944 339.912L434.552 332.304C433.537 332.032 432.479 331.963 431.437 332.1C430.395 332.236 429.391 332.577 428.481 333.103C427.571 333.628 426.773 334.327 426.133 335.161C425.493 335.994 425.024 336.945 424.752 337.96C424.48 338.975 424.41 340.034 424.547 341.075C424.684 342.117 425.025 343.122 425.55 344.032C426.076 344.942 426.775 345.739 427.608 346.379C428.442 347.019 429.393 347.488 430.408 347.76L458.8 355.368C460.85 355.918 463.034 355.631 464.871 354.57C466.709 353.509 468.051 351.762 468.6 349.712C469.15 347.663 468.862 345.479 467.802 343.641C466.741 341.803 464.994 340.462 462.944 339.912ZM466.712 274.112L413.288 304.952C411.466 306.021 410.14 307.766 409.6 309.809C409.06 311.851 409.35 314.024 410.406 315.854C411.462 317.683 413.199 319.021 415.238 319.574C417.277 320.128 419.452 319.852 421.288 318.808L474.712 287.968C476.535 286.9 477.86 285.154 478.4 283.112C478.94 281.069 478.651 278.896 477.594 277.067C476.538 275.237 474.801 273.9 472.762 273.346C470.723 272.793 468.549 273.068 466.712 274.112ZM158.912 135.2L187.2 163.488C188.701 164.988 190.737 165.831 192.859 165.83C194.981 165.829 197.016 164.985 198.516 163.484C200.016 161.983 200.858 159.948 200.858 157.825C200.857 155.703 200.013 153.668 198.512 152.168L170.224 123.888C168.715 122.431 166.694 121.625 164.597 121.643C162.499 121.661 160.493 122.502 159.009 123.986C157.526 125.469 156.685 127.475 156.667 129.573C156.648 131.671 157.455 133.691 158.912 135.2Z" fill="#347BFA"/>
<path fill-rule="evenodd" clip-rule="evenodd" d="M187.2 123.888L158.912 152.168C157.411 153.668 156.567 155.703 156.566 157.825C156.566 159.948 157.408 161.983 158.908 163.484C160.408 164.985 162.443 165.829 164.565 165.83C166.687 165.831 168.723 164.988 170.224 163.488L198.512 135.2C199.969 133.691 200.776 131.671 200.757 129.573C200.739 127.475 199.898 125.469 198.415 123.986C196.931 122.502 194.925 121.661 192.827 121.643C190.73 121.625 188.709 122.431 187.2 123.888ZM246.912 135.2L275.2 163.488C276.701 164.988 278.737 165.831 280.859 165.83C282.981 165.829 285.016 164.985 286.516 163.484C288.016 161.983 288.858 159.948 288.858 157.825C288.857 155.703 288.013 153.668 286.512 152.168L258.224 123.888C256.715 122.431 254.694 121.625 252.597 121.643C250.499 121.661 248.493 122.502 247.009 123.986C245.526 125.469 244.685 127.475 244.667 129.573C244.648 131.671 245.455 133.691 246.912 135.2Z" fill="#347BFA"/>
<path fill-rule="evenodd" clip-rule="evenodd" d="M275.2 123.888L246.912 152.168C245.411 153.668 244.567 155.703 244.566 157.825C244.566 159.948 245.408 161.983 246.908 163.484C248.408 164.985 250.443 165.829 252.565 165.83C254.687 165.831 256.723 164.988 258.224 163.488L286.512 135.2C287.969 133.691 288.776 131.671 288.757 129.573C288.739 127.475 287.898 125.469 286.415 123.986C284.931 122.502 282.925 121.661 280.827 121.643C278.73 121.625 276.709 122.431 275.2 123.888ZM179.504 211.272L190.728 202.864L201.904 211.264C203.289 212.305 204.975 212.867 206.708 212.867C208.441 212.867 210.126 212.305 211.512 211.264L222.712 202.864L233.912 211.264C235.296 212.304 236.981 212.866 238.712 212.866C240.443 212.866 242.128 212.304 243.512 211.264L254.712 202.864L265.912 211.264C266.752 211.895 267.709 212.353 268.727 212.614C269.744 212.875 270.803 212.932 271.843 212.784C272.883 212.635 273.884 212.283 274.788 211.748C275.692 211.213 276.482 210.505 277.112 209.664C277.742 208.824 278.201 207.867 278.462 206.85C278.722 205.832 278.78 204.773 278.632 203.733C278.483 202.693 278.131 201.692 277.596 200.788C277.061 199.884 276.352 199.095 275.512 198.464L259.52 186.464C258.134 185.428 256.45 184.868 254.72 184.868C252.99 184.868 251.306 185.428 249.92 186.464L238.712 194.864L227.512 186.464C226.126 185.428 224.442 184.868 222.712 184.868C220.982 184.868 219.298 185.428 217.912 186.464L206.712 194.864L195.544 186.472C194.161 185.431 192.477 184.868 190.745 184.866C189.014 184.865 187.329 185.426 185.944 186.464L169.92 198.464C168.222 199.736 167.098 201.63 166.795 203.73C166.492 205.83 167.035 207.964 168.304 209.664C170.952 213.192 175.968 213.92 179.504 211.272Z" fill="#347BFA"/>
</svg>
