<svg width="512" height="512" viewBox="0 0 512 512" fill="none" xmlns="http://www.w3.org/2000/svg">
<g clip-path="url(#clip0_4324_2205)">
<path d="M492.512 391.84H19.4881C8.72508 391.84 0 383.115 0 372.352V41.8786C0 31.1156 8.72508 22.3905 19.4881 22.3905H492.512C503.275 22.3905 512 31.1156 512 41.8786V372.352C512 383.115 503.275 391.84 492.512 391.84Z" fill="url(#paint0_linear_4324_2205)"/>
<path d="M512 101.274H0V41.8786C0 31.1156 8.72508 22.3905 19.4881 22.3905H492.512C503.275 22.3905 512 31.1156 512 41.8786V101.274Z" fill="url(#paint1_linear_4324_2205)"/>
<path d="M41.0134 77.6313H30.7443C24.8542 77.6313 20.0796 72.8566 20.0796 66.9666V56.6975C20.0796 50.8075 24.8542 46.0328 30.7443 46.0328H41.0134C46.9034 46.0328 51.678 50.8075 51.678 56.6975V66.9666C51.678 72.8566 46.9034 77.6313 41.0134 77.6313Z" fill="url(#paint2_linear_4324_2205)"/>
<path d="M81.3015 77.6313H71.0314C65.1413 77.6313 60.3667 72.8566 60.3667 66.9666V56.6975C60.3667 50.8075 65.1413 46.0328 71.0314 46.0328H81.3005C87.1905 46.0328 91.9651 50.8075 91.9651 56.6975V66.9666C91.9661 72.8566 87.1915 77.6313 81.3015 77.6313Z" fill="url(#paint3_linear_4324_2205)"/>
<path d="M121.59 77.6313H111.321C105.431 77.6313 100.656 72.8566 100.656 66.9666V56.6975C100.656 50.8075 105.431 46.0328 111.321 46.0328H121.59C127.48 46.0328 132.255 50.8075 132.255 56.6975V66.9666C132.255 72.8566 127.48 77.6313 121.59 77.6313Z" fill="url(#paint4_linear_4324_2205)"/>
<path d="M0 301.979V372.353C0 383.116 8.72508 391.841 19.4881 391.841H492.512C503.275 391.841 512 383.116 512 372.353V301.979H0Z" fill="url(#paint5_linear_4324_2205)"/>
<path d="M166.764 308.891H61.9579C54.6774 308.891 48.7754 302.989 48.7754 295.708V169.006C48.7754 161.726 54.6774 155.824 61.9579 155.824H166.764C174.045 155.824 179.947 161.726 179.947 169.006V295.707C179.948 302.988 174.046 308.891 166.764 308.891ZM287.636 193.973H215.758C213.228 193.973 210.802 192.968 209.014 191.179C207.225 189.391 206.22 186.965 206.22 184.435V165.361C206.22 162.832 207.225 160.406 209.014 158.617C210.802 156.829 213.228 155.824 215.758 155.824H287.636C290.166 155.824 292.592 156.829 294.38 158.617C296.169 160.406 297.174 162.832 297.174 165.361V184.435C297.174 186.965 296.169 189.391 294.38 191.179C292.592 192.968 290.166 193.973 287.636 193.973ZM453.687 193.973H328.197C325.667 193.973 323.242 192.968 321.453 191.179C319.664 189.391 318.66 186.965 318.66 184.435V165.361C318.66 162.832 319.664 160.406 321.453 158.617C323.242 156.829 325.667 155.824 328.197 155.824H453.687C456.217 155.824 458.642 156.829 460.431 158.617C462.22 160.406 463.224 162.832 463.224 165.361V184.435C463.224 186.965 462.22 189.391 460.431 191.179C458.642 192.968 456.217 193.973 453.687 193.973ZM381.808 251.431H453.687C456.217 251.431 458.642 250.426 460.431 248.638C462.22 246.849 463.224 244.423 463.224 241.894V222.819C463.224 220.29 462.22 217.864 460.431 216.076C458.642 214.287 456.217 213.282 453.687 213.282H381.808C379.279 213.282 376.853 214.287 375.064 216.076C373.276 217.864 372.271 220.29 372.271 222.819V241.894C372.271 244.423 373.276 246.849 375.064 248.638C376.853 250.426 379.279 251.431 381.808 251.431ZM215.758 251.431H341.248C343.777 251.431 346.203 250.426 347.992 248.638C349.78 246.849 350.785 244.423 350.785 241.894V222.819C350.785 220.29 349.78 217.864 347.992 216.076C346.203 214.287 343.777 213.282 341.248 213.282H215.758C213.228 213.282 210.802 214.287 209.014 216.076C207.225 217.864 206.22 220.29 206.22 222.819V241.894C206.22 244.423 207.225 246.849 209.014 248.638C210.802 250.426 213.228 251.431 215.758 251.431ZM287.636 308.891H215.758C213.228 308.891 210.802 307.886 209.014 306.097C207.225 304.309 206.22 301.883 206.22 299.353V280.279C206.22 277.749 207.225 275.324 209.014 273.535C210.802 271.746 213.228 270.742 215.758 270.742H287.636C290.166 270.742 292.592 271.746 294.38 273.535C296.169 275.324 297.174 277.749 297.174 280.279V299.353C297.174 301.883 296.169 304.309 294.38 306.097C292.592 307.886 290.166 308.891 287.636 308.891ZM453.687 308.891H328.197C325.667 308.891 323.242 307.886 321.453 306.097C319.664 304.309 318.66 301.883 318.66 299.353V280.279C318.66 277.749 319.664 275.324 321.453 273.535C323.242 271.746 325.667 270.742 328.197 270.742H453.687C456.217 270.742 458.642 271.746 460.431 273.535C462.22 275.324 463.224 277.749 463.224 280.279V299.353C463.224 301.883 462.22 304.309 460.431 306.097C458.642 307.886 456.217 308.891 453.687 308.891Z" fill="#B5DBFF"/>
<path d="M342.143 287.102C320.39 264.51 289.838 252.46 256 252.46C189.958 252.46 138.43 303.988 138.43 370.03C138.43 377.48 139.112 384.769 140.416 391.84H446.882L342.143 287.102Z" fill="url(#paint6_linear_4324_2205)"/>
<path d="M256 489.61C322.042 489.61 375.579 436.072 375.579 370.031C375.579 303.989 322.042 250.451 256 250.451C189.958 250.451 136.421 303.989 136.421 370.031C136.421 436.072 189.958 489.61 256 489.61Z" fill="url(#paint7_linear_4324_2205)"/>
<path d="M290.866 306.749L256 341.615L221.133 306.748C212.069 297.685 200.388 298.69 191.323 307.753C182.259 316.818 183.264 329.503 192.328 338.568L226.191 372.43L192.328 405.287C183.264 414.352 181.255 428.042 190.32 437.105L242.14 488.804C246.689 489.329 251.312 489.609 256 489.609C322.042 489.609 375.579 436.071 375.579 370.029C375.579 366.359 375.405 362.73 375.081 359.144L321.681 305.743C312.616 296.681 299.931 297.686 290.866 306.749Z" fill="url(#paint8_linear_4324_2205)"/>
<path d="M288.823 371.426L321.68 338.569C330.745 329.504 330.745 314.81 321.68 305.745C312.616 296.682 297.922 296.682 288.857 305.745L256 338.603L223.143 305.745C214.078 296.682 199.384 296.682 190.319 305.745C181.255 314.81 181.255 329.504 190.319 338.569L223.177 371.426L190.319 404.283C181.255 413.348 181.255 428.042 190.319 437.106C194.851 441.638 200.791 443.904 206.73 443.904C212.67 443.904 218.61 441.638 223.142 437.106L256 404.249L288.857 437.106C293.389 441.638 299.329 443.904 305.269 443.904C311.21 443.904 317.149 441.638 321.68 437.106C330.745 428.042 330.745 413.348 321.68 404.283L288.823 371.426Z" fill="url(#paint9_linear_4324_2205)"/>
</g>
<defs>
<linearGradient id="paint0_linear_4324_2205" x1="0" y1="22.3905" x2="512" y2="22.3905" gradientUnits="userSpaceOnUse">
<stop stop-color="#EDF5FF"/>
<stop offset="1" stop-color="#D5E8FE"/>
</linearGradient>
<linearGradient id="paint1_linear_4324_2205" x1="252.428" y1="16.6511" x2="260.299" y2="136.965" gradientUnits="userSpaceOnUse">
<stop stop-color="#B5DBFF"/>
<stop offset="1" stop-color="#48B2E3"/>
</linearGradient>
<linearGradient id="paint2_linear_4324_2205" x1="20.0796" y1="46.0328" x2="51.678" y2="46.0328" gradientUnits="userSpaceOnUse">
<stop stop-color="#FF637B"/>
<stop offset="1" stop-color="#E63950"/>
</linearGradient>
<linearGradient id="paint3_linear_4324_2205" x1="72.6557" y1="59.1571" x2="87.0931" y2="70.1571" gradientUnits="userSpaceOnUse">
<stop stop-color="#FFDA2D"/>
<stop offset="1" stop-color="#FDBF00"/>
</linearGradient>
<linearGradient id="paint4_linear_4324_2205" x1="108.783" y1="54.1596" x2="143" y2="88.3763" gradientUnits="userSpaceOnUse">
<stop stop-color="#B9DD39"/>
<stop offset="1" stop-color="#0B799D"/>
</linearGradient>
<linearGradient id="paint5_linear_4324_2205" x1="256" y1="344.83" x2="256" y2="444.213" gradientUnits="userSpaceOnUse">
<stop stop-color="#B5DBFF" stop-opacity="0"/>
<stop offset="0.243" stop-color="#93CEF6" stop-opacity="0.243"/>
<stop offset="0.576" stop-color="#6ABFEC" stop-opacity="0.576"/>
<stop offset="0.84" stop-color="#51B5E5" stop-opacity="0.84"/>
<stop offset="1" stop-color="#48B2E3"/>
</linearGradient>
<linearGradient id="paint6_linear_4324_2205" x1="366.033" y1="464.21" x2="239.355" y2="337.533" gradientUnits="userSpaceOnUse">
<stop stop-color="#B5DBFF" stop-opacity="0"/>
<stop offset="0.173" stop-color="#8FC5E9" stop-opacity="0.173"/>
<stop offset="0.454" stop-color="#56A4C8" stop-opacity="0.454"/>
<stop offset="0.696" stop-color="#2D8DB1" stop-opacity="0.696"/>
<stop offset="0.885" stop-color="#147EA2" stop-opacity="0.885"/>
<stop offset="1" stop-color="#0B799D"/>
</linearGradient>
<linearGradient id="paint7_linear_4324_2205" x1="200.382" y1="314.412" x2="315.64" y2="429.669" gradientUnits="userSpaceOnUse">
<stop stop-color="#FF637B"/>
<stop offset="1" stop-color="#E63950"/>
</linearGradient>
<linearGradient id="paint8_linear_4324_2205" x1="336.114" y1="451.539" x2="250.658" y2="366.083" gradientUnits="userSpaceOnUse">
<stop stop-color="#E63950" stop-opacity="0"/>
<stop offset="0.047" stop-color="#E4354B" stop-opacity="0.047"/>
<stop offset="0.467" stop-color="#D31822" stop-opacity="0.467"/>
<stop offset="0.799" stop-color="#C90709" stop-opacity="0.799"/>
<stop offset="1" stop-color="#C50000"/>
</linearGradient>
<linearGradient id="paint9_linear_4324_2205" x1="183.521" y1="298.948" x2="328.479" y2="298.948" gradientUnits="userSpaceOnUse">
<stop stop-color="#EDF5FF"/>
<stop offset="1" stop-color="#D5E8FE"/>
</linearGradient>
<clipPath id="clip0_4324_2205">
<rect width="512" height="512" fill="white"/>
</clipPath>
</defs>
</svg>
