<svg width="20" height="20" viewBox="0 0 20 20" fill="none" xmlns="http://www.w3.org/2000/svg">
<path d="M16.9635 6.00655C16.9134 5.91855 16.845 5.84145 16.7633 5.78109C15.5638 4.89382 11.5311 2 10.0004 2C8.46972 2 4.43554 4.89382 3.23602 5.78109C3.15434 5.84145 3.0859 5.91855 3.03586 6.00655C2.9895 6.08727 1.90479 8.03418 1.90479 11.8182C1.90479 14.0916 2.64657 16.3185 2.67821 16.4116C2.74444 16.6087 2.8931 16.768 3.08664 16.8502C3.19776 16.8975 5.84846 18 9.99965 18C14.1509 18 16.8016 16.8975 16.9127 16.8502C17.1062 16.7687 17.2549 16.6087 17.3211 16.4116C17.3527 16.3178 18.0953 14.0916 18.0953 11.8182C18.0953 8.03418 17.0098 6.088 16.9642 6.00655H16.9635ZM13.8432 12.4524C13.7299 12.6015 13.5621 12.7011 13.3767 12.7316C13.3524 12.736 12.8895 12.8102 12.1654 12.8676C12.1087 13.584 12.0322 14.0407 12.0278 14.0647C11.9969 14.2465 11.8968 14.4109 11.7489 14.5229C11.6723 14.5811 10.9681 15.0909 9.99965 15.0909C9.03857 15.0909 8.33138 14.5833 8.25337 14.5258C8.10251 14.4138 8.00169 14.2487 7.97079 14.0647C7.96637 14.0407 7.89131 13.5833 7.83317 12.8676C7.10831 12.8109 6.64617 12.736 6.62189 12.7316C6.43791 12.7011 6.2716 12.6029 6.15827 12.456C6.0994 12.3804 5.58354 11.6851 5.58354 10.7273C5.58354 9.77745 6.09719 9.07855 6.15533 9.00145C6.26866 8.85236 6.4357 8.75273 6.62189 8.72218C6.64617 8.71782 7.10905 8.64364 7.83317 8.58618C7.89057 7.86982 7.96637 7.41309 7.97079 7.38909C8.00169 7.20727 8.10104 7.04291 8.24969 6.93091C8.32622 6.87273 9.02974 6.36291 9.99892 6.36291C10.9607 6.36291 11.6679 6.87055 11.7452 6.928C11.8953 7.04073 11.9961 7.20509 12.0271 7.38909C12.0315 7.41309 12.1073 7.87055 12.1647 8.58618C12.8895 8.64291 13.3517 8.71782 13.376 8.72218C13.5607 8.75273 13.727 8.85091 13.8403 8.99782C13.8992 9.07345 14.4143 9.76873 14.4143 10.7265C14.4143 11.6764 13.9021 12.3753 13.8432 12.4524Z" fill="#0099FF"/>
<path d="M11.6276 9.62412C11.1976 9.60312 10.8542 9.24175 10.8342 8.79025C10.8034 8.09637 10.7476 7.52675 10.7051 7.1715C10.5276 7.0875 10.2767 7 10.0001 7C9.72175 7 9.47175 7.08662 9.29425 7.17062C9.25258 7.525 9.19675 8.09462 9.16591 8.79025C9.14591 9.24175 8.80175 9.60312 8.37175 9.62412C7.71091 9.6565 7.16841 9.71512 6.83008 9.75887C6.75008 9.94525 6.66675 10.2086 6.66675 10.5C6.66675 10.7922 6.74925 11.0547 6.82925 11.2411C7.16675 11.2849 7.70925 11.3435 8.37175 11.3759C8.80175 11.3969 9.14591 11.7583 9.16591 12.2098C9.19675 12.9036 9.25258 13.4733 9.29425 13.8285C9.47175 13.9125 9.72258 14 10.0001 14C10.2776 14 10.5284 13.9125 10.7051 13.8285C10.7467 13.4741 10.8034 12.9045 10.8342 12.2089C10.8542 11.7574 11.1984 11.396 11.6276 11.375C12.2892 11.3426 12.8309 11.284 13.1701 11.2402C13.2509 11.0539 13.3334 10.7905 13.3334 10.4991C13.3334 10.2069 13.2509 9.94438 13.1709 9.758C12.8334 9.71425 12.2909 9.6565 11.6276 9.62412Z" fill="#0099FF"/>
</svg>
