<svg width="25" height="24" viewBox="0 0 25 24" fill="none" xmlns="http://www.w3.org/2000/svg">
<rect x="0.339844" width="24" height="24" rx="4" fill="#E4F4FF"/>
<path d="M17.2472 9.94502H15.686V5.0356C15.686 4.49556 15.2442 4.05371 14.7041 4.05371H10.7766C10.2366 4.05371 9.79473 4.49556 9.79473 5.0356V9.94502H8.23353C7.35965 9.94502 6.9178 11.0055 7.53639 11.624L12.0432 16.1309C12.4262 16.5138 13.0448 16.5138 13.4277 16.1309L17.9345 11.624C18.5531 11.0055 18.1211 9.94502 17.2472 9.94502ZM5.86719 19.7639C5.86719 20.3039 6.30904 20.7457 6.84907 20.7457H18.6317C19.1717 20.7457 19.6136 20.3039 19.6136 19.7639C19.6136 19.2238 19.1717 18.782 18.6317 18.782H6.84907C6.30904 18.782 5.86719 19.2238 5.86719 19.7639Z" fill="#0099FF"/>
</svg>
