<svg width="14" height="14" viewBox="0 0 14 14" fill="none" xmlns="http://www.w3.org/2000/svg">
<path fill-rule="evenodd" clip-rule="evenodd" d="M13.3731 1.75131C13.2534 1.44833 13.078 1.1705 12.8558 0.932221C12.6374 0.699192 12.3741 0.512773 12.0817 0.384186C11.7937 0.257695 11.4825 0.192383 11.1679 0.192383C10.8533 0.192383 10.5422 0.257695 10.2541 0.384186C9.96176 0.512773 9.69844 0.699192 9.48001 0.932221L8.83373 1.61638L12.2095 5.19104L12.8558 4.5057C13.0803 4.26923 13.256 3.99092 13.3731 3.6866C13.6169 3.06455 13.6169 2.37337 13.3731 1.75131ZM10.537 6.96298L7.16004 3.38714L1.50568 9.37646C1.42226 9.46535 1.36599 9.57624 1.34352 9.69605L0.70908 13.0577C0.626224 13.4956 0.991975 13.8815 1.40507 13.7939L4.57965 13.1228C4.69516 13.097 4.8003 13.0372 4.88149 12.9511L10.537 6.96298Z" fill="white"/>
</svg>
