<svg width="20" height="20" viewBox="0 0 20 20" fill="none" xmlns="http://www.w3.org/2000/svg">
<path fill-rule="evenodd" clip-rule="evenodd" d="M4.4 16C3.76348 16 3.15303 15.7629 2.70294 15.341C2.25286 14.919 2 14.3467 2 13.75V6.25C2 5.65326 2.25286 5.08097 2.70294 4.65901C3.15303 4.23705 3.76348 4 4.4 4H15.6C16.2365 4 16.847 4.23705 17.2971 4.65901C17.7471 5.08097 18 5.65326 18 6.25V13.75C18 14.3467 17.7471 14.919 17.2971 15.341C16.847 15.7629 16.2365 16 15.6 16H4.4ZM6.5 7.165C6.41851 7.09976 6.32387 7.05054 6.22169 7.02025C6.11952 6.98996 6.01189 6.97923 5.90521 6.98869C5.79852 6.99814 5.69495 7.02759 5.60064 7.0753C5.50634 7.123 5.42321 7.18798 5.3562 7.26638C5.28919 7.34478 5.23967 7.435 5.21057 7.53168C5.18147 7.62837 5.17338 7.72955 5.1868 7.82923C5.20021 7.9289 5.23484 8.02503 5.28865 8.11191C5.34245 8.1988 5.41432 8.27466 5.5 8.335L8.5 10.5858C8.92567 10.9053 9.45471 11.0793 10 11.0793C10.5453 11.0793 11.0743 10.9053 11.5 10.5858L14.5 8.33575C14.5821 8.27419 14.6504 8.19809 14.701 8.11178C14.7517 8.02547 14.7838 7.93065 14.7954 7.83273C14.8069 7.73481 14.7978 7.63571 14.7686 7.54109C14.7393 7.44646 14.6905 7.35817 14.6248 7.28125C14.5591 7.20433 14.478 7.14028 14.3859 7.09277C14.2938 7.04526 14.1927 7.01522 14.0882 7.00436C13.9838 6.99349 13.8781 7.00202 13.7772 7.02945C13.6762 7.05689 13.5821 7.10269 13.5 7.16425L10.5 9.41425C10.3581 9.52075 10.1818 9.57878 10 9.57878C9.81824 9.57878 9.64189 9.52075 9.5 9.41425L6.5 7.165Z" fill="#0099FF"/>
</svg>
