<svg width="20" height="15" viewBox="0 0 20 15" fill="none" xmlns="http://www.w3.org/2000/svg">
<path d="M16.3952 13.3953L3.60379 0.604268L3.60106 0.601143C3.53181 0.532456 3.4497 0.478081 3.35944 0.441124C3.26917 0.404166 3.17251 0.385349 3.07497 0.385748C2.97744 0.386147 2.88093 0.405754 2.79097 0.443449C2.70101 0.481144 2.61936 0.536188 2.55067 0.60544C2.48198 0.674692 2.42761 0.756794 2.39065 0.84706C2.35369 0.937326 2.33488 1.03399 2.33527 1.13153C2.33608 1.32851 2.41511 1.51711 2.55497 1.65583L3.67489 2.77575C2.31673 3.70593 1.14769 4.88571 0.229965 6.25232C0.0801019 6.47358 0 6.73468 0 7.00192C0 7.26916 0.0801019 7.53027 0.229965 7.75153C2.57254 11.2187 6.28622 13.25 9.99989 13.2246C11.2028 13.2289 12.3977 13.0287 13.5335 12.6324L15.3464 14.4453C15.4861 14.5805 15.6732 14.6554 15.8675 14.6541C16.0619 14.6528 16.248 14.5753 16.3858 14.4382C16.5237 14.3011 16.6022 14.1155 16.6046 13.9211C16.607 13.7268 16.5331 13.5392 16.3987 13.3988L16.3952 13.3953ZM9.99989 11.2086C9.29629 11.2083 8.60398 11.0317 7.98622 10.6949C7.36846 10.3582 6.84496 9.87192 6.46355 9.28067C6.08214 8.68942 5.85499 8.01202 5.80286 7.31036C5.75073 6.60869 5.87528 5.90515 6.16512 5.26403L7.33504 6.43396C7.24081 6.87802 7.25902 7.33858 7.38802 7.77382C7.51702 8.20905 7.75272 8.60516 8.07371 8.92615C8.3947 9.24714 8.79081 9.48284 9.22604 9.61184C9.66127 9.74084 10.1218 9.75905 10.5659 9.66481L11.7358 10.8347C11.1905 11.082 10.5986 11.2095 9.99989 11.2086ZM19.7698 6.25036C17.4272 2.78122 13.7136 0.749971 9.99989 0.775362C8.79697 0.771005 7.60207 0.971255 6.46629 1.36755L8.26317 3.16442C9.04289 2.81157 9.91163 2.70472 10.7536 2.85812C11.5956 3.01152 12.3708 3.41789 12.976 4.02306C13.5812 4.62824 13.9876 5.40348 14.141 6.24546C14.2944 7.08745 14.1875 7.95619 13.8347 8.73591L16.3245 11.2258C17.6829 10.2957 18.8521 9.11592 19.7698 7.74919C19.9196 7.52797 19.9996 7.26693 19.9996 6.99978C19.9996 6.73262 19.9196 6.47159 19.7698 6.25036Z" fill="#0099FF"/>
<path d="M9.99985 4.27576C9.80963 4.27578 9.61993 4.29568 9.43384 4.33513L12.6647 7.5656C12.7489 7.16869 12.7435 6.75797 12.6487 6.36345C12.5538 5.96892 12.3721 5.60056 12.1167 5.28527C11.8613 4.96997 11.5387 4.71571 11.1725 4.54105C10.8062 4.3664 10.4056 4.27576 9.99985 4.27576Z" fill="#0099FF"/>
</svg>
