<svg width="20" height="20" viewBox="0 0 20 20" fill="none" xmlns="http://www.w3.org/2000/svg">
<path d="M9.99994 13.0808C11.7004 13.0808 13.079 11.7023 13.079 10.0018C13.079 8.30126 11.7004 6.92273 9.99994 6.92273C8.29943 6.92273 6.9209 8.30126 6.9209 10.0018C6.9209 11.7023 8.29943 13.0808 9.99994 13.0808Z" fill="#0099FF"/>
<path d="M19.6932 9.14885C17.3265 6.28881 13.7438 3.53577 10 3.53577C6.25555 3.53577 2.67205 6.29073 0.306845 9.14885C-0.102282 9.64304 -0.102282 10.3605 0.306845 10.8546C0.901484 11.5732 2.14811 12.9603 3.8131 14.1723C8.00632 17.2249 11.9845 17.2316 16.187 14.1723C17.852 12.9603 19.0986 11.5732 19.6932 10.8546C20.1012 10.3614 20.1033 9.64465 19.6932 9.14885ZM10 5.69109C12.3771 5.69109 14.3107 7.62473 14.3107 10.0017C14.3107 12.3788 12.3771 14.3124 10 14.3124C7.62302 14.3124 5.68939 12.3788 5.68939 10.0017C5.68939 7.62473 7.62302 5.69109 10 5.69109Z" fill="#0099FF"/>
</svg>
