<svg width="22" height="23" viewBox="0 0 22 23" fill="none" xmlns="http://www.w3.org/2000/svg">
<path fill-rule="evenodd" clip-rule="evenodd" d="M6.41671 20.6666C5.20113 20.6666 4.03534 20.1837 3.1758 19.3242C2.31626 18.4647 1.83337 17.2989 1.83337 16.0833V13.3333C1.83337 13.0902 1.92995 12.857 2.10186 12.6851C2.27377 12.5132 2.50693 12.4166 2.75004 12.4166C2.99316 12.4166 3.22631 12.5132 3.39822 12.6851C3.57013 12.857 3.66671 13.0902 3.66671 13.3333V16.0833C3.66671 16.8126 3.95644 17.5121 4.47216 18.0278C4.98789 18.5436 5.68736 18.8333 6.41671 18.8333H15.5834C16.3127 18.8333 17.0122 18.5436 17.5279 18.0278C18.0436 17.5121 18.3334 16.8126 18.3334 16.0833V13.3333C18.3334 13.0902 18.43 12.857 18.6019 12.6851C18.7738 12.5132 19.0069 12.4166 19.25 12.4166C19.4932 12.4166 19.7263 12.5132 19.8982 12.6851C20.0701 12.857 20.1667 13.0902 20.1667 13.3333V16.0833C20.1667 17.2989 19.6838 18.4647 18.8243 19.3242C17.9647 20.1837 16.799 20.6666 15.5834 20.6666H6.41671Z" fill="#898989"/>
<path fill-rule="evenodd" clip-rule="evenodd" d="M6.67798 9.7583C6.5937 9.67221 6.52723 9.57035 6.48235 9.45854C6.43748 9.34674 6.41508 9.22719 6.41644 9.10672C6.4178 8.98625 6.4429 8.86724 6.49029 8.75648C6.53768 8.64572 6.60645 8.54539 6.69264 8.46122L10.8176 4.42789C10.9889 4.26048 11.2189 4.16675 11.4584 4.16675C11.6979 4.16675 11.9279 4.26048 12.0991 4.42789L16.2241 8.46122C16.3121 8.54493 16.3825 8.64527 16.4313 8.75642C16.4801 8.86756 16.5064 8.9873 16.5086 9.10867C16.5107 9.23005 16.4888 9.35065 16.444 9.46347C16.3992 9.57629 16.3324 9.67909 16.2475 9.76589C16.1627 9.8527 16.0614 9.92178 15.9496 9.96914C15.8378 10.0165 15.7178 10.0412 15.5964 10.0417C15.475 10.0423 15.3547 10.0188 15.2425 9.97248C15.1302 9.92618 15.0283 9.85805 14.9426 9.77205L12.3751 7.2613V15.1666C12.3751 15.4098 12.2785 15.6429 12.1066 15.8148C11.9347 15.9867 11.7015 16.0833 11.4584 16.0833C11.2153 16.0833 10.9821 15.9867 10.8102 15.8148C10.6383 15.6429 10.5417 15.4098 10.5417 15.1666V7.2613L7.97506 9.77205C7.88897 9.85633 7.78711 9.9228 7.6753 9.96768C7.5635 10.0126 7.44395 10.035 7.32348 10.0336C7.20301 10.0322 7.084 10.0071 6.97324 9.95974C6.86248 9.91235 6.76214 9.84358 6.67798 9.75739V9.7583Z" fill="#898989"/>
</svg>
