<svg width="24" height="24" viewBox="0 0 24 24" fill="none" xmlns="http://www.w3.org/2000/svg">
<g clip-path="url(#clip0_8191_4764)">
<path d="M19.0063 6.52148H11.3779L10.2314 20.3272C10.4329 20.4279 10.6496 20.5 10.8876 20.5H19.0063C19.8302 20.5 20.5004 19.8298 20.5004 19.0059V8.01562C20.5004 7.19172 19.8302 6.52148 19.0063 6.52148Z" fill="#DAE2F2"/>
<path d="M9.13965 17.0422L9.40424 19.1912C9.45737 19.618 9.74624 20.0851 10.2305 20.3272C11.199 19.2855 10.5498 19.9507 12.8479 17.4785L9.13965 17.0422Z" fill="#0099FF"/>
<path d="M12.8484 17.4785C13.0113 17.2923 13.1542 17.1673 13.1158 16.9109L11.607 4.80883C11.5141 4.06273 10.8765 3.5 10.1246 3.5H4.99414C4.17024 3.5 3.5 4.17024 3.5 4.99414V15.9844C3.5 16.8083 4.17024 17.4785 4.99414 17.4785H12.8484Z" fill="#0099FF"/>
<path d="M9.00204 7.41983C8.95535 7.18734 8.75106 7.01953 8.51372 7.01953H7.51763C7.28029 7.01953 7.07599 7.18734 7.02931 7.41983L6.03321 12.4003C5.97923 12.6702 6.15431 12.9324 6.42378 12.9864C6.69665 13.0423 6.95636 12.8653 7.00985 12.5958L7.32817 11.0039H8.70314L9.02146 12.5958C9.07595 12.8693 9.34343 13.0407 9.60753 12.9864C9.87697 12.9324 10.0521 12.6702 9.9981 12.4003L9.00204 7.41983ZM7.52735 10.0078L7.92569 8.01562H8.10565L8.50399 10.0078H7.52735Z" fill="#E6EEFF"/>
<path d="M17.9766 11.0039H16.4824V10.5059C16.4824 10.2306 16.2597 10.0078 15.9844 10.0078C15.7091 10.0078 15.4863 10.2306 15.4863 10.5059V11.0039H13.9922C13.7169 11.0039 13.4941 11.2267 13.4941 11.502C13.4941 11.7772 13.7169 12 13.9922 12H14.1252C14.4086 12.9092 14.8248 13.6206 15.2918 14.1815C14.926 14.516 14.5679 14.7904 14.1789 15.0977C13.9645 15.2694 13.9294 15.5826 14.1016 15.7976C14.273 16.0123 14.5875 16.0471 14.8015 15.8749C15.2242 15.5413 15.5877 15.2621 15.9844 14.8981C16.3811 15.2622 16.7446 15.5414 17.1672 15.8749C17.3813 16.0471 17.6957 16.0123 17.8671 15.7976C18.0393 15.5826 18.0043 15.2694 17.7898 15.0977C17.4008 14.7904 17.0428 14.516 16.6769 14.1815C17.1439 13.6207 17.5602 12.9092 17.8435 12H17.9766C18.2518 12 18.4746 11.7772 18.4746 11.502C18.4746 11.2267 18.2518 11.0039 17.9766 11.0039ZM15.9844 13.4432C15.6678 13.0453 15.3818 12.5777 15.1667 12H16.802C16.587 12.5777 16.3009 13.0453 15.9844 13.4432Z" fill="#53565C"/>
</g>
<defs>
<clipPath id="clip0_8191_4764">
<rect width="17" height="17" fill="white" transform="translate(3.5 3.5)"/>
</clipPath>
</defs>
</svg>
