<svg width="25" height="25" viewBox="0 0 25 25" fill="none" xmlns="http://www.w3.org/2000/svg">
<path fill-rule="evenodd" clip-rule="evenodd" d="M9.18972 3.67578C9.48225 3.67578 9.7628 3.79179 9.96965 3.99829C10.1765 4.20479 10.2927 4.48487 10.2927 4.77691V5.87803H13.6017C13.8942 5.87803 14.1747 5.99404 14.3816 6.20054C14.5884 6.40705 14.7046 6.68712 14.7046 6.97916C14.7046 7.27119 14.5884 7.55127 14.3816 7.75777C14.1747 7.96427 13.8942 8.08028 13.6017 8.08028H12.0332C11.64 9.91231 11.0003 11.6828 10.1317 13.3437C10.4515 13.7335 10.789 14.11 11.1398 14.4734C11.343 14.6837 11.4541 14.9659 11.4489 15.258C11.4436 15.5501 11.3223 15.8281 11.1117 16.031C10.901 16.2338 10.6183 16.3448 10.3258 16.3395C10.0332 16.3342 9.75466 16.2131 9.5515 16.0029C9.34355 15.7866 9.13983 15.5664 8.94045 15.3422C7.96561 16.7882 6.81446 18.1075 5.51348 19.2699C5.29506 19.4615 5.0097 19.5593 4.71947 19.5419C4.42923 19.5246 4.15759 19.3935 3.96365 19.1772C3.76971 18.961 3.66914 18.677 3.68383 18.3871C3.69852 18.0972 3.82728 17.8249 4.0421 17.6292C5.38359 16.4307 6.54618 15.0465 7.49444 13.5187C6.87834 12.6465 6.33002 11.7284 5.8543 10.7725C5.78449 10.6426 5.74154 10.5 5.728 10.3531C5.71445 10.2063 5.73059 10.0582 5.77545 9.91773C5.82031 9.77724 5.89297 9.64717 5.98914 9.53524C6.08531 9.42332 6.20301 9.33182 6.33527 9.26617C6.46753 9.20052 6.61166 9.16206 6.75909 9.15307C6.90652 9.14408 7.05426 9.16474 7.19354 9.21383C7.33282 9.26292 7.46081 9.33944 7.5699 9.43885C7.679 9.53826 7.76699 9.65853 7.82864 9.79253C8.08674 10.3101 8.368 10.8144 8.67132 11.3033C9.13126 10.2748 9.50076 9.19682 9.77099 8.08028H4.77779C4.48526 8.08028 4.20471 7.96427 3.99786 7.75777C3.79101 7.55127 3.6748 7.27119 3.6748 6.97916C3.6748 6.68712 3.79101 6.40705 3.99786 6.20054C4.20471 5.99404 4.48526 5.87803 4.77779 5.87803H8.08674V4.77691C8.08674 4.48487 8.20294 4.20479 8.40979 3.99829C8.61664 3.79179 8.89719 3.67578 9.18972 3.67578ZM15.8076 10.2825C16.0124 10.2826 16.2131 10.3397 16.3873 10.4472C16.5614 10.5548 16.7021 10.7086 16.7937 10.8915L20.0927 17.4784C20.1004 17.4918 20.1077 17.5054 20.1148 17.5191L21.2067 19.6994C21.3376 19.9607 21.3592 20.2633 21.2666 20.5405C21.174 20.8178 20.975 21.0469 20.7131 21.1776C20.4513 21.3083 20.1482 21.3298 19.8705 21.2374C19.5928 21.145 19.3633 20.9462 19.2324 20.6849L18.436 19.0915H13.1814L12.3829 20.6849C12.3209 20.8187 12.2327 20.9388 12.1233 21.038C12.014 21.1372 11.8859 21.2134 11.7465 21.2622C11.6071 21.311 11.4593 21.3313 11.3119 21.322C11.1644 21.3127 11.0204 21.2739 10.8883 21.208C10.7562 21.142 10.6387 21.0503 10.5427 20.9381C10.4468 20.826 10.3744 20.6957 10.3299 20.5551C10.2854 20.4145 10.2696 20.2664 10.2834 20.1196C10.2973 19.9728 10.3406 19.8303 10.4107 19.7005L11.5027 17.5202L11.5236 17.4784L14.8216 10.8915C14.9131 10.7086 15.0538 10.5548 15.228 10.4472C15.4021 10.3397 15.6028 10.2826 15.8076 10.2825ZM14.2833 16.8893H17.3319L15.8076 13.8458L14.2833 16.8893Z" fill="#484848"/>
</svg>
