<svg width="25" height="24" viewBox="0 0 25 24" fill="none" xmlns="http://www.w3.org/2000/svg">
<rect x="0.339844" width="24" height="24" rx="4" fill="#E4F4FF"/>
<path d="M12 16.3037C12.415 16.3037 12.8131 16.1388 13.1066 15.8453C13.4001 15.5519 13.5649 15.1538 13.5649 14.7388C13.5649 14.3237 13.4001 13.9257 13.1066 13.6322C12.8131 13.3387 12.415 13.1738 12 13.1738C11.585 13.1738 11.1869 13.3387 10.8934 13.6322C10.5999 13.9257 10.4351 14.3237 10.4351 14.7388C10.4351 15.1538 10.5999 15.5519 10.8934 15.8453C11.1869 16.1388 11.585 16.3037 12 16.3037ZM16.6948 9.26147C17.1099 9.26147 17.5079 9.42635 17.8014 9.71984C18.0949 10.0133 18.2598 10.4114 18.2598 10.8264V18.6511C18.2598 19.0662 18.0949 19.4642 17.8014 19.7577C17.5079 20.0512 17.1099 20.2161 16.6948 20.2161H7.30518C6.89013 20.2161 6.49208 20.0512 6.1986 19.7577C5.90511 19.4642 5.74023 19.0662 5.74023 18.6511V10.8264C5.74023 10.4114 5.90511 10.0133 6.1986 9.71984C6.49208 9.42635 6.89013 9.26147 7.30518 9.26147H8.08765V7.69653C8.08765 6.65891 8.49984 5.66379 9.23355 4.93008C9.96726 4.19637 10.9624 3.78418 12 3.78418C12.5138 3.78418 13.0225 3.88538 13.4972 4.08199C13.9719 4.2786 14.4032 4.56679 14.7665 4.93008C15.1297 5.29338 15.4179 5.72467 15.6145 6.19934C15.8112 6.67401 15.9124 7.18276 15.9124 7.69653V9.26147H16.6948ZM12 5.34912C11.3774 5.34912 10.7804 5.59644 10.3401 6.03666C9.8999 6.47689 9.65259 7.07396 9.65259 7.69653V9.26147H14.3474V7.69653C14.3474 7.07396 14.1001 6.47689 13.6599 6.03666C13.2196 5.59644 12.6226 5.34912 12 5.34912Z" fill="#0099FF"/>
</svg>
