<svg width="20" height="20" viewBox="0 0 20 20" fill="none" xmlns="http://www.w3.org/2000/svg">
<path fill-rule="evenodd" clip-rule="evenodd" d="M12.6972 16.25C12.3761 16.5919 12.0444 16.9238 11.7026 17.245L11.6959 17.2513C11.2343 17.6779 10.6288 17.9149 10.0002 17.915C9.37154 17.9151 8.76598 17.6782 8.30424 17.2517L8.29716 17.2454C7.95557 16.9238 7.62389 16.5919 7.30258 16.25H5.09841C5.02103 16.2499 4.94517 16.2715 4.87936 16.3122C4.81356 16.3529 4.76041 16.4112 4.72591 16.4804L3.89258 18.1471C3.86084 18.2106 3.84586 18.2812 3.84905 18.3521C3.85225 18.423 3.87351 18.4919 3.91083 18.5523C3.94815 18.6127 4.00028 18.6626 4.06227 18.6972C4.12427 18.7318 4.19408 18.75 4.26508 18.75H15.7351C15.8061 18.75 15.8759 18.7318 15.9379 18.6972C15.9999 18.6626 16.052 18.6127 16.0893 18.5523C16.1266 18.4919 16.1479 18.423 16.1511 18.3521C16.1543 18.2812 16.1393 18.2106 16.1076 18.1471L15.2742 16.4804C15.2397 16.4112 15.1866 16.3529 15.1208 16.3122C15.055 16.2715 14.9791 16.2499 14.9017 16.25H12.6972Z" fill="#0099FF"/>
<path fill-rule="evenodd" clip-rule="evenodd" d="M10 1.25C13.4496 1.25 16.25 4.05042 16.25 7.5C16.25 11.3333 12.8025 15.0713 11.1325 16.6371L11.1304 16.6392C10.8227 16.9237 10.4191 17.0817 10.0001 17.0818C9.58104 17.0819 9.17737 16.924 8.86958 16.6396L8.8675 16.6375C7.1975 15.0713 3.75 11.3333 3.75 7.5C3.75 4.05042 6.55042 1.25 10 1.25ZM10 5.41667C8.85 5.41667 7.91667 6.35 7.91667 7.5C7.91667 8.65 8.85 9.58333 10 9.58333C11.15 9.58333 12.0833 8.65 12.0833 7.5C12.0833 6.35 11.15 5.41667 10 5.41667Z" fill="#0099FF"/>
</svg>
