<svg width="29" height="29" viewBox="0 0 29 29" fill="none" xmlns="http://www.w3.org/2000/svg">
<g clip-path="url(#clip0_2353_3681)">
<path d="M19.7829 15.6028C19.5087 15.5802 19.2368 15.6674 19.0267 15.845C18.8167 16.0227 18.6856 16.2764 18.6624 16.5505C18.5705 17.6345 18.4568 18.5773 18.3572 19.0727V19.0787C18.0636 20.5936 16.6286 22.0909 15.1569 22.4202C15.0295 22.4464 14.9015 22.4716 14.7741 22.4956C14.8835 21.0885 14.965 19.2893 14.954 17.9019C14.9704 15.7822 14.7675 12.5184 14.5876 11.2196C14.2644 8.82812 12.7939 6.17578 11.1669 5.04867L11.1571 5.04211C10.0259 4.27791 8.81354 3.64129 7.54223 3.1439C7.31546 3.05604 7.09142 2.97401 6.87012 2.89781C8.07696 2.71122 9.2966 2.61979 10.5178 2.62437C12.1803 2.62437 13.6979 2.77586 15.1569 3.07883C16.6286 3.40695 18.0636 4.90539 18.3572 6.42023V6.42625C18.4562 6.91844 18.57 7.86125 18.6618 8.94187C18.6852 9.21651 18.8167 9.47062 19.0274 9.6483C19.2381 9.82598 19.5108 9.91269 19.7854 9.88933C20.06 9.86598 20.3141 9.73449 20.4918 9.52378C20.6695 9.31308 20.7562 9.04041 20.7329 8.76578C20.6333 7.59601 20.5108 6.59578 20.396 6.02047C19.9426 3.69023 17.8804 1.5525 15.5988 1.04719L15.5857 1.04445C13.9822 0.711952 12.3252 0.548983 10.5139 0.545702C8.7027 0.54242 7.05223 0.709764 5.44879 1.045L5.43512 1.04773C4.41684 1.27359 3.44285 1.82484 2.63566 2.57242C2.41751 2.73692 2.22684 2.93498 2.07074 3.15922C1.35762 3.99156 0.839727 4.98742 0.638476 6.02047C0.386367 7.2843 0.101445 10.5617 0.12332 12.7492C0.111289 13.9228 0.187305 15.4103 0.299961 16.7321C0.360117 17.5798 0.428476 18.318 0.494101 18.7916C0.817305 21.1831 2.28785 23.8355 3.91535 24.9626L3.92465 24.9691C5.05612 25.7332 6.26862 26.3698 7.54004 26.8673C8.82738 27.3672 10.0086 27.6702 11.1521 27.7937H11.162C12.6987 27.931 14.0954 26.5972 14.5182 24.647C14.8758 24.5902 15.2304 24.5254 15.5818 24.4529L15.595 24.4502C17.8771 23.9448 19.9388 21.8071 20.3921 19.4769C20.507 18.9005 20.63 17.898 20.7296 16.7255C20.7527 16.4512 20.6661 16.1788 20.4886 15.9683C20.3111 15.7578 20.0573 15.6263 19.7829 15.6028Z" fill="white"/>
<path d="M28.1283 12.7476C28.1283 12.7131 28.1283 12.6787 28.1229 12.6442C28.1231 12.642 28.1231 12.6398 28.1229 12.6377C28.1196 12.6053 28.1146 12.5732 28.1081 12.5414V12.5343C28.0671 12.3368 27.9692 12.1557 27.8264 12.0131L24.1077 8.2911C23.9128 8.09617 23.6485 7.98662 23.3729 7.98657C23.0973 7.98652 22.8329 8.09596 22.638 8.29083C22.443 8.48569 22.3335 8.75001 22.3334 9.02563C22.3334 9.30126 22.4428 9.56562 22.6377 9.76055L24.5884 11.7107H17.415C17.1395 11.7107 16.8752 11.8202 16.6803 12.015C16.4854 12.2099 16.376 12.4742 16.376 12.7498C16.376 13.0253 16.4854 13.2896 16.6803 13.4845C16.8752 13.6794 17.1395 13.7888 17.415 13.7888H24.5791L22.63 15.7379C22.4358 15.9329 22.3269 16.197 22.3272 16.4722C22.3275 16.7474 22.437 17.0112 22.6316 17.2058C22.8262 17.4004 23.09 17.5099 23.3652 17.5102C23.6404 17.5104 23.9045 17.4015 24.0995 17.2073L27.8013 13.5056C27.9355 13.3798 28.0337 13.2204 28.0857 13.044C28.0951 13.0125 28.1027 12.9806 28.1086 12.9483C28.1089 12.9437 28.1089 12.9392 28.1086 12.9346C28.1136 12.9067 28.1185 12.8799 28.1212 12.8504C28.1239 12.8209 28.1212 12.8077 28.1212 12.787V12.7509L28.1283 12.7476Z" fill="white"/>
</g>
<defs>
<clipPath id="clip0_2353_3681">
<rect width="28" height="28" fill="white" transform="translate(0.123047 0.174805)"/>
</clipPath>
</defs>
</svg>
