<svg width="25" height="24" viewBox="0 0 25 24" fill="none" xmlns="http://www.w3.org/2000/svg">
<rect x="0.339844" width="24" height="24" rx="4" fill="#E4F4FF"/>
<path fill-rule="evenodd" clip-rule="evenodd" d="M9.14062 7.9998C9.14062 7.15111 9.47777 6.33718 10.0779 5.73706C10.678 5.13695 11.4919 4.7998 12.3406 4.7998C13.1893 4.7998 14.0033 5.13695 14.6034 5.73706C15.2035 6.33718 15.5406 7.15111 15.5406 7.9998C15.5406 8.8485 15.2035 9.66243 14.6034 10.2625C14.0033 10.8627 13.1893 11.1998 12.3406 11.1998C11.4919 11.1998 10.678 10.8627 10.0779 10.2625C9.47777 9.66243 9.14062 8.8485 9.14062 7.9998ZM9.14062 12.7998C8.07976 12.7998 7.06234 13.2212 6.3122 13.9714C5.56205 14.7215 5.14062 15.7389 5.14062 16.7998C5.14063 17.4363 5.39348 18.0468 5.84357 18.4969C6.29366 18.9469 6.90411 19.1998 7.54063 19.1998H17.1406C17.7771 19.1998 18.3876 18.9469 18.8377 18.4969C19.2878 18.0468 19.5406 17.4363 19.5406 16.7998C19.5406 15.7389 19.1192 14.7215 18.3691 13.9714C17.6189 13.2212 16.6015 12.7998 15.5406 12.7998H9.14062Z" fill="#0099FF"/>
</svg>
