<svg width="31" height="30" viewBox="0 0 31 30" fill="none" xmlns="http://www.w3.org/2000/svg">
<rect x="0.339844" width="30" height="30" rx="4" fill="#C8E9FF"/>
<path fill-rule="evenodd" clip-rule="evenodd" d="M11.3398 10C11.3398 8.93913 11.7613 7.92172 12.5114 7.17157C13.2616 6.42143 14.279 6 15.3398 6C16.4007 6 17.4181 6.42143 18.1683 7.17157C18.9184 7.92172 19.3398 8.93913 19.3398 10C19.3398 11.0609 18.9184 12.0783 18.1683 12.8284C17.4181 13.5786 16.4007 14 15.3398 14C14.279 14 13.2616 13.5786 12.5114 12.8284C11.7613 12.0783 11.3398 11.0609 11.3398 10ZM11.3398 16C10.0138 16 8.74199 16.5268 7.80431 17.4645C6.86663 18.4021 6.33984 19.6739 6.33984 21C6.33984 21.7956 6.65591 22.5587 7.21852 23.1213C7.78113 23.6839 8.54419 24 9.33984 24H21.3398C22.1355 24 22.8986 23.6839 23.4612 23.1213C24.0238 22.5587 24.3398 21.7956 24.3398 21C24.3398 19.6739 23.8131 18.4021 22.8754 17.4645C21.9377 16.5268 20.6659 16 19.3398 16H11.3398Z" fill="#0099FF"/>
</svg>
