<svg width="146" height="25" viewBox="0 0 146 25" fill="none" xmlns="http://www.w3.org/2000/svg">
<path d="M0.97583 23.5969V1.07759H6.69814L12.096 14.5275H12.6269L17.9953 1.07759H23.8061V23.5969H19.6471V4.37836L20.178 4.44005L14.3672 19.0005H10.0902L4.24994 4.44005L4.81037 4.37836V23.5969H0.97583Z" fill="#0099FF"/>
<path d="M36.2074 24.183C34.8309 24.183 33.6216 23.9362 32.5794 23.4426C31.5568 22.9491 30.7014 22.291 30.0132 21.4683C29.3446 20.6251 28.8333 19.6894 28.4793 18.6611C28.1451 17.6329 27.9779 16.584 27.9779 15.5146V14.9285C27.9779 13.8179 28.1451 12.7485 28.4793 11.7203C28.8333 10.6714 29.3446 9.74597 30.0132 8.94391C30.7014 8.12129 31.547 7.47347 32.5499 7.00046C33.5527 6.50689 34.7129 6.2601 36.0304 6.2601C37.7609 6.2601 39.2062 6.66113 40.3664 7.46319C41.5463 8.24468 42.4312 9.28324 43.0211 10.5789C43.611 11.8539 43.906 13.2318 43.906 14.7125V16.255H29.7182V13.6329H41.3398L40.0715 14.9285C40.0715 13.8591 39.924 12.9439 39.629 12.183C39.334 11.4221 38.8818 10.8359 38.2722 10.4246C37.6822 10.0133 36.935 9.80766 36.0304 9.80766C35.1259 9.80766 34.359 10.0236 33.7297 10.4555C33.1005 10.8874 32.6187 11.5146 32.2844 12.3372C31.9698 13.1393 31.8124 14.1059 31.8124 15.237C31.8124 16.2858 31.9698 17.2215 32.2844 18.0442C32.599 18.8462 33.0808 19.4838 33.7297 19.9568C34.3786 20.4092 35.2045 20.6354 36.2074 20.6354C37.2103 20.6354 38.0264 20.4298 38.6556 20.0185C39.2849 19.5866 39.688 19.0622 39.865 18.4452H43.6405C43.4046 19.5969 42.9523 20.6046 42.2837 21.4683C41.6151 22.3321 40.7597 23.0005 39.7175 23.4735C38.695 23.9465 37.5249 24.183 36.2074 24.183Z" fill="#0099FF"/>
<path d="M54.2135 24.1521C53.0927 24.1521 52.0603 23.9362 51.1164 23.5043C50.1725 23.0724 49.3565 22.4658 48.6682 21.6843C47.98 20.9028 47.449 19.9979 47.0754 18.9696C46.7018 17.9208 46.515 16.7897 46.515 15.5763V14.9285C46.515 13.7357 46.6919 12.6149 47.0459 11.566C47.4195 10.5172 47.9308 9.60201 48.5797 8.82052C49.2483 8.03902 50.0447 7.43234 50.9689 7.00046C51.9128 6.54802 52.955 6.3218 54.0956 6.3218C55.3541 6.3218 56.4553 6.60972 57.3992 7.18556C58.3627 7.74083 59.1296 8.58401 59.6999 9.71512C60.2701 10.8462 60.5848 12.2652 60.6438 13.9722L59.4344 12.4915V1.07759H63.5344V23.5969H60.2898V16.4709H60.9977C60.9387 18.1778 60.6044 19.6071 59.9949 20.7588C59.3853 21.8899 58.579 22.7434 57.5761 23.3192C56.5929 23.8745 55.4721 24.1521 54.2135 24.1521ZM55.1279 20.5429C55.9342 20.5429 56.6716 20.3578 57.3402 19.9876C58.0088 19.5969 58.5397 19.0416 58.933 18.3218C59.3459 17.5814 59.5524 16.7177 59.5524 15.7305V14.4966C59.5524 13.5095 59.3459 12.6868 58.933 12.0287C58.52 11.3501 57.9793 10.8359 57.3107 10.4863C56.6421 10.1161 55.9145 9.93106 55.1279 9.93106C54.243 9.93106 53.4565 10.1573 52.7682 10.6097C52.0996 11.0416 51.5687 11.6586 51.1754 12.4606C50.8018 13.2627 50.615 14.1984 50.615 15.2678C50.615 16.3372 50.8116 17.273 51.2049 18.075C51.5982 18.8565 52.1291 19.4632 52.7977 19.8951C53.486 20.3269 54.2627 20.5429 55.1279 20.5429Z" fill="#0099FF"/>
<path d="M69.214 23.5969V6.84622H73.314V23.5969H69.214ZM66.9723 10.0544V6.84622H73.314V10.0544H66.9723ZM70.7183 4.84108C69.9121 4.84108 69.3123 4.62514 68.9191 4.19327C68.5454 3.74082 68.3586 3.18556 68.3586 2.52746C68.3586 1.82823 68.5454 1.26268 68.9191 0.830799C69.3123 0.398922 69.9121 0.182983 70.7183 0.182983C71.5246 0.182983 72.1145 0.398922 72.4881 0.830799C72.8617 1.26268 73.0486 1.82823 73.0486 2.52746C73.0486 3.18556 72.8617 3.74082 72.4881 4.19327C72.1145 4.62514 71.5246 4.84108 70.7183 4.84108Z" fill="#0099FF"/>
<path d="M85.3937 24.183C83.9975 24.183 82.7882 23.9362 81.7656 23.4426C80.7627 22.9491 79.9172 22.291 79.2289 21.4683C78.5603 20.6457 78.0589 19.7203 77.7246 18.692C77.3903 17.6637 77.2232 16.6149 77.2232 15.5455V14.9593C77.2232 13.8282 77.3903 12.7485 77.7246 11.7203C78.0786 10.6714 78.5997 9.74597 79.2879 8.94391C79.9762 8.12129 80.8217 7.47347 81.8246 7.00046C82.8471 6.50689 84.027 6.2601 85.3642 6.2601C86.7603 6.2601 88.009 6.54802 89.1102 7.12386C90.2114 7.67913 91.0865 8.46062 91.7354 9.46833C92.404 10.476 92.7776 11.6483 92.8563 12.985H88.8743C88.7759 12.1213 88.422 11.4015 87.8124 10.8257C87.2225 10.2498 86.4064 9.9619 85.3642 9.9619C84.4596 9.9619 83.7025 10.1881 83.0929 10.6406C82.503 11.093 82.0606 11.7203 81.7656 12.5223C81.4706 13.3038 81.3232 14.2087 81.3232 15.237C81.3232 16.2241 81.4608 17.1187 81.7361 17.9208C82.0311 18.7228 82.4735 19.3501 83.0635 19.8025C83.673 20.255 84.4498 20.4812 85.3937 20.4812C86.1016 20.4812 86.7112 20.3475 87.2225 20.0802C87.7337 19.8128 88.1368 19.4426 88.4318 18.9696C88.7464 18.4966 88.9431 17.9619 89.0217 17.3655H93.0038C92.9251 18.7228 92.5416 19.9156 91.8534 20.9439C91.1848 21.9516 90.2901 22.7434 89.1692 23.3192C88.068 23.8951 86.8095 24.183 85.3937 24.183Z" fill="#0099FF"/>
<path d="M97.3009 23.5969V6.84622H101.401V23.5969H97.3009ZM95.0592 10.0544V6.84622H101.401V10.0544H95.0592ZM98.8053 4.84108C97.999 4.84108 97.3993 4.62514 97.006 4.19327C96.6324 3.74082 96.4456 3.18556 96.4456 2.52746C96.4456 1.82823 96.6324 1.26268 97.006 0.830799C97.3993 0.398922 97.999 0.182983 98.8053 0.182983C99.6115 0.182983 100.201 0.398922 100.575 0.830799C100.949 1.26268 101.135 1.82823 101.135 2.52746C101.135 3.18556 100.949 3.74082 100.575 4.19327C100.201 4.62514 99.6115 4.84108 98.8053 4.84108Z" fill="#0099FF"/>
<path d="M106.372 23.5969V6.84622H109.617V14.0339H109.322C109.322 12.3269 109.538 10.9079 109.971 9.77681C110.403 8.62514 111.042 7.76139 111.888 7.18556C112.753 6.60972 113.825 6.3218 115.103 6.3218H115.28C117.187 6.3218 118.633 6.96962 119.616 8.26525C120.599 9.54031 121.091 11.4529 121.091 14.003V23.5969H116.991V13.6329C116.991 12.6046 116.706 11.7717 116.135 11.1341C115.585 10.4966 114.818 10.1778 113.835 10.1778C112.832 10.1778 112.016 10.5069 111.386 11.165C110.777 11.8025 110.472 12.6663 110.472 13.7562V23.5969H106.372Z" fill="#0099FF"/>
<path d="M132.912 24.183C131.535 24.183 130.326 23.9362 129.284 23.4426C128.261 22.9491 127.406 22.291 126.718 21.4683C126.049 20.6251 125.538 19.6894 125.184 18.6611C124.85 17.6329 124.682 16.584 124.682 15.5146V14.9285C124.682 13.8179 124.85 12.7485 125.184 11.7203C125.538 10.6714 126.049 9.74597 126.718 8.94391C127.406 8.12129 128.252 7.47347 129.254 7.00046C130.257 6.50689 131.417 6.2601 132.735 6.2601C134.465 6.2601 135.911 6.66113 137.071 7.46319C138.251 8.24468 139.136 9.28324 139.726 10.5789C140.316 11.8539 140.611 13.2318 140.611 14.7125V16.255H126.423V13.6329H138.044L136.776 14.9285C136.776 13.8591 136.629 12.9439 136.334 12.183C136.039 11.4221 135.586 10.8359 134.977 10.4246C134.387 10.0133 133.64 9.80766 132.735 9.80766C131.83 9.80766 131.064 10.0236 130.434 10.4555C129.805 10.8874 129.323 11.5146 128.989 12.3372C128.674 13.1393 128.517 14.1059 128.517 15.237C128.517 16.2858 128.674 17.2215 128.989 18.0442C129.304 18.8462 129.785 19.4838 130.434 19.9568C131.083 20.4092 131.909 20.6354 132.912 20.6354C133.915 20.6354 134.731 20.4298 135.36 20.0185C135.989 19.5866 136.393 19.0622 136.57 18.4452H140.345C140.109 19.5969 139.657 20.6046 138.988 21.4683C138.32 22.3321 137.464 23.0005 136.422 23.4735C135.4 23.9465 134.23 24.183 132.912 24.183Z" fill="#0099FF"/>
<path d="M139.904 3.52772C139.904 2.11776 140.997 0.974759 142.345 0.974759H143.362C144.71 0.974759 145.803 2.11776 145.803 3.52772V4.59146C145.803 6.00142 144.71 7.14442 143.362 7.14442H142.345C140.997 7.14442 139.904 6.00142 139.904 4.59146V3.52772Z" fill="#FBA0E3"/>
</svg>
