<svg width="25" height="24" viewBox="0 0 25 24" fill="none" xmlns="http://www.w3.org/2000/svg">
<rect width="24" height="24" rx="4" transform="matrix(-1 0 0 1 24.3398 0)" fill="#FFE9E9"/>
<path d="M13.2109 17.5998C13.2109 17.4407 13.1477 17.2881 13.0352 17.1755C12.9227 17.063 12.7701 16.9998 12.6109 16.9998H7.81094C7.75789 16.9998 7.70702 16.9787 7.66952 16.9412C7.63201 16.9037 7.61094 16.8528 7.61094 16.7998V7.1998C7.61094 7.14676 7.63201 7.09589 7.66952 7.05838C7.70702 7.02088 7.75789 6.9998 7.81094 6.9998H12.6109C12.7701 6.9998 12.9227 6.93659 13.0352 6.82407C13.1477 6.71155 13.2109 6.55893 13.2109 6.3998C13.2109 6.24067 13.1477 6.08806 13.0352 5.97554C12.9227 5.86302 12.7701 5.7998 12.6109 5.7998H7.81094C7.03814 5.7998 6.41094 6.427 6.41094 7.1998V16.7998C6.41094 17.1711 6.55844 17.5272 6.82099 17.7898C7.08354 18.0523 7.43963 18.1998 7.81094 18.1998H12.6109C12.7701 18.1998 12.9227 18.1366 13.0352 18.0241C13.1477 17.9115 13.2109 17.7589 13.2109 17.5998Z" fill="#D30404"/>
<path d="M9.72174 12.892C9.72174 13.1041 9.80602 13.3076 9.95605 13.4576C10.1061 13.6077 10.3096 13.692 10.5217 13.692H14.4065C14.4252 13.9762 14.4481 14.2605 14.4753 14.5448L14.4993 14.7888C14.5083 14.8807 14.5393 14.9692 14.5897 15.0466C14.6401 15.124 14.7084 15.1882 14.7889 15.2335C14.8694 15.2789 14.9596 15.3042 15.052 15.3073C15.1443 15.3104 15.236 15.2911 15.3193 15.2512C16.7822 14.5509 18.1062 13.5918 19.2273 12.42L19.2513 12.3952C19.3545 12.2879 19.4121 12.1448 19.4121 11.996C19.4121 11.8471 19.3545 11.7041 19.2513 11.5968L19.2273 11.572C18.1062 10.4002 16.7822 9.44098 15.3193 8.74076C15.236 8.70083 15.1443 8.68157 15.052 8.68464C14.9596 8.68771 14.8694 8.71301 14.7889 8.75839C14.7084 8.80378 14.6401 8.8679 14.5897 8.94533C14.5393 9.02276 14.5083 9.1112 14.4993 9.20316L14.4753 9.44716C14.4481 9.7309 14.4252 10.0152 14.4065 10.3H10.5217C10.3096 10.3 10.1061 10.3842 9.95605 10.5343C9.80602 10.6843 9.72174 10.8878 9.72174 11.1V12.892Z" fill="#D30404"/>
</svg>
