<svg width="18" height="17" viewBox="0 0 18 17" fill="none" xmlns="http://www.w3.org/2000/svg">
<path d="M12.9629 5.9842C13.3037 5.9842 13.637 6.01382 13.9629 6.06568V5.1916C13.9629 4.1916 13.1555 3.3842 12.1629 3.3842H10.2652V2.17457C10.2646 1.7451 10.0937 1.33338 9.79001 1.0297C9.48633 0.72602 9.07462 0.555153 8.64515 0.554565H5.80515C5.37568 0.555153 4.96397 0.72602 4.66029 1.0297C4.3566 1.33338 4.18574 1.7451 4.18515 2.17457V3.3842H2.28885C1.29626 3.3842 0.481445 4.1916 0.481445 5.1916V11.7249C0.481445 12.7175 1.29626 13.5323 2.28885 13.5323H7.11848C6.99256 13.0509 6.92589 12.5472 6.92589 12.0212C6.92589 8.69531 9.637 5.9842 12.9629 5.9842ZM5.66663 2.17457C5.66663 2.09827 5.72811 2.03605 5.80515 2.03605H8.64515C8.72219 2.03605 8.78367 2.09827 8.78367 2.17457V3.38197H5.66663V2.17457Z" fill="#0099FF"/>
<path d="M12.963 7.4657C10.4519 7.4657 8.40747 9.50274 8.40747 12.0213C8.40747 14.5398 10.4519 16.5768 12.963 16.5768C15.4815 16.5768 17.5186 14.5398 17.5186 12.0213C17.5186 9.50274 15.4815 7.4657 12.963 7.4657ZM14.5112 13.7175C14.3721 13.855 14.1845 13.932 13.989 13.932C13.7934 13.932 13.6058 13.855 13.4667 13.7175L12.4445 12.6953C12.3745 12.6267 12.3188 12.5449 12.2807 12.4546C12.2425 12.3644 12.2227 12.2674 12.2223 12.1694V9.76199C12.2223 9.34718 12.5556 9.02125 12.963 9.02125C13.3778 9.02125 13.7038 9.34718 13.7038 9.76199V11.8657L14.5112 12.6657C14.8001 12.9546 14.8001 13.4287 14.5112 13.7175Z" fill="#0099FF"/>
</svg>
