<svg width="17" height="22" viewBox="0 0 17 22" fill="none" xmlns="http://www.w3.org/2000/svg">
<path d="M14.2683 4.41721H14.2598C14.1055 3.34578 13.1969 2.51436 12.0826 2.51436H11.3883C11.2093 1.99016 10.871 1.53495 10.4208 1.21226C9.97059 0.88957 9.43084 0.715503 8.87691 0.714355C7.7112 0.714355 6.72548 1.46864 6.36549 2.51436H5.67977C4.56549 2.51436 3.65691 3.34578 3.50263 4.41721H3.48549C2.02834 4.41721 0.836914 5.60864 0.836914 7.06578V18.6372C0.836914 20.0944 2.02834 21.2858 3.48549 21.2858H14.2683C15.7255 21.2858 16.9169 20.0944 16.9169 18.6372V7.06578C16.9169 5.60864 15.7255 4.41721 14.2683 4.41721ZM11.4312 17.0001H6.32263C5.88549 17.0001 5.56834 16.5886 5.67977 16.1686C5.8632 15.4602 6.27671 14.8328 6.85539 14.3848C7.43407 13.9369 8.14513 13.6939 8.87691 13.6939C9.6087 13.6939 10.3198 13.9369 10.8984 14.3848C11.4771 14.8328 11.8906 15.4602 12.0741 16.1686C12.1855 16.5886 11.8683 17.0001 11.4312 17.0001ZM7.22263 11.1886C7.23646 10.7591 7.41681 10.3518 7.72553 10.0529C8.03426 9.75391 8.44716 9.58676 8.87691 9.58676C9.30666 9.58676 9.71956 9.75391 10.0283 10.0529C10.337 10.3518 10.5174 10.7591 10.5312 11.1886C10.5312 12.0972 9.78549 12.8344 8.87691 12.8344C7.95977 12.8344 7.22263 12.0972 7.22263 11.1886ZM12.5712 5.61721C12.5712 5.88293 12.3483 6.10578 12.0826 6.10578H5.67977C5.41406 6.10578 5.1912 5.88293 5.1912 5.61721V4.71721C5.1912 4.44293 5.41406 4.22864 5.67977 4.22864H7.07691C7.55691 4.22864 7.93406 3.84293 7.93406 3.3715C7.93406 2.84864 8.36263 2.42864 8.87691 2.42864C9.3912 2.42864 9.8112 2.84864 9.8112 3.3715C9.8112 3.84293 10.1969 4.22864 10.6683 4.22864H12.0826C12.3483 4.22864 12.5712 4.44293 12.5712 4.71721V5.61721Z" fill="#0099FF"/>
</svg>
