<svg width="18" height="22" viewBox="0 0 18 22" fill="none" xmlns="http://www.w3.org/2000/svg">
<path d="M14.3914 4.41721H14.3828C14.2285 3.34578 13.32 2.51436 12.2057 2.51436H11.5114C11.3323 1.99016 10.9941 1.53495 10.5439 1.21226C10.0936 0.88957 9.55389 0.715503 8.99996 0.714355C7.83425 0.714355 6.84853 1.46864 6.48853 2.51436H5.80282C4.68853 2.51436 3.77996 3.34578 3.62568 4.41721H3.60853C2.15139 4.41721 0.959961 5.60864 0.959961 7.06578V18.6372C0.959961 20.0944 2.15139 21.2858 3.60853 21.2858H14.3914C15.8485 21.2858 17.04 20.0944 17.04 18.6372V7.06578C17.04 5.60864 15.8485 4.41721 14.3914 4.41721ZM11.5542 17.0001H6.44568C6.00853 17.0001 5.69139 16.5886 5.80282 16.1686C5.98624 15.4602 6.39976 14.8328 6.97844 14.3848C7.55712 13.9369 8.26818 13.6939 8.99996 13.6939C9.73174 13.6939 10.4428 13.9369 11.0215 14.3848C11.6002 14.8328 12.0137 15.4602 12.1971 16.1686C12.3085 16.5886 11.9914 17.0001 11.5542 17.0001ZM7.34567 11.1886C7.3595 10.7591 7.53985 10.3518 7.84858 10.0529C8.15731 9.75391 8.57021 9.58676 8.99996 9.58676C9.42971 9.58676 9.84261 9.75391 10.1513 10.0529C10.4601 10.3518 10.6404 10.7591 10.6542 11.1886C10.6542 12.0972 9.90853 12.8344 8.99996 12.8344C8.08282 12.8344 7.34567 12.0972 7.34567 11.1886ZM12.6942 5.61721C12.6942 5.88293 12.4714 6.10578 12.2057 6.10578H5.80282C5.5371 6.10578 5.31425 5.88293 5.31425 5.61721V4.71721C5.31425 4.44293 5.5371 4.22864 5.80282 4.22864H7.19996C7.67996 4.22864 8.0571 3.84293 8.0571 3.3715C8.0571 2.84864 8.48567 2.42864 8.99996 2.42864C9.51425 2.42864 9.93425 2.84864 9.93425 3.3715C9.93425 3.84293 10.32 4.22864 10.7914 4.22864H12.2057C12.4714 4.22864 12.6942 4.44293 12.6942 4.71721V5.61721Z" fill="#BEE5FF"/>
</svg>
