<svg width="15" height="15" viewBox="0 0 15 15" fill="none" xmlns="http://www.w3.org/2000/svg">
<path d="M7.30789 11.8503L3.84956 13.9336C3.69678 14.0308 3.53706 14.0725 3.37039 14.0586C3.20372 14.0447 3.05789 13.9892 2.93289 13.8919C2.80789 13.7947 2.71067 13.6733 2.64122 13.5278C2.57178 13.3822 2.55789 13.2189 2.59956 13.0378L3.51622 9.10026L0.453725 6.45443C0.314836 6.32943 0.228169 6.18693 0.193725 6.02693C0.15928 5.86693 0.169558 5.71082 0.224558 5.55859C0.279558 5.40637 0.362891 5.28137 0.474558 5.18359C0.586225 5.08582 0.739002 5.02332 0.932891 4.99609L4.97456 4.64193L6.53706 0.933594C6.6065 0.766927 6.71428 0.641927 6.86039 0.558594C7.0065 0.47526 7.15567 0.433594 7.30789 0.433594C7.46011 0.433594 7.60928 0.47526 7.75539 0.558594C7.9015 0.641927 8.00928 0.766927 8.07872 0.933594L9.64122 4.64193L13.6829 4.99609C13.8773 5.02387 14.0301 5.08637 14.1412 5.18359C14.2523 5.28082 14.3357 5.40582 14.3912 5.55859C14.4468 5.71137 14.4573 5.86776 14.4229 6.02776C14.3884 6.18776 14.3015 6.32998 14.1621 6.45443L11.0996 9.10026L12.0162 13.0378C12.0579 13.2183 12.044 13.3816 11.9746 13.5278C11.9051 13.6739 11.8079 13.7953 11.6829 13.8919C11.5579 13.9886 11.4121 14.0441 11.2454 14.0586C11.0787 14.073 10.919 14.0314 10.7662 13.9336L7.30789 11.8503Z" fill="#FFB14B"/>
</svg>
