<svg width="16" height="15" viewBox="0 0 16 15" fill="none" xmlns="http://www.w3.org/2000/svg">
<path d="M7.80913 11.8503L4.17788 13.9336C4.01746 14.0308 3.84975 14.0725 3.67475 14.0586C3.49975 14.0447 3.34663 13.9892 3.21538 13.8919C3.08413 13.7947 2.98204 13.6733 2.90913 13.5278C2.83621 13.3822 2.82163 13.2189 2.86538 13.0378L3.82788 9.10026L0.612251 6.45443C0.466417 6.32943 0.375417 6.18693 0.339251 6.02693C0.303084 5.86693 0.313876 5.71082 0.371626 5.55859C0.429376 5.40637 0.516876 5.28137 0.634126 5.18359C0.751376 5.08582 0.911792 5.02332 1.11538 4.99609L5.35913 4.64193L6.99975 0.933594C7.07267 0.766927 7.18583 0.641927 7.33925 0.558594C7.49267 0.47526 7.64929 0.433594 7.80913 0.433594C7.96896 0.433594 8.12558 0.47526 8.279 0.558594C8.43242 0.641927 8.54558 0.766927 8.6185 0.933594L10.2591 4.64193L14.5029 4.99609C14.707 5.02387 14.8675 5.08637 14.9841 5.18359C15.1008 5.28082 15.1883 5.40582 15.2466 5.55859C15.305 5.71137 15.316 5.86776 15.2799 6.02776C15.2437 6.18776 15.1524 6.32998 15.006 6.45443L11.7904 9.10026L12.7529 13.0378C12.7966 13.2183 12.782 13.3816 12.7091 13.5278C12.6362 13.6739 12.5341 13.7953 12.4029 13.8919C12.2716 13.9886 12.1185 14.0441 11.9435 14.0586C11.7685 14.073 11.6008 14.0314 11.4404 13.9336L7.80913 11.8503Z" fill="#E5E5E5"/>
</svg>
