<svg width="40" height="41" viewBox="0 0 40 41" fill="none" xmlns="http://www.w3.org/2000/svg">
<path d="M33.3844 10.8656L27.1344 4.61563C27.0182 4.49958 26.8803 4.40756 26.7286 4.34483C26.5768 4.28209 26.4142 4.24987 26.25 4.25H13.75C13.087 4.25 12.4511 4.51339 11.9822 4.98223C11.5134 5.45107 11.25 6.08696 11.25 6.75V9.25H8.75C8.08696 9.25 7.45107 9.51339 6.98223 9.98223C6.51339 10.4511 6.25 11.087 6.25 11.75V34.25C6.25 34.913 6.51339 35.5489 6.98223 36.0178C7.45107 36.4866 8.08696 36.75 8.75 36.75H26.25C26.913 36.75 27.5489 36.4866 28.0178 36.0178C28.4866 35.5489 28.75 34.913 28.75 34.25V31.75H31.25C31.913 31.75 32.5489 31.4866 33.0178 31.0178C33.4866 30.5489 33.75 29.913 33.75 29.25V11.75C33.7501 11.5858 33.7179 11.4232 33.6552 11.2714C33.5924 11.1197 33.5004 10.9818 33.3844 10.8656ZM21.25 30.5H13.75C13.4185 30.5 13.1005 30.3683 12.8661 30.1339C12.6317 29.8995 12.5 29.5815 12.5 29.25C12.5 28.9185 12.6317 28.6005 12.8661 28.3661C13.1005 28.1317 13.4185 28 13.75 28H21.25C21.5815 28 21.8995 28.1317 22.1339 28.3661C22.3683 28.6005 22.5 28.9185 22.5 29.25C22.5 29.5815 22.3683 29.8995 22.1339 30.1339C21.8995 30.3683 21.5815 30.5 21.25 30.5ZM21.25 25.5H13.75C13.4185 25.5 13.1005 25.3683 12.8661 25.1339C12.6317 24.8995 12.5 24.5815 12.5 24.25C12.5 23.9185 12.6317 23.6005 12.8661 23.3661C13.1005 23.1317 13.4185 23 13.75 23H21.25C21.5815 23 21.8995 23.1317 22.1339 23.3661C22.3683 23.6005 22.5 23.9185 22.5 24.25C22.5 24.5815 22.3683 24.8995 22.1339 25.1339C21.8995 25.3683 21.5815 25.5 21.25 25.5ZM31.25 29.25H28.75V16.75C28.7501 16.5858 28.7179 16.4232 28.6552 16.2714C28.5924 16.1197 28.5004 15.9818 28.3844 15.8656L22.1344 9.61563C22.0182 9.49958 21.8803 9.40757 21.7286 9.34483C21.5768 9.28209 21.4142 9.24987 21.25 9.25H13.75V6.75H25.7328L31.25 12.2672V29.25Z" fill="#0099FF"/>
</svg>
