<svg width="130" height="21" viewBox="0 0 130 21" fill="none" xmlns="http://www.w3.org/2000/svg">
<path d="M0.5 20.4871V0.782777H5.59694L10.4049 12.5514H10.8778L15.6595 0.782777H20.8352V20.4871H17.1308V3.67095L17.6037 3.72494L12.4279 16.4653H8.61833L3.41629 3.72494L3.91548 3.67095V20.4871H0.5Z" fill="url(#paint0_linear_2122_2916)"/>
<path d="M31.8813 21C30.6552 21 29.578 20.7841 28.6497 20.3522C27.7389 19.9203 26.977 19.3445 26.364 18.6247C25.7685 17.8869 25.3131 17.0681 24.9978 16.1684C24.7 15.2686 24.5511 14.3509 24.5511 13.4152V12.9023C24.5511 11.9306 24.7 10.9949 24.9978 10.0951C25.3131 9.17738 25.7685 8.36761 26.364 7.66581C26.977 6.94602 27.7302 6.37918 28.6234 5.9653C29.5167 5.53342 30.5501 5.31748 31.7236 5.31748C33.265 5.31748 34.5524 5.66838 35.5858 6.37018C36.6367 7.05399 37.4249 7.96273 37.9503 9.0964C38.4758 10.2121 38.7385 11.4177 38.7385 12.7134V14.063H26.1012V11.7686H36.4528L35.323 12.9023C35.323 11.9666 35.1917 11.1658 34.9289 10.5C34.6662 9.83419 34.2634 9.32134 33.7204 8.96144C33.1949 8.60154 32.5294 8.42159 31.7236 8.42159C30.9179 8.42159 30.2348 8.61054 29.6744 8.98843C29.1139 9.36632 28.6847 9.91517 28.387 10.635C28.1067 11.3368 27.9666 12.1825 27.9666 13.1722C27.9666 14.09 28.1067 14.9087 28.387 15.6285C28.6672 16.3303 29.0964 16.8882 29.6744 17.3021C30.2524 17.6979 30.988 17.8959 31.8813 17.8959C32.7746 17.8959 33.5014 17.7159 34.0619 17.356C34.6224 16.9781 34.9815 16.5193 35.1391 15.9794H38.5021C38.2919 16.9871 37.889 17.8689 37.2935 18.6247C36.698 19.3805 35.9361 19.9653 35.0078 20.3792C34.097 20.7931 33.0548 21 31.8813 21Z" fill="url(#paint1_linear_2122_2916)"/>
<path d="M47.9196 20.973C46.9212 20.973 46.0017 20.7841 45.1609 20.4062C44.3202 20.0283 43.5933 19.4974 42.9803 18.8136C42.3673 18.1298 41.8943 17.338 41.5616 16.4383C41.2288 15.5206 41.0624 14.5308 41.0624 13.4692V12.9023C41.0624 11.8586 41.22 10.8779 41.5353 9.96015C41.8681 9.04242 42.3235 8.24164 42.9015 7.55784C43.497 6.87404 44.2064 6.34319 45.0296 5.9653C45.8703 5.56941 46.7986 5.37147 47.8145 5.37147C48.9355 5.37147 49.9163 5.62339 50.7571 6.12725C51.6153 6.61311 52.2984 7.3509 52.8064 8.34062C53.3143 9.33033 53.5945 10.572 53.6471 12.0656L52.5699 10.7699V0.782777H56.2218V20.4871H53.3318V14.2519H53.9624C53.9098 15.7455 53.6121 16.9961 53.0691 18.0039C52.5261 18.9936 51.808 19.7404 50.9147 20.2442C50.0389 20.7301 49.0406 20.973 47.9196 20.973ZM48.7341 17.8149C49.4522 17.8149 50.109 17.653 50.7045 17.329C51.3 16.9871 51.773 16.5013 52.1233 15.8715C52.4911 15.2236 52.675 14.4679 52.675 13.6041V12.5244C52.675 11.6607 52.4911 10.9409 52.1233 10.365C51.7554 9.77121 51.2738 9.32134 50.6783 9.01542C50.0827 8.69152 49.4347 8.52956 48.7341 8.52956C47.9459 8.52956 47.2453 8.72751 46.6322 9.12339C46.0367 9.50129 45.5638 10.0411 45.2135 10.7429C44.8807 11.4447 44.7143 12.2635 44.7143 13.1992C44.7143 14.135 44.8895 14.9537 45.2398 15.6555C45.5901 16.3393 46.063 16.8702 46.6585 17.2481C47.2715 17.626 47.9634 17.8149 48.7341 17.8149Z" fill="url(#paint2_linear_2122_2916)"/>
<path d="M61.2807 20.4871V5.83033H64.9327V20.4871H61.2807ZM59.284 8.63753V5.83033H64.9327V8.63753H59.284ZM62.6207 4.07584C61.9025 4.07584 61.3683 3.88689 61.018 3.509C60.6852 3.11311 60.5188 2.62725 60.5188 2.05141C60.5188 1.43959 60.6852 0.944731 61.018 0.566839C61.3683 0.188946 61.9025 0 62.6207 0C63.3388 0 63.8642 0.188946 64.197 0.566839C64.5298 0.944731 64.6962 1.43959 64.6962 2.05141C64.6962 2.62725 64.5298 3.11311 64.197 3.509C63.8642 3.88689 63.3388 4.07584 62.6207 4.07584Z" fill="url(#paint3_linear_2122_2916)"/>
<path d="M75.6922 21C74.4486 21 73.3714 20.7841 72.4606 20.3522C71.5673 19.9203 70.8142 19.3445 70.2011 18.6247C69.6056 17.9049 69.159 17.0951 68.8612 16.1954C68.5635 15.2956 68.4146 14.3779 68.4146 13.4422V12.9293C68.4146 11.9396 68.5635 10.9949 68.8612 10.0951C69.1765 9.17738 69.6407 8.36761 70.2537 7.66581C70.8667 6.94602 71.6199 6.37918 72.5132 5.9653C73.424 5.53342 74.4749 5.31748 75.6659 5.31748C76.9095 5.31748 78.0217 5.56941 79.0026 6.07327C79.9834 6.55913 80.7629 7.24293 81.3409 8.12468C81.9364 9.00643 82.2692 10.0321 82.3392 11.2018H78.7924C78.7048 10.446 78.3895 9.8162 77.8466 9.31234C77.3211 8.80848 76.5942 8.55656 75.6659 8.55656C74.8602 8.55656 74.1859 8.7545 73.6429 9.15038C73.1174 9.54627 72.7233 10.0951 72.4606 10.7969C72.1979 11.4807 72.0665 12.2725 72.0665 13.1722C72.0665 14.036 72.1891 14.8188 72.4343 15.5206C72.6971 16.2224 73.0912 16.7712 73.6166 17.1671C74.1596 17.563 74.8514 17.7609 75.6922 17.7609C76.3227 17.7609 76.8657 17.644 77.3211 17.41C77.7765 17.1761 78.1356 16.8522 78.3983 16.4383C78.6785 16.0244 78.8537 15.5566 78.9238 15.0347H82.4706C82.4005 16.2224 82.059 17.2661 81.446 18.1658C80.8504 19.0476 80.0535 19.7404 79.0551 20.2442C78.0743 20.7481 76.9533 21 75.6922 21Z" fill="url(#paint4_linear_2122_2916)"/>
<path d="M86.2982 20.4871V5.83033H89.9501V20.4871H86.2982ZM84.3014 8.63753V5.83033H89.9501V8.63753H84.3014ZM87.6381 4.07584C86.92 4.07584 86.3857 3.88689 86.0354 3.509C85.7026 3.11311 85.5363 2.62725 85.5363 2.05141C85.5363 1.43959 85.7026 0.944731 86.0354 0.566839C86.3857 0.188946 86.92 0 87.6381 0C88.3562 0 88.8817 0.188946 89.2145 0.566839C89.5473 0.944731 89.7136 1.43959 89.7136 2.05141C89.7136 2.62725 89.5473 3.11311 89.2145 3.509C88.8817 3.88689 88.3562 4.07584 87.6381 4.07584Z" fill="url(#paint5_linear_2122_2916)"/>
<path d="M94.3778 20.4871V5.83033H97.2679V12.1195H97.0051C97.0051 10.626 97.1978 9.38432 97.5831 8.3946C97.9685 7.38689 98.5377 6.63111 99.2909 6.12725C100.062 5.62339 101.016 5.37147 102.155 5.37147H102.312C104.011 5.37147 105.299 5.9383 106.174 7.07198C107.05 8.18766 107.488 9.86118 107.488 12.0925V20.4871H103.836V11.7686C103.836 10.8689 103.582 10.1401 103.074 9.58226C102.584 9.02442 101.901 8.7455 101.025 8.7455C100.132 8.7455 99.4047 9.03342 98.8442 9.60925C98.3012 10.1671 98.0298 10.9229 98.0298 11.8766V20.4871H94.3778Z" fill="url(#paint6_linear_2122_2916)"/>
<path d="M118.017 21C116.791 21 115.714 20.7841 114.786 20.3522C113.875 19.9203 113.113 19.3445 112.5 18.6247C111.905 17.8869 111.449 17.0681 111.134 16.1684C110.836 15.2686 110.687 14.3509 110.687 13.4152V12.9023C110.687 11.9306 110.836 10.9949 111.134 10.0951C111.449 9.17738 111.905 8.36761 112.5 7.66581C113.113 6.94602 113.866 6.37918 114.76 5.9653C115.653 5.53342 116.686 5.31748 117.86 5.31748C119.401 5.31748 120.689 5.66838 121.722 6.37018C122.773 7.05399 123.561 7.96273 124.086 9.0964C124.612 10.2121 124.875 11.4177 124.875 12.7134V14.063H112.237V11.7686H122.589L121.459 12.9023C121.459 11.9666 121.328 11.1658 121.065 10.5C120.802 9.83419 120.4 9.32134 119.857 8.96144C119.331 8.60154 118.665 8.42159 117.86 8.42159C117.054 8.42159 116.371 8.61054 115.811 8.98843C115.25 9.36632 114.821 9.91517 114.523 10.635C114.243 11.3368 114.103 12.1825 114.103 13.1722C114.103 14.09 114.243 14.9087 114.523 15.6285C114.803 16.3303 115.233 16.8882 115.811 17.3021C116.389 17.6979 117.124 17.8959 118.017 17.8959C118.911 17.8959 119.638 17.7159 120.198 17.356C120.759 16.9781 121.118 16.5193 121.275 15.9794H124.638C124.428 16.9871 124.025 17.8689 123.43 18.6247C122.834 19.3805 122.072 19.9653 121.144 20.3792C120.233 20.7931 119.191 21 118.017 21Z" fill="url(#paint7_linear_2122_2916)"/>
<path d="M124.245 2.92665C124.245 1.69293 125.219 0.692804 126.42 0.692804H127.326C128.527 0.692804 129.5 1.69293 129.5 2.92665V3.85742C129.5 5.09113 128.527 6.09126 127.326 6.09126H126.42C125.219 6.09126 124.245 5.09113 124.245 3.85742V2.92665Z" fill="#FBA0E3"/>
<defs>
<linearGradient id="paint0_linear_2122_2916" x1="65" y1="0" x2="65" y2="21" gradientUnits="userSpaceOnUse">
<stop stop-color="white"/>
<stop offset="1" stop-color="#C6D3E7"/>
</linearGradient>
<linearGradient id="paint1_linear_2122_2916" x1="65" y1="0" x2="65" y2="21" gradientUnits="userSpaceOnUse">
<stop stop-color="white"/>
<stop offset="1" stop-color="#C6D3E7"/>
</linearGradient>
<linearGradient id="paint2_linear_2122_2916" x1="65" y1="0" x2="65" y2="21" gradientUnits="userSpaceOnUse">
<stop stop-color="white"/>
<stop offset="1" stop-color="#C6D3E7"/>
</linearGradient>
<linearGradient id="paint3_linear_2122_2916" x1="65" y1="0" x2="65" y2="21" gradientUnits="userSpaceOnUse">
<stop stop-color="white"/>
<stop offset="1" stop-color="#C6D3E7"/>
</linearGradient>
<linearGradient id="paint4_linear_2122_2916" x1="65" y1="0" x2="65" y2="21" gradientUnits="userSpaceOnUse">
<stop stop-color="white"/>
<stop offset="1" stop-color="#C6D3E7"/>
</linearGradient>
<linearGradient id="paint5_linear_2122_2916" x1="65" y1="0" x2="65" y2="21" gradientUnits="userSpaceOnUse">
<stop stop-color="white"/>
<stop offset="1" stop-color="#C6D3E7"/>
</linearGradient>
<linearGradient id="paint6_linear_2122_2916" x1="65" y1="0" x2="65" y2="21" gradientUnits="userSpaceOnUse">
<stop stop-color="white"/>
<stop offset="1" stop-color="#C6D3E7"/>
</linearGradient>
<linearGradient id="paint7_linear_2122_2916" x1="65" y1="0" x2="65" y2="21" gradientUnits="userSpaceOnUse">
<stop stop-color="white"/>
<stop offset="1" stop-color="#C6D3E7"/>
</linearGradient>
</defs>
</svg>
