<svg width="40" height="41" viewBox="0 0 40 41" fill="none" xmlns="http://www.w3.org/2000/svg">
<path d="M32.5 6.75H7.5C6.83696 6.75 6.20107 7.01339 5.73223 7.48223C5.26339 7.95107 5 8.58696 5 9.25V18C5 26.2375 8.9875 31.2297 12.3328 33.9672C15.9359 36.9141 19.5203 37.9141 19.6766 37.9562C19.8914 38.0147 20.118 38.0147 20.3328 37.9562C20.4891 37.9141 24.0688 36.9141 27.6766 33.9672C31.0125 31.2297 35 26.2375 35 18V9.25C35 8.58696 34.7366 7.95107 34.2678 7.48223C33.7989 7.01339 33.163 6.75 32.5 6.75ZM27.1375 17.6344L18.3875 26.3844C18.2714 26.5006 18.1335 26.5928 17.9818 26.6557C17.8301 26.7186 17.6674 26.751 17.5031 26.751C17.3389 26.751 17.1762 26.7186 17.0244 26.6557C16.8727 26.5928 16.7348 26.5006 16.6187 26.3844L12.8688 22.6344C12.6342 22.3998 12.5024 22.0817 12.5024 21.75C12.5024 21.4183 12.6342 21.1002 12.8688 20.8656C13.1033 20.6311 13.4214 20.4993 13.7531 20.4993C14.0848 20.4993 14.4029 20.6311 14.6375 20.8656L17.5 23.7328L25.3656 15.8656C25.4818 15.7495 25.6196 15.6574 25.7714 15.5945C25.9231 15.5317 26.0858 15.4993 26.25 15.4993C26.4142 15.4993 26.5769 15.5317 26.7286 15.5945C26.8804 15.6574 27.0182 15.7495 27.1344 15.8656C27.2505 15.9818 27.3426 16.1196 27.4055 16.2714C27.4683 16.4231 27.5007 16.5858 27.5007 16.75C27.5007 16.9142 27.4683 17.0769 27.4055 17.2286C27.3426 17.3804 27.2505 17.5182 27.1344 17.6344H27.1375Z" fill="#0099FF"/>
</svg>
