<svg width="24" height="24" viewBox="0 0 24 24" fill="none" xmlns="http://www.w3.org/2000/svg">
<path d="M23.0306 7.28056L20.2275 10.0837C19.6612 16.6481 14.1253 21.7499 7.49999 21.7499C6.13874 21.7499 5.01655 21.5343 4.16436 21.1087C3.47717 20.7646 3.19592 20.3962 3.12561 20.2912C3.06291 20.1972 3.02228 20.0902 3.00674 19.9782C2.99119 19.8663 3.00115 19.7523 3.03586 19.6448C3.07056 19.5372 3.12913 19.4389 3.20717 19.3572C3.28521 19.2754 3.38072 19.2124 3.48655 19.1727C3.51092 19.1634 5.75905 18.2999 7.18686 16.6565C6.39503 16.0055 5.70381 15.241 5.13561 14.3877C3.97311 12.6618 2.67186 9.66369 3.07311 5.18337C3.08583 5.04101 3.13896 4.90525 3.22625 4.79207C3.31354 4.67889 3.43136 4.59301 3.56582 4.54454C3.70028 4.49608 3.8458 4.48704 3.98522 4.51851C4.12465 4.54997 4.25218 4.62061 4.3528 4.72212C4.38561 4.75494 7.4728 7.82525 11.2472 8.82087V8.24994C11.2457 7.65124 11.3641 7.05831 11.5953 6.50606C11.8265 5.95381 12.1659 5.45341 12.5934 5.03431C13.0086 4.61968 13.5027 4.29241 14.0464 4.07182C14.5902 3.85123 15.1726 3.74178 15.7594 3.74994C16.5464 3.7577 17.3181 3.96899 17.9994 4.36325C18.6807 4.75752 19.2483 5.32135 19.6472 5.99994H22.5C22.6484 5.99982 22.7935 6.04374 22.917 6.12615C23.0404 6.20855 23.1366 6.32573 23.1935 6.46284C23.2503 6.59996 23.2651 6.75085 23.2361 6.89642C23.2071 7.04198 23.1356 7.17567 23.0306 7.28056Z" fill="white"/>
</svg>
