<svg width="40" height="41" viewBox="0 0 40 41" fill="none" xmlns="http://www.w3.org/2000/svg">
<path d="M31.875 14.25C31.875 14.6208 31.765 14.9834 31.559 15.2917C31.353 15.6 31.0601 15.8404 30.7175 15.9823C30.3749 16.1242 29.9979 16.1613 29.6342 16.089C29.2705 16.0166 28.9364 15.838 28.6742 15.5758C28.412 15.3136 28.2334 14.9795 28.161 14.6158C28.0887 14.2521 28.1258 13.8751 28.2677 13.5325C28.4096 13.1899 28.65 12.897 28.9583 12.691C29.2666 12.485 29.6292 12.375 30 12.375C30.4973 12.375 30.9742 12.5725 31.3258 12.9242C31.6775 13.2758 31.875 13.7527 31.875 14.25ZM30 24.875C29.6292 24.875 29.2666 24.985 28.9583 25.191C28.65 25.397 28.4096 25.6899 28.2677 26.0325C28.1258 26.3751 28.0887 26.7521 28.161 27.1158C28.2334 27.4795 28.412 27.8136 28.6742 28.0758C28.9364 28.338 29.2705 28.5166 29.6342 28.589C29.9979 28.6613 30.3749 28.6242 30.7175 28.4823C31.0601 28.3404 31.353 28.1 31.559 27.7917C31.765 27.4834 31.875 27.1208 31.875 26.75C31.875 26.2527 31.6775 25.7758 31.3258 25.4242C30.9742 25.0725 30.4973 24.875 30 24.875ZM15 16.75C14.5055 16.75 14.0222 16.8966 13.6111 17.1713C13.2 17.446 12.8795 17.8365 12.6903 18.2933C12.5011 18.7501 12.4516 19.2528 12.548 19.7377C12.6445 20.2227 12.8826 20.6681 13.2322 21.0178C13.5819 21.3674 14.0273 21.6055 14.5123 21.702C14.9972 21.7984 15.4999 21.7489 15.9567 21.5597C16.4135 21.3705 16.804 21.05 17.0787 20.6389C17.3534 20.2278 17.5 19.7445 17.5 19.25C17.5 18.587 17.2366 17.9511 16.7678 17.4822C16.2989 17.0134 15.663 16.75 15 16.75ZM36.25 9.25V31.75C36.25 32.413 35.9866 33.0489 35.5178 33.5178C35.0489 33.9866 34.413 34.25 33.75 34.25H6.25C5.58696 34.25 4.95107 33.9866 4.48223 33.5178C4.01339 33.0489 3.75 32.413 3.75 31.75V9.25C3.75 8.58696 4.01339 7.95107 4.48223 7.48223C4.95107 7.01339 5.58696 6.75 6.25 6.75H33.75C34.413 6.75 35.0489 7.01339 35.5178 7.48223C35.9866 7.95107 36.25 8.58696 36.25 9.25ZM26.25 19.25H33.75V9.25H26.25V19.25ZM21.2109 26.4375C20.8064 24.9272 19.8473 23.6249 18.525 22.7906C19.2272 22.0926 19.7064 21.2017 19.9017 20.231C20.0971 19.2603 19.9998 18.2534 19.6222 17.338C19.2447 16.4227 18.6038 15.64 17.7809 15.0893C16.9581 14.5386 15.9902 14.2446 15 14.2446C14.0098 14.2446 13.0419 14.5386 12.2191 15.0893C11.3962 15.64 10.7553 16.4227 10.3778 17.338C10.0002 18.2534 9.90292 19.2603 10.0983 20.231C10.2936 21.2017 10.7728 22.0926 11.475 22.7906C10.1535 23.6259 9.19469 24.9277 8.78906 26.4375C8.70618 26.7587 8.75428 27.0996 8.92277 27.3853C9.09126 27.671 9.36634 27.8781 9.6875 27.9609C10.0087 28.0438 10.3496 27.9957 10.6353 27.8272C10.921 27.6587 11.1281 27.3837 11.2109 27.0625C11.6234 25.4609 13.2516 24.25 15 24.25C16.7484 24.25 18.3781 25.4578 18.7891 27.0625C18.8719 27.3837 19.079 27.6587 19.3647 27.8272C19.6504 27.9957 19.9913 28.0438 20.3125 27.9609C20.6337 27.8781 20.9087 27.671 21.0772 27.3853C21.2457 27.0996 21.2938 26.7587 21.2109 26.4375ZM33.75 31.75V21.75H26.25V31.75H33.75Z" fill="#0099FF"/>
</svg>
