<svg width="15" height="18" viewBox="0 0 15 18" fill="none" xmlns="http://www.w3.org/2000/svg">
<path d="M11.9298 6.5H10.3398V1.5C10.3398 0.95 9.88984 0.5 9.33984 0.5H5.33984C4.78984 0.5 4.33984 0.95 4.33984 1.5V6.5H2.74984C1.85984 6.5 1.40984 7.58 2.03984 8.21L6.62984 12.8C7.01984 13.19 7.64984 13.19 8.03984 12.8L12.6298 8.21C13.2598 7.58 12.8198 6.5 11.9298 6.5ZM0.339844 16.5C0.339844 17.05 0.789844 17.5 1.33984 17.5H13.3398C13.8898 17.5 14.3398 17.05 14.3398 16.5C14.3398 15.95 13.8898 15.5 13.3398 15.5H1.33984C0.789844 15.5 0.339844 15.95 0.339844 16.5Z" fill="#0099FF"/>
</svg>
