<svg width="176" height="29" viewBox="0 0 176 29" fill="none" xmlns="http://www.w3.org/2000/svg">
<path d="M0.123047 28.2918V1.08098H7.03751L13.5599 17.3329H14.2015L20.6882 1.08098H27.7096V28.2918H22.6841V5.06941L23.3257 5.14396L16.3043 22.7378H11.1363L4.07926 5.14396L4.75645 5.06941V28.2918H0.123047Z" fill="#0099FF"/>
<path d="M42.6946 29C41.0313 29 39.57 28.7018 38.3106 28.1054C37.0751 27.509 36.0415 26.7138 35.2098 25.7198C34.402 24.7009 33.7842 23.5703 33.3565 22.3278C32.9525 21.0853 32.7506 19.8179 32.7506 18.5257V17.8175C32.7506 16.4756 32.9525 15.1834 33.3565 13.9409C33.7842 12.6735 34.402 11.5553 35.2098 10.5861C36.0415 9.59212 37.0632 8.80934 38.275 8.23779C39.4868 7.64139 40.8887 7.34319 42.4807 7.34319C44.5717 7.34319 46.3181 7.82776 47.72 8.79692C49.1457 9.74122 50.2149 10.9961 50.9278 12.5617C51.6406 14.1024 51.997 15.7674 51.997 17.5566V19.4203H34.8534V16.2519H48.8962L47.3636 17.8175C47.3636 16.5253 47.1854 15.4195 46.829 14.5C46.4726 13.5805 45.9261 12.8723 45.1895 12.3753C44.4766 11.8783 43.5737 11.6298 42.4807 11.6298C41.3877 11.6298 40.461 11.8907 39.7007 12.4126C38.9403 12.9344 38.3582 13.6924 37.9542 14.6864C37.5741 15.6555 37.384 16.8235 37.384 18.1902C37.384 19.4576 37.5741 20.5883 37.9542 21.5823C38.3344 22.5514 38.9165 23.3218 39.7007 23.8933C40.4848 24.44 41.4827 24.7134 42.6946 24.7134C43.9064 24.7134 44.8925 24.4649 45.6528 23.9679C46.4132 23.446 46.9003 22.8123 47.1141 22.0668H51.6762C51.3911 23.4584 50.8446 24.6761 50.0367 25.7198C49.2288 26.7635 48.1952 27.5711 46.9359 28.1427C45.7003 28.7142 44.2865 29 42.6946 29Z" fill="#0099FF"/>
<path d="M64.452 28.9627C63.0976 28.9627 61.8501 28.7018 60.7096 28.1799C59.5691 27.6581 58.583 26.925 57.7513 25.9807C56.9197 25.0364 56.2782 23.943 55.8267 22.7005C55.3752 21.4332 55.1495 20.0664 55.1495 18.6003V17.8175C55.1495 16.3762 55.3634 15.0219 55.7911 13.7545C56.2425 12.4871 56.8603 11.3813 57.6444 10.437C58.4523 9.49272 59.4146 8.75964 60.5314 8.23779C61.6719 7.69109 62.9313 7.41774 64.3094 7.41774C65.8301 7.41774 67.1607 7.76564 68.3012 8.46144C69.4655 9.13239 70.3922 10.1512 71.0813 11.518C71.7704 12.8847 72.1505 14.5994 72.2218 16.662L70.7605 14.8728V1.08098H75.7147V28.2918H71.7941V19.6812H72.6495C72.5782 21.7438 72.1743 23.4709 71.4377 24.8625C70.7011 26.2292 69.7269 27.2605 68.5151 27.9563C67.327 28.6272 65.9727 28.9627 64.452 28.9627ZM65.5568 24.6015C66.531 24.6015 67.4221 24.3779 68.23 23.9306C69.0378 23.4584 69.6794 22.7875 70.1546 21.9177C70.6536 21.0231 70.9031 19.9794 70.9031 18.7866V17.2956C70.9031 16.1028 70.6536 15.1088 70.1546 14.3136C69.6556 13.4936 69.0022 12.8723 68.1943 12.4499C67.3865 12.0026 66.5073 11.7789 65.5568 11.7789C64.4876 11.7789 63.5372 12.0523 62.7055 12.599C61.8976 13.1208 61.2561 13.8663 60.7809 14.8355C60.3294 15.8046 60.1037 16.9353 60.1037 18.2275C60.1037 19.5197 60.3413 20.6504 60.8165 21.6195C61.2917 22.5638 61.9333 23.2969 62.7412 23.8188C63.5728 24.3406 64.5114 24.6015 65.5568 24.6015Z" fill="#0099FF"/>
<path d="M82.5775 28.2918V8.05141H87.5317V28.2918H82.5775ZM79.8688 11.928V8.05141H87.5317V11.928H79.8688ZM84.3953 5.62853C83.4211 5.62853 82.6964 5.36761 82.2211 4.84576C81.7697 4.29906 81.5439 3.62811 81.5439 2.83291C81.5439 1.98801 81.7697 1.30463 82.2211 0.782777C82.6964 0.260926 83.4211 0 84.3953 0C85.3695 0 86.0823 0.260926 86.5337 0.782777C86.9852 1.30463 87.2109 1.98801 87.2109 2.83291C87.2109 3.62811 86.9852 4.29906 86.5337 4.84576C86.0823 5.36761 85.3695 5.62853 84.3953 5.62853Z" fill="#0099FF"/>
<path d="M102.128 29C100.441 29 98.9796 28.7018 97.744 28.1054C96.5322 27.509 95.5105 26.7138 94.6789 25.7198C93.871 24.7258 93.2651 23.6075 92.8612 22.365C92.4572 21.1225 92.2552 19.8552 92.2552 18.563V17.8548C92.2552 16.488 92.4572 15.1834 92.8612 13.9409C93.2888 12.6735 93.9185 11.5553 94.7502 10.5861C95.5818 9.59212 96.6035 8.80934 97.8153 8.23779C99.0509 7.64139 100.477 7.34319 102.092 7.34319C103.779 7.34319 105.288 7.69109 106.619 8.38689C107.949 9.05784 109.007 10.0021 109.791 11.2198C110.599 12.4374 111.05 13.8539 111.145 15.4692H106.334C106.215 14.4254 105.787 13.5557 105.051 12.8599C104.338 12.1641 103.352 11.8162 102.092 11.8162C100.999 11.8162 100.085 12.0895 99.3479 12.6362C98.6351 13.1829 98.1005 13.9409 97.744 14.91C97.3876 15.8543 97.2094 16.9477 97.2094 18.1902C97.2094 19.383 97.3758 20.464 97.7084 21.4332C98.0648 22.4023 98.5994 23.1602 99.3123 23.7069C100.049 24.2536 100.987 24.527 102.128 24.527C102.983 24.527 103.72 24.3655 104.338 24.0424C104.956 23.7194 105.443 23.2721 105.799 22.7005C106.179 22.129 106.417 21.4829 106.512 20.7622H111.323C111.228 22.4023 110.765 23.8436 109.933 25.0861C109.126 26.3038 108.044 27.2605 106.69 27.9563C105.359 28.6521 103.839 29 102.128 29Z" fill="#0099FF"/>
<path d="M116.516 28.2918V8.05141H121.47V28.2918H116.516ZM113.807 11.928V8.05141H121.47V11.928H113.807ZM118.334 5.62853C117.359 5.62853 116.635 5.36761 116.159 4.84576C115.708 4.29906 115.482 3.62811 115.482 2.83291C115.482 1.98801 115.708 1.30463 116.159 0.782777C116.635 0.260926 117.359 0 118.334 0C119.308 0 120.021 0.260926 120.472 0.782777C120.924 1.30463 121.149 1.98801 121.149 2.83291C121.149 3.62811 120.924 4.29906 120.472 4.84576C120.021 5.36761 119.308 5.62853 118.334 5.62853Z" fill="#0099FF"/>
<path d="M127.477 28.2918V8.05141H131.397V16.7365H131.041C131.041 14.674 131.302 12.9593 131.825 11.5925C132.348 10.2009 133.12 9.15724 134.142 8.46144C135.187 7.76564 136.482 7.41774 138.027 7.41774H138.24C140.545 7.41774 142.292 8.20051 143.48 9.76607C144.668 11.3068 145.262 13.6178 145.262 16.6992V28.2918H140.308V16.2519C140.308 15.0094 139.963 14.003 139.274 13.2326C138.609 12.4623 137.682 12.0771 136.494 12.0771C135.282 12.0771 134.296 12.4747 133.536 13.2699C132.799 14.0403 132.431 15.084 132.431 16.401V28.2918H127.477Z" fill="#0099FF"/>
<path d="M159.546 29C157.883 29 156.421 28.7018 155.162 28.1054C153.926 27.509 152.893 26.7138 152.061 25.7198C151.253 24.7009 150.636 23.5703 150.208 22.3278C149.804 21.0853 149.602 19.8179 149.602 18.5257V17.8175C149.602 16.4756 149.804 15.1834 150.208 13.9409C150.636 12.6735 151.253 11.5553 152.061 10.5861C152.893 9.59212 153.915 8.80934 155.126 8.23779C156.338 7.64139 157.74 7.34319 159.332 7.34319C161.423 7.34319 163.169 7.82776 164.571 8.79692C165.997 9.74122 167.066 10.9961 167.779 12.5617C168.492 14.1024 168.848 15.7674 168.848 17.5566V19.4203H151.705V16.2519H165.748L164.215 17.8175C164.215 16.5253 164.037 15.4195 163.68 14.5C163.324 13.5805 162.777 12.8723 162.041 12.3753C161.328 11.8783 160.425 11.6298 159.332 11.6298C158.239 11.6298 157.312 11.8907 156.552 12.4126C155.792 12.9344 155.21 13.6924 154.806 14.6864C154.425 15.6555 154.235 16.8235 154.235 18.1902C154.235 19.4576 154.425 20.5883 154.806 21.5823C155.186 22.5514 155.768 23.3218 156.552 23.8933C157.336 24.44 158.334 24.7134 159.546 24.7134C160.758 24.7134 161.744 24.4649 162.504 23.9679C163.265 23.446 163.752 22.8123 163.965 22.0668H168.528C168.242 23.4584 167.696 24.6761 166.888 25.7198C166.08 26.7635 165.047 27.5711 163.787 28.1427C162.552 28.7142 161.138 29 159.546 29Z" fill="#0099FF"/>
<path d="M167.995 4.04156C167.995 2.33786 169.315 0.956729 170.944 0.956729H172.173C173.802 0.956729 175.123 2.33786 175.123 4.04156V5.32691C175.123 7.03061 173.802 8.41174 172.173 8.41174H170.944C169.315 8.41174 167.995 7.03061 167.995 5.32691V4.04156Z" fill="#FBA0E3"/>
</svg>
