<svg width="25" height="25" viewBox="0 0 25 25" fill="none" xmlns="http://www.w3.org/2000/svg">
<path d="M12.5986 22.3946C13.2114 22.3954 13.8092 22.2052 14.3089 21.8505C14.8086 21.4959 15.1855 20.9943 15.387 20.4156H9.81029C10.0118 20.9943 10.3886 21.4959 10.8883 21.8505C11.3881 22.2052 11.9859 22.3954 12.5986 22.3946V22.3946ZM19.525 15.0586V10.5209C19.525 7.33776 17.363 4.65628 14.4341 3.84986C14.1442 3.11963 13.4357 2.6051 12.5986 2.6051C11.7615 2.6051 11.0531 3.11963 10.7632 3.84986C7.83431 4.65727 5.67231 7.33776 5.67231 10.5209V15.0586L3.98328 16.7477C3.89121 16.8394 3.8182 16.9484 3.76845 17.0685C3.71869 17.1885 3.69317 17.3173 3.69336 17.4472L3.69336 18.4367C3.69336 18.6991 3.79761 18.9508 3.98317 19.1364C4.16873 19.3219 4.42041 19.4262 4.68284 19.4262H20.5144C20.7769 19.4262 21.0285 19.3219 21.2141 19.1364C21.3997 18.9508 21.5039 18.6991 21.5039 18.4367V17.4472C21.5041 17.3173 21.4786 17.1885 21.4288 17.0685C21.3791 16.9484 21.3061 16.8394 21.214 16.7477L19.525 15.0586Z" fill="#484848"/>
</svg>
